ZillaSlab-Medium.ufo
<glyph name="exclam" format="1">
  <advance width="246"/>
  <unicode hex="0021"/>
  <outline>
    <contour>
      <point x="175" y="650" type="line"/>
      <point x="71" y="650" type="line"/>
      <point x="90" y="203" type="line"/>
      <point x="155" y="203" type="line"/>
    </contour>
    <contour>
      <point x="71" y="0" type="line"/>
      <point x="178" y="0" type="line"/>
      <point x="178" y="111" type="line"/>
      <point x="71" y="111" type="line"/>
    </contour>
  </outline>
</glyph>
<glyph name="numbersign" format="1">
  <advance width="586"/>
  <unicode hex="0023"/>
  <outline>
    <contour>
      <point x="498" y="521" type="line"/>
      <point x="476" y="408" type="line"/>
      <point x="548" y="408" type="line"/>
      <point x="548" y="339" type="line"/>
      <point x="463" y="339" type="line"/>
      <point x="434" y="187" type="line"/>
      <point x="518" y="187" type="line"/>
      <point x="518" y="118" type="line"/>
      <point x="420" y="118" type="line"/>
      <point x="398" y="0" type="line"/>
      <point x="321" y="0" type="line"/>
      <point x="343" y="118" type="line"/>
      <point x="181" y="118" type="line"/>
      <point x="159" y="0" type="line"/>
      <point x="82" y="0" type="line"/>
      <point x="104" y="118" type="line"/>
      <point x="36" y="118" type="line"/>
      <point x="36" y="187" type="line"/>
      <point x="118" y="187" type="line"/>
      <point x="147" y="339" type="line"/>
      <point x="66" y="339" type="line"/>
      <point x="66" y="408" type="line"/>
      <point x="160" y="408" type="line"/>
      <point x="182" y="521" type="line"/>
      <point x="259" y="521" type="line"/>
      <point x="237" y="408" type="line"/>
      <point x="399" y="408" type="line"/>
      <point x="421" y="521" type="line"/>
    </contour>
    <contour>
      <point x="195" y="187" type="line"/>
      <point x="357" y="187" type="line"/>
      <point x="386" y="339" type="line"/>
      <point x="224" y="339" type="line"/>
    </contour>
  </outline>
</glyph>
<glyph name="percent" format="1">
  <advance width="702"/>
  <unicode hex="0025"/>
  <outline>
    <contour>
      <point x="597" y="521" type="line"/>
      <point x="393" y="265" type="line"/>
      <point x="193" y="0" type="line"/>
      <point x="100" y="0" type="line"/>
      <point x="332" y="286" type="line"/>
      <point x="504" y="521" type="line"/>
    </contour>
    <contour>
      <point x="178" y="243" type="curve" smooth="yes"/>
      <point x="274" y="243"/>
      <point x="328" y="302"/>
      <point x="328" y="390" type="curve" smooth="yes"/>
      <point x="328" y="480"/>
      <point x="273" y="531"/>
      <point x="185" y="531" type="curve" smooth="yes"/>
      <point x="94" y="531"/>
      <point x="34" y="476"/>
      <point x="34" y="383" type="curve" smooth="yes"/>
      <point x="34" y="293"/>
      <point x="91" y="243"/>
    </contour>
    <contour>
      <point x="178" y="302" type="curve" smooth="yes"/>
      <point x="132" y="302"/>
      <point x="106" y="328"/>
      <point x="106" y="384" type="curve" smooth="yes"/>
      <point x="106" y="447"/>
      <point x="137" y="471"/>
      <point x="183" y="471" type="curve" smooth="yes"/>
      <point x="229" y="471"/>
      <point x="255" y="446"/>
      <point x="255" y="389" type="curve" smooth="yes"/>
      <point x="255" y="332"/>
      <point x="229" y="302"/>
    </contour>
    <contour>
      <point x="520" y="-10" type="curve" smooth="yes"/>
      <point x="615" y="-10"/>
      <point x="670" y="49"/>
      <point x="670" y="138" type="curve" smooth="yes"/>
      <point x="670" y="227"/>
      <point x="614" y="278"/>
      <point x="527" y="278" type="curve" smooth="yes"/>
      <point x="435" y="278"/>
      <point x="375" y="223"/>
      <point x="375" y="131" type="curve" smooth="yes"/>
      <point x="375" y="40"/>
      <point x="433" y="-10"/>
    </contour>
    <contour>
      <point x="520" y="50" type="curve" smooth="yes"/>
      <point x="474" y="50"/>
      <point x="448" y="75"/>
      <point x="448" y="132" type="curve" smooth="yes"/>
      <point x="448" y="194"/>
      <point x="479" y="219"/>
      <point x="525" y="219" type="curve" smooth="yes"/>
      <point x="571" y="219"/>
      <point x="597" y="194"/>
      <point x="597" y="137" type="curve" smooth="yes"/>
      <point x="597" y="79"/>
      <point x="571" y="50"/>
    </contour>
  </outline>
</glyph>
<glyph name="quotesingle" format="1">
  <advance width="196"/>
  <unicode hex="0027"/>
  <outline>
    <contour>
      <point x="136" y="377" type="line"/>
      <point x="142" y="650" type="line"/>
      <point x="54" y="650" type="line"/>
      <point x="60" y="377" type="line"/>
    </contour>
  </outline>
</glyph>
<glyph name="asterisk" format="1">
  <advance width="415"/>
  <unicode hex="002A"/>
  <outline>
    <contour>
      <point x="374" y="549" type="line"/>
      <point x="259" y="486" type="line"/>
      <point x="374" y="424" type="line"/>
      <point x="339" y="371" type="line"/>
      <point x="234" y="439" type="line"/>
      <point x="240" y="326" type="line"/>
      <point x="175" y="326" type="line"/>
      <point x="180" y="439" type="line"/>
      <point x="76" y="371" type="line"/>
      <point x="42" y="424" type="line"/>
      <point x="157" y="486" type="line"/>
      <point x="42" y="549" type="line"/>
      <point x="76" y="603" type="line"/>
      <point x="181" y="533" type="line"/>
      <point x="175" y="650" type="line"/>
      <point x="240" y="650" type="line"/>
      <point x="234" y="533" type="line"/>
      <point x="340" y="603" type="line"/>
    </contour>
  </outline>
</glyph>
<glyph name="plus" format="1">
  <advance width="415"/>
  <unicode hex="002B"/>
  <outline>
    <contour>
      <point x="34" y="249" type="line"/>
      <point x="179" y="249" type="line"/>
      <point x="179" y="108" type="line"/>
      <point x="242" y="108" type="line"/>
      <point x="242" y="249" type="line"/>
      <point x="381" y="249" type="line"/>
      <point x="381" y="313" type="line"/>
      <point x="242" y="313" type="line"/>
      <point x="242" y="455" type="line"/>
      <point x="179" y="455" type="line"/>
      <point x="179" y="313" type="line"/>
      <point x="34" y="313" type="line"/>
    </contour>
  </outline>
</glyph>
<glyph name="hyphen" format="1">
  <advance width="340"/>
  <unicode hex="002D"/>
  <outline>
    <contour>
      <point x="53" y="269" type="line"/>
      <point x="287" y="269" type="line"/>
      <point x="287" y="194" type="line"/>
      <point x="53" y="194" type="line"/>
    </contour>
  </outline>
</glyph>
<glyph name="period" format="1">
  <advance width="216"/>
  <unicode hex="002E"/>
  <outline>
    <contour>
      <point x="51" y="0" type="line"/>
      <point x="165" y="0" type="line"/>
      <point x="165" y="124" type="line"/>
      <point x="51" y="124" type="line"/>
    </contour>
  </outline>
</glyph>
<glyph name="zero" format="1">
  <advance width="576"/>
  <unicode hex="0030"/>
  <outline>
    <contour>
      <point x="534" y="257" type="curve" smooth="yes"/>
      <point x="534" y="412"/>
      <point x="457" y="531"/>
      <point x="289" y="531" type="curve" smooth="yes"/>
      <point x="127" y="531"/>
      <point x="42" y="415"/>
      <point x="42" y="255" type="curve" smooth="yes"/>
      <point x="42" y="88"/>
      <point x="128" y="-10"/>
      <point x="285" y="-10" type="curve" smooth="yes"/>
      <point x="442" y="-10"/>
      <point x="534" y="88"/>
    </contour>
    <contour>
      <point x="437" y="262" type="curve" smooth="yes"/>
      <point x="437" y="129"/>
      <point x="381" y="70"/>
      <point x="288" y="70" type="curve" smooth="yes"/>
      <point x="190" y="70"/>
      <point x="140" y="133"/>
      <point x="140" y="261" type="curve" smooth="yes"/>
      <point x="140" y="388"/>
      <point x="190" y="451"/>
      <point x="289" y="451" type="curve" smooth="yes"/>
      <point x="387" y="451"/>
      <point x="437" y="387"/>
    </contour>
  </outline>
</glyph>
<glyph name="three" format="1">
  <advance width="502"/>
  <unicode hex="0033"/>
  <outline>
    <contour>
      <point x="68" y="483" type="curve"/>
      <point x="49" y="360" type="line"/>
      <point x="121" y="352" type="line"/>
      <point x="137" y="431" type="line"/>
      <point x="165" y="445"/>
      <point x="204" y="453"/>
      <point x="231" y="453" type="curve" smooth="yes"/>
      <point x="300" y="453"/>
      <point x="339" y="417"/>
      <point x="339" y="358" type="curve" smooth="yes"/>
      <point x="339" y="310"/>
      <point x="310" y="245"/>
      <point x="186" y="241" type="curve"/>
      <point x="186" y="177" type="line"/>
      <point x="314" y="173"/>
      <point x="365" y="135"/>
      <point x="365" y="59" type="curve" smooth="yes"/>
      <point x="365" y="-2"/>
      <point x="336" y="-63"/>
      <point x="238" y="-63" type="curve" smooth="yes"/>
      <point x="156" y="-63"/>
      <point x="121" y="-16"/>
      <point x="107" y="35" type="curve"/>
      <point x="35" y="11" type="line"/>
      <point x="47" y="-77"/>
      <point x="111" y="-141"/>
      <point x="240" y="-141" type="curve" smooth="yes"/>
      <point x="372" y="-141"/>
      <point x="462" y="-70"/>
      <point x="462" y="52" type="curve" smooth="yes"/>
      <point x="462" y="128"/>
      <point x="426" y="195"/>
      <point x="314" y="214" type="curve"/>
      <point x="314" y="218" type="line"/>
      <point x="405" y="249"/>
      <point x="436" y="306"/>
      <point x="436" y="371" type="curve" smooth="yes"/>
      <point x="436" y="477"/>
      <point x="355" y="531"/>
      <point x="246" y="531" type="curve" smooth="yes"/>
      <point x="185" y="531"/>
      <point x="116" y="510"/>
    </contour>
  </outline>
</glyph>
<glyph name="four" format="1">
  <advance width="548"/>
  <unicode hex="0034"/>
  <outline>
    <contour>
      <point x="421" y="-131" type="line"/>
      <point x="421" y="32" type="line"/>
      <point x="515" y="32" type="line"/>
      <point x="524" y="109" type="line"/>
      <point x="421" y="109" type="line"/>
      <point x="421" y="521" type="line"/>
      <point x="241" y="521" type="line"/>
      <point x="18" y="109" type="line"/>
      <point x="28" y="32" type="line"/>
      <point x="330" y="32" type="line"/>
      <point x="330" y="-131" type="line"/>
    </contour>
    <contour>
      <point x="330" y="109" type="line"/>
      <point x="105" y="109" type="line"/>
      <point x="285" y="443" type="line"/>
      <point x="330" y="443" type="line"/>
    </contour>
  </outline>
</glyph>
<glyph name="seven" format="1">
  <advance width="478"/>
  <unicode hex="0037"/>
  <outline>
    <contour>
      <point x="465" y="473" type="line"/>
      <point x="453" y="521" type="line"/>
      <point x="31" y="521" type="line"/>
      <point x="31" y="333" type="line"/>
      <point x="112" y="333" type="line"/>
      <point x="112" y="443" type="line"/>
      <point x="368" y="443" type="line"/>
      <point x="133" y="-130" type="line"/>
      <point x="223" y="-130" type="line"/>
    </contour>
  </outline>
</glyph>
<glyph name="nine" format="1">
  <advance width="532"/>
  <unicode hex="0039"/>
  <outline>
    <contour>
      <point x="43" y="313" type="curve" smooth="yes"/>
      <point x="43" y="208"/>
      <point x="93" y="113"/>
      <point x="226" y="113" type="curve" smooth="yes"/>
      <point x="323" y="113"/>
      <point x="372" y="163"/>
      <point x="393" y="214" type="curve"/>
      <point x="393" y="192" type="line" smooth="yes"/>
      <point x="389" y="26"/>
      <point x="356" y="-61"/>
      <point x="246" y="-61" type="curve" smooth="yes"/>
      <point x="190" y="-61"/>
      <point x="140" y="-37"/>
      <point x="108" y="3" type="curve"/>
      <point x="55" y="-51" type="line"/>
      <point x="103" y="-112"/>
      <point x="163" y="-139"/>
      <point x="243" y="-139" type="curve" smooth="yes"/>
      <point x="425" y="-139"/>
      <point x="489" y="18"/>
      <point x="489" y="213" type="curve" smooth="yes"/>
      <point x="489" y="397"/>
      <point x="432" y="531"/>
      <point x="260" y="531" type="curve" smooth="yes"/>
      <point x="113" y="531"/>
      <point x="43" y="435"/>
    </contour>
    <contour>
      <point x="136" y="317" type="curve" smooth="yes"/>
      <point x="136" y="400"/>
      <point x="170" y="450"/>
      <point x="258" y="450" type="curve" smooth="yes"/>
      <point x="346" y="450"/>
      <point x="379" y="398"/>
      <point x="389" y="315" type="curve"/>
      <point x="384" y="256"/>
      <point x="348" y="189"/>
      <point x="252" y="189" type="curve" smooth="yes"/>
      <point x="168" y="189"/>
      <point x="136" y="236"/>
    </contour>
  </outline>
</glyph>
<glyph name="less" format="1">
  <advance width="404"/>
  <unicode hex="003C"/>
  <outline>
    <contour>
      <point x="347" y="14" type="line"/>
      <point x="347" y="98" type="line"/>
      <point x="121" y="281" type="line"/>
      <point x="346" y="465" type="line"/>
      <point x="346" y="549" type="line"/>
      <point x="28" y="293" type="line"/>
      <point x="28" y="265" type="line"/>
    </contour>
  </outline>
</glyph>
<glyph name="greater" format="1">
  <advance width="403"/>
  <unicode hex="003E"/>
  <outline>
    <contour>
      <point x="375" y="265" type="line"/>
      <point x="375" y="293" type="line"/>
      <point x="57" y="549" type="line"/>
      <point x="57" y="465" type="line"/>
      <point x="283" y="281" type="line"/>
      <point x="56" y="98" type="line"/>
      <point x="56" y="14" type="line"/>
    </contour>
  </outline>
</glyph>
<glyph name="D" format="1">
  <advance width="703"/>
  <unicode hex="0044"/>
  <outline>
    <contour>
      <point x="667" y="326" type="curve" smooth="yes"/>
      <point x="667" y="516"/>
      <point x="549" y="650"/>
      <point x="334" y="650" type="curve" smooth="yes"/>
      <point x="41" y="650" type="line"/>
      <point x="41" y="572" type="line"/>
      <point x="120" y="572" type="line"/>
      <point x="120" y="78" type="line"/>
      <point x="41" y="78" type="line"/>
      <point x="41" y="0" type="line"/>
      <point x="339" y="0" type="line" smooth="yes"/>
      <point x="544" y="0"/>
      <point x="667" y="133"/>
    </contour>
    <contour>
      <point x="570" y="325" type="curve" smooth="yes"/>
      <point x="570" y="168"/>
      <point x="486" y="78"/>
      <point x="332" y="78" type="curve" smooth="yes"/>
      <point x="211" y="78" type="line"/>
      <point x="211" y="572" type="line"/>
      <point x="332" y="572" type="line" smooth="yes"/>
      <point x="487" y="572"/>
      <point x="570" y="479"/>
    </contour>
  </outline>
</glyph>
<glyph name="E" format="1">
  <advance width="590"/>
  <unicode hex="0045"/>
  <outline>
    <contour>
      <point x="530" y="0" type="line"/>
      <point x="550" y="186" type="line"/>
      <point x="472" y="193" type="line"/>
      <point x="452" y="79" type="line"/>
      <point x="211" y="79" type="line"/>
      <point x="211" y="290" type="line"/>
      <point x="507" y="290" type="line"/>
      <point x="507" y="368" type="line"/>
      <point x="211" y="368" type="line"/>
      <point x="211" y="571" type="line"/>
      <point x="443" y="571" type="line"/>
      <point x="463" y="457" type="line"/>
      <point x="542" y="464" type="line"/>
      <point x="522" y="650" type="line"/>
      <point x="41" y="650" type="line"/>
      <point x="41" y="571" type="line"/>
      <point x="120" y="571" type="line"/>
      <point x="120" y="79" type="line"/>
      <point x="41" y="79" type="line"/>
      <point x="41" y="0" type="line"/>
    </contour>
  </outline>
</glyph>
<glyph name="H" format="1">
  <advance width="757"/>
  <unicode hex="0048"/>
  <outline>
    <contour>
      <point x="715" y="0" type="line"/>
      <point x="715" y="79" type="line"/>
      <point x="637" y="79" type="line"/>
      <point x="637" y="571" type="line"/>
      <point x="715" y="571" type="line"/>
      <point x="715" y="650" type="line"/>
      <point x="468" y="650" type="line"/>
      <point x="468" y="571" type="line"/>
      <point x="546" y="571" type="line"/>
      <point x="546" y="369" type="line"/>
      <point x="211" y="369" type="line"/>
      <point x="211" y="571" type="line"/>
      <point x="289" y="571" type="line"/>
      <point x="289" y="650" type="line"/>
      <point x="41" y="650" type="line"/>
      <point x="41" y="571" type="line"/>
      <point x="120" y="571" type="line"/>
      <point x="120" y="79" type="line"/>
      <point x="41" y="79" type="line"/>
      <point x="41" y="0" type="line"/>
      <point x="289" y="0" type="line"/>
      <point x="289" y="79" type="line"/>
      <point x="211" y="79" type="line"/>
      <point x="211" y="292" type="line"/>
      <point x="546" y="292" type="line"/>
      <point x="546" y="79" type="line"/>
      <point x="468" y="79" type="line"/>
      <point x="468" y="0" type="line"/>
    </contour>
  </outline>
</glyph>
<glyph name="J" format="1">
  <advance width="465"/>
  <unicode hex="004A"/>
  <outline>
    <contour>
      <point x="430" y="571" type="line"/>
      <point x="430" y="650" type="line"/>
      <point x="146" y="650" type="line"/>
      <point x="146" y="571" type="line"/>
      <point x="270" y="571" type="line"/>
      <point x="270" y="171" type="line" smooth="yes"/>
      <point x="270" y="114"/>
      <point x="243" y="75"/>
      <point x="177" y="75" type="curve" smooth="yes"/>
      <point x="137" y="75"/>
      <point x="105" y="90"/>
      <point x="78" y="145" type="curve"/>
      <point x="13" y="96" type="line"/>
      <point x="41" y="35"/>
      <point x="92" y="-10"/>
      <point x="185" y="-10" type="curve" smooth="yes"/>
      <point x="294" y="-10"/>
      <point x="361" y="50"/>
      <point x="361" y="172" type="curve" smooth="yes"/>
      <point x="361" y="571" type="line"/>
    </contour>
  </outline>
</glyph>
<glyph name="L" format="1">
  <advance width="548"/>
  <unicode hex="004C"/>
  <outline>
    <contour>
      <point x="516" y="0" type="line"/>
      <point x="536" y="214" type="line"/>
      <point x="457" y="221" type="line"/>
      <point x="437" y="79" type="line"/>
      <point x="211" y="79" type="line"/>
      <point x="211" y="571" type="line"/>
      <point x="314" y="571" type="line"/>
      <point x="314" y="650" type="line"/>
      <point x="41" y="650" type="line"/>
      <point x="41" y="571" type="line"/>
      <point x="120" y="571" type="line"/>
      <point x="120" y="79" type="line"/>
      <point x="41" y="79" type="line"/>
      <point x="41" y="0" type="line"/>
    </contour>
  </outline>
</glyph>
<glyph name="P" format="1">
  <advance width="581"/>
  <unicode hex="0050"/>
  <outline>
    <contour>
      <point x="555" y="448" type="curve" smooth="yes"/>
      <point x="555" y="561"/>
      <point x="485" y="650"/>
      <point x="324" y="650" type="curve" smooth="yes"/>
      <point x="41" y="650" type="line"/>
      <point x="41" y="571" type="line"/>
      <point x="120" y="571" type="line"/>
      <point x="120" y="79" type="line"/>
      <point x="41" y="79" type="line"/>
      <point x="41" y="0" type="line"/>
      <point x="319" y="0" type="line"/>
      <point x="319" y="79" type="line"/>
      <point x="211" y="79" type="line"/>
      <point x="211" y="235" type="line"/>
      <point x="330" y="235" type="line" smooth="yes"/>
      <point x="458" y="235"/>
      <point x="555" y="308"/>
    </contour>
    <contour>
      <point x="458" y="446" type="curve" smooth="yes"/>
      <point x="458" y="362"/>
      <point x="412" y="313"/>
      <point x="316" y="313" type="curve" smooth="yes"/>
      <point x="211" y="313" type="line"/>
      <point x="211" y="571" type="line"/>
      <point x="314" y="571" type="line" smooth="yes"/>
      <point x="416" y="571"/>
      <point x="458" y="524"/>
    </contour>
  </outline>
</glyph>
<glyph name="Q" format="1">
  <advance width="731"/>
  <unicode hex="0051"/>
  <outline>
    <contour>
      <point x="689" y="325" type="curve" smooth="yes"/>
      <point x="689" y="510"/>
      <point x="561" y="660"/>
      <point x="362" y="660" type="curve" smooth="yes"/>
      <point x="166" y="660"/>
      <point x="35" y="512"/>
      <point x="35" y="325" type="curve" smooth="yes"/>
      <point x="35" y="142"/>
      <point x="159" y="-10"/>
      <point x="360" y="-10" type="curve" smooth="yes"/>
      <point x="429" y="-10"/>
      <point x="491" y="9"/>
      <point x="540" y="41" type="curve"/>
      <point x="619" y="-38" type="line"/>
      <point x="676" y="19" type="line"/>
      <point x="603" y="93" type="line"/>
      <point x="658" y="154"/>
      <point x="689" y="235"/>
    </contour>
    <contour>
      <point x="591" y="323" type="curve" smooth="yes"/>
      <point x="591" y="258"/>
      <point x="574" y="200"/>
      <point x="541" y="157" type="curve"/>
      <point x="424" y="276" type="line"/>
      <point x="367" y="219" type="line"/>
      <point x="481" y="103" type="line"/>
      <point x="449" y="82"/>
      <point x="409" y="71"/>
      <point x="364" y="71" type="curve" smooth="yes"/>
      <point x="212" y="71"/>
      <point x="133" y="188"/>
      <point x="133" y="326" type="curve" smooth="yes"/>
      <point x="133" y="468"/>
      <point x="215" y="579"/>
      <point x="362" y="579" type="curve" smooth="yes"/>
      <point x="504" y="579"/>
      <point x="591" y="474"/>
    </contour>
  </outline>
</glyph>
<glyph name="bracketleft" format="1">
  <advance width="287"/>
  <unicode hex="005B"/>
  <outline>
    <contour>
      <point x="79" y="-223" type="line"/>
      <point x="269" y="-223" type="line"/>
      <point x="269" y="-161" type="line"/>
      <point x="155" y="-161" type="line"/>
      <point x="155" y="698" type="line"/>
      <point x="269" y="698" type="line"/>
      <point x="269" y="760" type="line"/>
      <point x="79" y="760" type="line"/>
    </contour>
  </outline>
</glyph>
<glyph name="backslash" format="1">
  <advance width="397"/>
  <unicode hex="005C"/>
  <outline>
    <contour>
      <point x="83" y="688" type="line"/>
      <point x="292" y="0" type="line"/>
      <point x="378" y="0" type="line"/>
      <point x="169" y="688" type="line"/>
    </contour>
  </outline>
</glyph>
<glyph name="bracketright" format="1">
  <advance width="287"/>
  <unicode hex="005D"/>
  <outline>
    <contour>
      <point x="207" y="-223" type="line"/>
      <point x="17" y="-223" type="line"/>
      <point x="17" y="-161" type="line"/>
      <point x="131" y="-161" type="line"/>
      <point x="131" y="698" type="line"/>
      <point x="17" y="698" type="line"/>
      <point x="17" y="760" type="line"/>
      <point x="207" y="760" type="line"/>
    </contour>
  </outline>
</glyph>
<glyph name="asciicircum" format="1">
  <advance width="457"/>
  <unicode hex="005E"/>
  <outline>
    <contour>
      <point x="198" y="654" type="line"/>
      <point x="37" y="371" type="line"/>
      <point x="118" y="371" type="line"/>
      <point x="226" y="569" type="line"/>
      <point x="340" y="371" type="line"/>
      <point x="421" y="371" type="line"/>
      <point x="254" y="654" type="line"/>
    </contour>
  </outline>
</glyph>
<glyph name="underscore" format="1">
  <advance width="525"/>
  <unicode hex="005F"/>
  <outline>
    <contour>
      <point x="47" y="-72" type="line"/>
      <point x="479" y="-72" type="line"/>
      <point x="479" y="-133" type="line"/>
      <point x="47" y="-133" type="line"/>
    </contour>
  </outline>
</glyph>
<glyph name="grave" format="1">
  <advance width="440"/>
  <unicode hex="0060"/>
  <outline>
    <contour>
      <point x="358" y="553" type="line"/>
      <point x="202" y="688" type="line"/>
      <point x="154" y="617" type="line"/>
      <point x="333" y="516" type="line"/>
    </contour>
  </outline>
</glyph>
<glyph name="b" format="1">
  <advance width="539"/>
  <unicode hex="0062"/>
  <outline>
    <contour>
      <point x="506" y="234" type="curve" smooth="yes"/>
      <point x="506" y="375"/>
      <point x="426" y="456"/>
      <point x="315" y="456" type="curve" smooth="yes"/>
      <point x="230" y="456"/>
      <point x="184" y="410"/>
      <point x="158" y="357" type="curve"/>
      <point x="158" y="688" type="line"/>
      <point x="-2" y="688" type="line"/>
      <point x="-2" y="619" type="line"/>
      <point x="70" y="619" type="line"/>
      <point x="70" y="132" type="line" smooth="yes"/>
      <point x="70" y="88"/>
      <point x="62" y="41"/>
      <point x="55" y="0" type="curve"/>
      <point x="143" y="0" type="line"/>
      <point x="145" y="10"/>
      <point x="151" y="62"/>
      <point x="152" y="72" type="curve"/>
      <point x="180" y="20"/>
      <point x="235" y="-10"/>
      <point x="305" y="-10" type="curve" smooth="yes"/>
      <point x="445" y="-10"/>
      <point x="506" y="113"/>
    </contour>
    <contour>
      <point x="414" y="227" type="curve" smooth="yes"/>
      <point x="414" y="135"/>
      <point x="372" y="62"/>
      <point x="285" y="62" type="curve" smooth="yes"/>
      <point x="211" y="62"/>
      <point x="158" y="120"/>
      <point x="158" y="195" type="curve" smooth="yes"/>
      <point x="158" y="245" type="line"/>
      <point x="159" y="311"/>
      <point x="209" y="384"/>
      <point x="290" y="384" type="curve" smooth="yes"/>
      <point x="361" y="384"/>
      <point x="414" y="330"/>
    </contour>
    <contour>
      <point x="266" y="566" type="move" name="top"/>
    </contour>
  </outline>
</glyph>
<glyph name="f" format="1">
  <advance width="326"/>
  <unicode hex="0066"/>
  <outline>
    <contour>
      <point x="262" y="698" type="curve" smooth="yes"/>
      <point x="167" y="698"/>
      <point x="99" y="627"/>
      <point x="99" y="526" type="curve" smooth="yes"/>
      <point x="99" y="447" type="line"/>
      <point x="37" y="447" type="line"/>
      <point x="37" y="380" type="line"/>
      <point x="99" y="380" type="line"/>
      <point x="99" y="68" type="line"/>
      <point x="26" y="68" type="line"/>
      <point x="26" y="0" type="line"/>
      <point x="280" y="0" type="line"/>
      <point x="280" y="68" type="line"/>
      <point x="186" y="68" type="line"/>
      <point x="186" y="380" type="line"/>
      <point x="301" y="380" type="line"/>
      <point x="301" y="447" type="line"/>
      <point x="186" y="447" type="line"/>
      <point x="186" y="536" type="line" smooth="yes"/>
      <point x="186" y="596"/>
      <point x="212" y="628"/>
      <point x="257" y="628" type="curve" smooth="yes"/>
      <point x="274" y="628"/>
      <point x="289" y="626"/>
      <point x="304" y="621" type="curve"/>
      <point x="323" y="546" type="line"/>
      <point x="393" y="555" type="line"/>
      <point x="375" y="664" type="line"/>
      <point x="341" y="691"/>
      <point x="303" y="698"/>
    </contour>
  </outline>
</glyph>
<glyph name="j" format="1">
  <advance width="255"/>
  <unicode hex="006A"/>
  <outline>
    <contour>
      <point x="187" y="-5" type="curve" smooth="yes"/>
      <point x="187" y="447" type="line"/>
      <point x="9" y="447" type="line"/>
      <point x="9" y="378" type="line"/>
      <point x="99" y="378" type="line"/>
      <point x="99" y="-5" type="line" smooth="yes"/>
      <point x="99" y="-149"/>
      <point x="38" y="-161"/>
      <point x="-17" y="-161" type="curve"/>
      <point x="-14" y="-223" type="line"/>
      <point x="115" y="-235"/>
      <point x="187" y="-175"/>
    </contour>
    <contour>
      <point x="95" y="552" type="line"/>
      <point x="187" y="552" type="line"/>
      <point x="187" y="655" type="line"/>
      <point x="95" y="655" type="line"/>
    </contour>
  </outline>
</glyph>
<glyph name="l" format="1">
  <advance width="272"/>
  <unicode hex="006C"/>
  <outline>
    <contour>
      <point x="252" y="0" type="line"/>
      <point x="252" y="68" type="line"/>
      <point x="180" y="68" type="line"/>
      <point x="180" y="688" type="line"/>
      <point x="17" y="688" type="line"/>
      <point x="17" y="619" type="line"/>
      <point x="92" y="619" type="line"/>
      <point x="92" y="68" type="line"/>
      <point x="20" y="68" type="line"/>
      <point x="20" y="0" type="line"/>
    </contour>
    <contour>
      <point x="292" y="566" type="move" name="top"/>
    </contour>
  </outline>
</glyph>
<glyph name="p" format="1">
  <advance width="556"/>
  <unicode hex="0070"/>
  <outline>
    <contour>
      <point x="523" y="235" type="curve" smooth="yes"/>
      <point x="523" y="374"/>
      <point x="444" y="456"/>
      <point x="330" y="456" type="curve" smooth="yes"/>
      <point x="248" y="456"/>
      <point x="201" y="409"/>
      <point x="174" y="356" type="curve"/>
      <point x="174" y="447" type="line"/>
      <point x="11" y="447" type="line"/>
      <point x="11" y="378" type="line"/>
      <point x="87" y="378" type="line"/>
      <point x="87" y="-143" type="line"/>
      <point x="14" y="-143" type="line"/>
      <point x="14" y="-213" type="line"/>
      <point x="271" y="-213" type="line"/>
      <point x="271" y="-143" type="line"/>
      <point x="174" y="-143" type="line"/>
      <point x="174" y="63" type="line"/>
      <point x="203" y="16"/>
      <point x="255" y="-10"/>
      <point x="318" y="-10" type="curve" smooth="yes"/>
      <point x="461" y="-10"/>
      <point x="523" y="112"/>
    </contour>
    <contour>
      <point x="431" y="227" type="curve" smooth="yes"/>
      <point x="431" y="134"/>
      <point x="388" y="62"/>
      <point x="299" y="62" type="curve" smooth="yes"/>
      <point x="228" y="62"/>
      <point x="174" y="116"/>
      <point x="174" y="190" type="curve" smooth="yes"/>
      <point x="175" y="242" type="line"/>
      <point x="178" y="312"/>
      <point x="228" y="384"/>
      <point x="304" y="384" type="curve" smooth="yes"/>
      <point x="378" y="384"/>
      <point x="431" y="329"/>
    </contour>
    <contour>
      <point x="306" y="566" type="move" name="top"/>
    </contour>
  </outline>
</glyph>
<glyph name="t" format="1">
  <advance width="379"/>
  <unicode hex="0074"/>
  <outline>
    <contour>
      <point x="378" y="126" type="curve"/>
      <point x="313" y="147" type="line"/>
      <point x="301" y="76"/>
      <point x="267" y="65"/>
      <point x="238" y="65" type="curve" smooth="yes"/>
      <point x="191" y="65"/>
      <point x="169" y="94"/>
      <point x="169" y="145" type="curve" smooth="yes"/>
      <point x="169" y="380" type="line"/>
      <point x="340" y="380" type="line"/>
      <point x="340" y="447" type="line"/>
      <point x="169" y="447" type="line"/>
      <point x="169" y="588" type="line"/>
      <point x="82" y="588" type="line"/>
      <point x="82" y="447" type="line"/>
      <point x="13" y="447" type="line"/>
      <point x="13" y="380" type="line"/>
      <point x="82" y="380" type="line"/>
      <point x="82" y="132" type="line" smooth="yes"/>
      <point x="82" y="43"/>
      <point x="136" y="-10"/>
      <point x="228" y="-10" type="curve" smooth="yes"/>
      <point x="313" y="-10"/>
      <point x="365" y="35"/>
    </contour>
  </outline>
</glyph>
<glyph name="x" format="1">
  <advance width="521"/>
  <unicode hex="0078"/>
  <outline>
    <contour>
      <point x="505" y="0" type="line"/>
      <point x="505" y="68" type="line"/>
      <point x="453" y="68" type="line"/>
      <point x="311" y="229" type="line"/>
      <point x="446" y="378" type="line"/>
      <point x="496" y="378" type="line"/>
      <point x="496" y="447" type="line"/>
      <point x="313" y="447" type="line"/>
      <point x="313" y="378" type="line"/>
      <point x="359" y="378" type="line"/>
      <point x="267" y="269" type="line"/>
      <point x="178" y="378" type="line"/>
      <point x="230" y="378" type="line"/>
      <point x="230" y="447" type="line"/>
      <point x="20" y="447" type="line"/>
      <point x="20" y="378" type="line"/>
      <point x="75" y="378" type="line"/>
      <point x="215" y="222" type="line"/>
      <point x="79" y="68" type="line"/>
      <point x="18" y="68" type="line"/>
      <point x="18" y="0" type="line"/>
      <point x="211" y="0" type="line"/>
      <point x="211" y="68" type="line"/>
      <point x="165" y="68" type="line"/>
      <point x="258" y="180" type="line"/>
      <point x="351" y="68" type="line"/>
      <point x="300" y="68" type="line"/>
      <point x="300" y="0" type="line"/>
    </contour>
  </outline>
</glyph>
<glyph name="y" format="1">
  <advance width="517"/>
  <unicode hex="0079"/>
  <outline>
    <contour>
      <point x="508" y="378" type="line"/>
      <point x="508" y="447" type="line"/>
      <point x="309" y="447" type="line"/>
      <point x="309" y="378" type="line"/>
      <point x="372" y="378" type="line"/>
      <point x="273" y="106" type="line"/>
      <point x="267" y="106" type="line"/>
      <point x="152" y="378" type="line"/>
      <point x="220" y="378" type="line"/>
      <point x="220" y="447" type="line"/>
      <point x="7" y="447" type="line"/>
      <point x="7" y="378" type="line"/>
      <point x="58" y="378" type="line"/>
      <point x="219" y="-1" type="line"/>
      <point x="167" y="-143" type="line"/>
      <point x="88" y="-143" type="line"/>
      <point x="88" y="-213" type="line"/>
      <point x="320" y="-213" type="line"/>
      <point x="320" y="-143" type="line"/>
      <point x="249" y="-143" type="line"/>
      <point x="304" y="0" type="line"/>
      <point x="458" y="378" type="line"/>
    </contour>
  </outline>
</glyph>
<glyph name="z" format="1">
  <advance width="468"/>
  <unicode hex="007A"/>
  <outline>
    <contour>
      <point x="418" y="0" type="line"/>
      <point x="443" y="144" type="line"/>
      <point x="373" y="153" type="line"/>
      <point x="351" y="68" type="line"/>
      <point x="146" y="68" type="line"/>
      <point x="418" y="397" type="line"/>
      <point x="413" y="447" type="line"/>
      <point x="44" y="447" type="line"/>
      <point x="31" y="302" type="line"/>
      <point x="98" y="295" type="line"/>
      <point x="113" y="378" type="line"/>
      <point x="301" y="378" type="line"/>
      <point x="32" y="50" type="line"/>
      <point x="38" y="0" type="line"/>
    </contour>
    <contour>
      <point x="191" y="505" type="move" name="top"/>
    </contour>
  </outline>
</glyph>
<glyph name="braceright" format="1">
  <advance width="286"/>
  <unicode hex="007D"/>
  <outline>
    <contour>
      <point x="173" y="271" type="curve"/>
      <point x="96" y="260"/>
      <point x="69" y="222"/>
      <point x="69" y="185" type="curve" smooth="yes"/>
      <point x="69" y="120"/>
      <point x="155" y="-7"/>
      <point x="155" y="-96" type="curve" smooth="yes"/>
      <point x="155" y="-140"/>
      <point x="134" y="-160"/>
      <point x="92" y="-160" type="curve" smooth="yes"/>
      <point x="28" y="-160" type="line"/>
      <point x="28" y="-222" type="line"/>
      <point x="92" y="-222" type="line" smooth="yes"/>
      <point x="185" y="-222"/>
      <point x="228" y="-172"/>
      <point x="228" y="-98" type="curve" smooth="yes"/>
      <point x="228" y="4"/>
      <point x="143" y="131"/>
      <point x="143" y="189" type="curve" smooth="yes"/>
      <point x="143" y="240"/>
      <point x="211" y="249"/>
      <point x="241" y="249" type="curve" smooth="yes"/>
      <point x="260" y="249" type="line"/>
      <point x="260" y="293" type="line"/>
      <point x="241" y="293" type="line" smooth="yes"/>
      <point x="210" y="293"/>
      <point x="143" y="303"/>
      <point x="143" y="354" type="curve" smooth="yes"/>
      <point x="143" y="412"/>
      <point x="228" y="535"/>
      <point x="228" y="636" type="curve" smooth="yes"/>
      <point x="228" y="705"/>
      <point x="188" y="761"/>
      <point x="92" y="761" type="curve" smooth="yes"/>
      <point x="28" y="761" type="line"/>
      <point x="28" y="698" type="line"/>
      <point x="92" y="698" type="line" smooth="yes"/>
      <point x="134" y="698"/>
      <point x="155" y="678"/>
      <point x="155" y="634" type="curve" smooth="yes"/>
      <point x="155" y="546"/>
      <point x="69" y="423"/>
      <point x="69" y="358" type="curve" smooth="yes"/>
      <point x="69" y="320"/>
      <point x="97" y="283"/>
    </contour>
  </outline>
</glyph>
<glyph name="currency" format="1">
  <advance width="504"/>
  <unicode hex="00A4"/>
  <outline>
    <contour>
      <point x="100" y="268" type="curve" smooth="yes"/>
      <point x="100" y="236"/>
      <point x="110" y="206"/>
      <point x="127" y="182" type="curve"/>
      <point x="36" y="91" type="line"/>
      <point x="71" y="56" type="line"/>
      <point x="162" y="146" type="line"/>
      <point x="187" y="127"/>
      <point x="218" y="117"/>
      <point x="251" y="117" type="curve" smooth="yes"/>
      <point x="284" y="117"/>
      <point x="315" y="127"/>
      <point x="340" y="146" type="curve"/>
      <point x="431" y="56" type="line"/>
      <point x="467" y="91" type="line"/>
      <point x="375" y="182" type="line"/>
      <point x="392" y="207"/>
      <point x="402" y="236"/>
      <point x="402" y="268" type="curve" smooth="yes"/>
      <point x="402" y="298"/>
      <point x="393" y="327"/>
      <point x="377" y="351" type="curve"/>
      <point x="467" y="441" type="line"/>
      <point x="431" y="476" type="line"/>
      <point x="342" y="388" type="line"/>
      <point x="317" y="407"/>
      <point x="285" y="419"/>
      <point x="251" y="419" type="curve" smooth="yes"/>
      <point x="216" y="419"/>
      <point x="185" y="407"/>
      <point x="159" y="388" type="curve"/>
      <point x="71" y="476" type="line"/>
      <point x="36" y="441" type="line"/>
      <point x="125" y="351" type="line"/>
      <point x="109" y="327"/>
      <point x="100" y="299"/>
    </contour>
    <contour>
      <point x="176" y="268" type="curve" smooth="yes"/>
      <point x="176" y="317"/>
      <point x="211" y="350"/>
      <point x="252" y="350" type="curve" smooth="yes"/>
      <point x="293" y="350"/>
      <point x="327" y="316"/>
      <point x="327" y="268" type="curve" smooth="yes"/>
      <point x="327" y="220"/>
      <point x="293" y="187"/>
      <point x="252" y="187" type="curve" smooth="yes"/>
      <point x="210" y="187"/>
      <point x="176" y="220"/>
    </contour>
  </outline>
</glyph>
<glyph name="brokenbar" format="1">
  <advance width="232"/>
  <unicode hex="00A6"/>
  <outline>
    <contour>
      <point x="154" y="730" type="line"/>
      <point x="154" y="426" type="line"/>
      <point x="77" y="426" type="line"/>
      <point x="77" y="730" type="line"/>
    </contour>
    <contour>
      <point x="154" y="224" type="line"/>
      <point x="154" y="-80" type="line"/>
      <point x="77" y="-80" type="line"/>
      <point x="77" y="224" type="line"/>
    </contour>
  </outline>
</glyph>
<glyph name="section" format="1">
  <advance width="601"/>
  <unicode hex="00A7"/>
  <outline>
    <contour>
      <point x="511" y="141" type="curve" smooth="yes"/>
      <point x="511" y="164"/>
      <point x="505" y="182"/>
      <point x="494" y="196" type="curve"/>
      <point x="538" y="219"/>
      <point x="569" y="252"/>
      <point x="569" y="301" type="curve" smooth="yes"/>
      <point x="569" y="412"/>
      <point x="412" y="422"/>
      <point x="304" y="440" type="curve" smooth="yes"/>
      <point x="232" y="452"/>
      <point x="174" y="470"/>
      <point x="174" y="525" type="curve" smooth="yes"/>
      <point x="174" y="575"/>
      <point x="225" y="596"/>
      <point x="289" y="596" type="curve" smooth="yes"/>
      <point x="331" y="596"/>
      <point x="379" y="587"/>
      <point x="412" y="571" type="curve"/>
      <point x="423" y="485" type="line"/>
      <point x="493" y="492" type="line"/>
      <point x="484" y="620" type="line"/>
      <point x="423" y="648"/>
      <point x="358" y="660"/>
      <point x="287" y="660" type="curve" smooth="yes"/>
      <point x="169" y="660"/>
      <point x="87" y="609"/>
      <point x="87" y="519" type="curve" smooth="yes"/>
      <point x="87" y="485"/>
      <point x="98" y="460"/>
      <point x="117" y="441" type="curve"/>
      <point x="71" y="422"/>
      <point x="37" y="391"/>
      <point x="37" y="342" type="curve" smooth="yes"/>
      <point x="37" y="249"/>
      <point x="164" y="228"/>
      <point x="271" y="216" type="curve"/>
      <point x="361" y="203"/>
      <point x="424" y="195"/>
      <point x="424" y="135" type="curve" smooth="yes"/>
      <point x="424" y="80"/>
      <point x="371" y="54"/>
      <point x="306" y="54" type="curve" smooth="yes"/>
      <point x="261" y="54"/>
      <point x="198" y="62"/>
      <point x="159" y="81" type="curve"/>
      <point x="163" y="153" type="line"/>
      <point x="93" y="161" type="line"/>
      <point x="78" y="44" type="line"/>
      <point x="139" y="8"/>
      <point x="238" y="-10"/>
      <point x="307" y="-10" type="curve" smooth="yes"/>
      <point x="432" y="-10"/>
      <point x="511" y="48"/>
    </contour>
    <contour>
      <point x="487" y="290" type="curve" smooth="yes"/>
      <point x="487" y="268"/>
      <point x="473" y="254"/>
      <point x="448" y="243" type="curve"/>
      <point x="408" y="263"/>
      <point x="356" y="272"/>
      <point x="304" y="279" type="curve" smooth="yes"/>
      <point x="186" y="297"/>
      <point x="119" y="304"/>
      <point x="119" y="353" type="curve" smooth="yes"/>
      <point x="119" y="378"/>
      <point x="137" y="396"/>
      <point x="164" y="406" type="curve"/>
      <point x="197" y="391"/>
      <point x="236" y="382"/>
      <point x="271" y="377" type="curve" smooth="yes"/>
      <point x="360" y="363"/>
      <point x="487" y="355"/>
    </contour>
  </outline>
</glyph>
<glyph name="dieresis" format="1">
  <advance width="400"/>
  <unicode hex="00A8"/>
  <outline>
    <contour>
      <point x="60" y="548" type="line"/>
      <point x="155" y="548" type="line"/>
      <point x="155" y="647" type="line"/>
      <point x="60" y="647" type="line"/>
    </contour>
    <contour>
      <point x="236" y="548" type="line"/>
      <point x="331" y="548" type="line"/>
      <point x="331" y="647" type="line"/>
      <point x="236" y="647" type="line"/>
    </contour>
  </outline>
</glyph>
<glyph name="copyright" format="1">
  <advance width="616"/>
  <unicode hex="00A9"/>
  <outline>
    <contour>
      <point x="576" y="260" type="curve" smooth="yes"/>
      <point x="576" y="409"/>
      <point x="459" y="529"/>
      <point x="309" y="529" type="curve" smooth="yes"/>
      <point x="158" y="529"/>
      <point x="40" y="409"/>
      <point x="40" y="260" type="curve" smooth="yes"/>
      <point x="40" y="110"/>
      <point x="160" y="-7"/>
      <point x="308" y="-7" type="curve" smooth="yes"/>
      <point x="456" y="-7"/>
      <point x="576" y="111"/>
    </contour>
    <contour>
      <point x="525" y="260" type="curve" smooth="yes"/>
      <point x="525" y="139"/>
      <point x="433" y="41"/>
      <point x="308" y="41" type="curve" smooth="yes"/>
      <point x="180" y="41"/>
      <point x="91" y="138"/>
      <point x="91" y="260" type="curve" smooth="yes"/>
      <point x="91" y="381"/>
      <point x="178" y="480"/>
      <point x="309" y="480" type="curve" smooth="yes"/>
      <point x="439" y="480"/>
      <point x="525" y="381"/>
    </contour>
    <contour>
      <point x="423" y="132" type="curve"/>
      <point x="431" y="199" type="line"/>
      <point x="390" y="203" type="line"/>
      <point x="382" y="154" type="line"/>
      <point x="362" y="144"/>
      <point x="342" y="140"/>
      <point x="315" y="140" type="curve" smooth="yes"/>
      <point x="247" y="140"/>
      <point x="206" y="185"/>
      <point x="206" y="262" type="curve" smooth="yes"/>
      <point x="206" y="338"/>
      <point x="246" y="386"/>
      <point x="311" y="386" type="curve" smooth="yes"/>
      <point x="344" y="386"/>
      <point x="363" y="380"/>
      <point x="383" y="366" type="curve"/>
      <point x="392" y="319" type="line"/>
      <point x="433" y="323" type="line"/>
      <point x="424" y="390" type="line"/>
      <point x="399" y="412"/>
      <point x="361" y="427"/>
      <point x="306" y="427" type="curve" smooth="yes"/>
      <point x="215" y="427"/>
      <point x="152" y="354"/>
      <point x="152" y="261" type="curve" smooth="yes"/>
      <point x="152" y="160"/>
      <point x="219" y="99"/>
      <point x="309" y="99" type="curve" smooth="yes"/>
      <point x="356" y="99"/>
      <point x="398" y="110"/>
    </contour>
  </outline>
</glyph>
<glyph name="ordfeminine" format="1">
  <advance width="376"/>
  <unicode hex="00AA"/>
  <outline>
    <contour>
      <point x="176" y="656" type="curve" smooth="yes"/>
      <point x="227" y="656"/>
      <point x="233" y="620"/>
      <point x="233" y="586" type="curve" smooth="yes"/>
      <point x="233" y="567" type="line"/>
      <point x="217" y="568"/>
      <point x="200" y="569"/>
      <point x="180" y="569" type="curve" smooth="yes"/>
      <point x="114" y="569"/>
      <point x="39" y="554"/>
      <point x="39" y="481" type="curve" smooth="yes"/>
      <point x="39" y="420"/>
      <point x="91" y="398"/>
      <point x="133" y="398" type="curve" smooth="yes"/>
      <point x="182" y="398"/>
      <point x="215" y="427"/>
      <point x="233" y="458" type="curve"/>
      <point x="235" y="421"/>
      <point x="256" y="398"/>
      <point x="294" y="398" type="curve" smooth="yes"/>
      <point x="311" y="398"/>
      <point x="328" y="403"/>
      <point x="341" y="410" type="curve"/>
      <point x="341" y="446" type="line"/>
      <point x="336" y="444"/>
      <point x="330" y="443"/>
      <point x="325" y="443" type="curve" smooth="yes"/>
      <point x="310" y="443"/>
      <point x="303" y="451"/>
      <point x="303" y="470" type="curve" smooth="yes"/>
      <point x="303" y="604" type="line" smooth="yes"/>
      <point x="303" y="666"/>
      <point x="263" y="702"/>
      <point x="184" y="702" type="curve" smooth="yes"/>
      <point x="142" y="702"/>
      <point x="103" y="692"/>
      <point x="69" y="671" type="curve"/>
      <point x="58" y="599" type="line"/>
      <point x="111" y="593" type="line"/>
      <point x="123" y="643" type="line"/>
      <point x="140" y="651"/>
      <point x="157" y="656"/>
    </contour>
    <contour>
      <point x="233" y="518" type="line"/>
      <point x="230" y="472"/>
      <point x="196" y="446"/>
      <point x="160" y="446" type="curve" smooth="yes"/>
      <point x="136" y="446"/>
      <point x="114" y="458"/>
      <point x="114" y="489" type="curve" smooth="yes"/>
      <point x="114" y="528"/>
      <point x="148" y="537"/>
      <point x="183" y="537" type="curve" smooth="yes"/>
      <point x="201" y="537"/>
      <point x="218" y="535"/>
      <point x="233" y="533" type="curve"/>
    </contour>
  </outline>
</glyph>
<glyph name="guillemotleft" format="1">
  <advance width="457"/>
  <unicode hex="00AB"/>
  <outline>
    <contour>
      <point x="248" y="25" type="line"/>
      <point x="123" y="271" type="line"/>
      <point x="248" y="511" type="line"/>
      <point x="174" y="511" type="line"/>
      <point x="36" y="271" type="line"/>
      <point x="174" y="25" type="line"/>
    </contour>
    <contour>
      <point x="414" y="25" type="line"/>
      <point x="289" y="271" type="line"/>
      <point x="414" y="511" type="line"/>
      <point x="340" y="511" type="line"/>
      <point x="202" y="271" type="line"/>
      <point x="340" y="25" type="line"/>
    </contour>
  </outline>
</glyph>
<glyph name="logicalnot" format="1">
  <advance width="595"/>
  <unicode hex="00AC"/>
  <outline>
    <contour>
      <point x="474" y="92" type="line"/>
      <point x="537" y="92" type="line"/>
      <point x="537" y="313" type="line"/>
      <point x="56" y="313" type="line"/>
      <point x="56" y="250" type="line"/>
      <point x="474" y="250" type="line"/>
    </contour>
  </outline>
</glyph>
<glyph name="registered" format="1">
  <advance width="582"/>
  <unicode hex="00AE"/>
  <outline>
    <contour>
      <point x="291" y="159" type="curve" smooth="yes"/>
      <point x="430" y="159"/>
      <point x="542" y="270"/>
      <point x="542" y="409" type="curve" smooth="yes"/>
      <point x="542" y="548"/>
      <point x="432" y="660"/>
      <point x="292" y="660" type="curve" smooth="yes"/>
      <point x="152" y="660"/>
      <point x="41" y="548"/>
      <point x="41" y="409" type="curve" smooth="yes"/>
      <point x="41" y="269"/>
      <point x="153" y="159"/>
    </contour>
    <contour>
      <point x="292" y="207" type="curve" smooth="yes"/>
      <point x="174" y="207"/>
      <point x="92" y="297"/>
      <point x="92" y="409" type="curve" smooth="yes"/>
      <point x="92" y="520"/>
      <point x="173" y="612"/>
      <point x="292" y="612" type="curve" smooth="yes"/>
      <point x="411" y="612"/>
      <point x="491" y="520"/>
      <point x="491" y="409" type="curve" smooth="yes"/>
      <point x="491" y="298"/>
      <point x="409" y="207"/>
    </contour>
    <contour>
      <point x="174" y="316" type="line"/>
      <point x="207" y="316" type="line"/>
      <point x="207" y="518" type="line"/>
      <point x="174" y="518" type="line"/>
      <point x="174" y="554" type="line"/>
      <point x="301" y="554" type="line" smooth="yes"/>
      <point x="371" y="554"/>
      <point x="405" y="523"/>
      <point x="405" y="475" type="curve" smooth="yes"/>
      <point x="405" y="438"/>
      <point x="382" y="410"/>
      <point x="346" y="399" type="curve"/>
      <point x="392" y="316" type="line"/>
      <point x="426" y="316" type="line"/>
      <point x="426" y="279" type="line"/>
      <point x="360" y="279" type="line"/>
      <point x="302" y="390" type="line"/>
      <point x="253" y="390" type="line"/>
      <point x="253" y="316" type="line"/>
      <point x="288" y="316" type="line"/>
      <point x="288" y="279" type="line"/>
      <point x="174" y="279" type="line"/>
    </contour>
    <contour>
      <point x="292" y="424" type="line" smooth="yes"/>
      <point x="339" y="424"/>
      <point x="355" y="442"/>
      <point x="355" y="473" type="curve" smooth="yes"/>
      <point x="355" y="504"/>
      <point x="338" y="518"/>
      <point x="293" y="518" type="curve" smooth="yes"/>
      <point x="253" y="518" type="line"/>
      <point x="253" y="424" type="line"/>
    </contour>
  </outline>
</glyph>
<glyph name="macron" format="1">
  <advance width="335"/>
  <unicode hex="00AF"/>
  <outline>
    <contour>
      <point x="293" y="556" type="line"/>
      <point x="293" y="625" type="line"/>
      <point x="42" y="625" type="line"/>
      <point x="42" y="556" type="line"/>
    </contour>
  </outline>
</glyph>
<glyph name="twosuperior" format="1">
  <advance width="353"/>
  <unicode hex="00B2"/>
  <outline>
    <contour>
      <point x="94" y="663" type="line"/>
      <point x="106" y="716" type="line"/>
      <point x="123" y="727"/>
      <point x="140" y="731"/>
      <point x="160" y="731" type="curve" smooth="yes"/>
      <point x="204" y="731"/>
      <point x="224" y="709"/>
      <point x="224" y="680" type="curve" smooth="yes"/>
      <point x="224" y="612"/>
      <point x="114" y="532"/>
      <point x="31" y="464" type="curve"/>
      <point x="37" y="415" type="line"/>
      <point x="319" y="415" type="line"/>
      <point x="329" y="517" type="line"/>
      <point x="272" y="523" type="line"/>
      <point x="261" y="469" type="line"/>
      <point x="120" y="469" type="line"/>
      <point x="171" y="509"/>
      <point x="302" y="596"/>
      <point x="302" y="688" type="curve" smooth="yes"/>
      <point x="302" y="736"/>
      <point x="266" y="785"/>
      <point x="175" y="785" type="curve" smooth="yes"/>
      <point x="131" y="785"/>
      <point x="82" y="773"/>
      <point x="51" y="751" type="curve"/>
      <point x="39" y="668" type="line"/>
    </contour>
  </outline>
</glyph>
<glyph name="threesuperior" format="1">
  <advance width="345"/>
  <unicode hex="00B3"/>
  <outline>
    <contour>
      <point x="99" y="669" type="line"/>
      <point x="109" y="716" type="line"/>
      <point x="127" y="726"/>
      <point x="143" y="730"/>
      <point x="164" y="730" type="curve"/>
      <point x="200" y="730"/>
      <point x="220" y="713"/>
      <point x="220" y="683" type="curve" smooth="yes"/>
      <point x="220" y="645"/>
      <point x="190" y="628"/>
      <point x="137" y="625" type="curve"/>
      <point x="137" y="583" type="line"/>
      <point x="205" y="581"/>
      <point x="234" y="561"/>
      <point x="234" y="525" type="curve" smooth="yes"/>
      <point x="234" y="490"/>
      <point x="208" y="463"/>
      <point x="162" y="463" type="curve" smooth="yes"/>
      <point x="116" y="463"/>
      <point x="94" y="490"/>
      <point x="86" y="521" type="curve"/>
      <point x="35" y="506" type="line"/>
      <point x="45" y="442"/>
      <point x="94" y="408"/>
      <point x="163" y="408" type="curve" smooth="yes"/>
      <point x="245" y="408"/>
      <point x="311" y="445"/>
      <point x="311" y="516" type="curve" smooth="yes"/>
      <point x="311" y="557"/>
      <point x="289" y="596"/>
      <point x="226" y="607" type="curve"/>
      <point x="226" y="609" type="line"/>
      <point x="276" y="626"/>
      <point x="296" y="658"/>
      <point x="296" y="694" type="curve" smooth="yes"/>
      <point x="296" y="747"/>
      <point x="251" y="784"/>
      <point x="178" y="784" type="curve" smooth="yes"/>
      <point x="139" y="784"/>
      <point x="86" y="773"/>
      <point x="55" y="751" type="curve"/>
      <point x="44" y="674" type="line"/>
    </contour>
  </outline>
</glyph>
<glyph name="acute" format="1">
  <advance width="440"/>
  <unicode hex="00B4"/>
  <outline>
    <contour>
      <point x="376" y="617" type="line"/>
      <point x="328" y="688" type="line"/>
      <point x="172" y="553" type="line"/>
      <point x="197" y="516" type="line"/>
    </contour>
  </outline>
</glyph>
<glyph name="paragraph" format="1">
  <advance width="629"/>
  <unicode hex="00B6"/>
  <outline>
    <contour>
      <point x="590" y="650" type="line"/>
      <point x="590" y="574" type="line"/>
      <point x="518" y="574" type="line"/>
      <point x="518" y="0" type="line"/>
      <point x="435" y="0" type="line"/>
      <point x="435" y="574" type="line"/>
      <point x="379" y="574" type="line"/>
      <point x="379" y="0" type="line"/>
      <point x="296" y="0" type="line"/>
      <point x="296" y="310" type="line"/>
      <point x="242" y="310" type="line" smooth="yes"/>
      <point x="122" y="310"/>
      <point x="28" y="357"/>
      <point x="28" y="484" type="curve" smooth="yes"/>
      <point x="28" y="575"/>
      <point x="102" y="650"/>
      <point x="248" y="650" type="curve" smooth="yes"/>
    </contour>
  </outline>
</glyph>
<glyph name="periodcentered" format="1">
  <advance width="222"/>
  <unicode hex="00B7"/>
  <outline>
    <contour>
      <point x="53" y="254" type="line"/>
      <point x="166" y="254" type="line"/>
      <point x="166" y="374" type="line"/>
      <point x="53" y="374" type="line"/>
    </contour>
  </outline>
</glyph>
<glyph name="onesuperior" format="1">
  <advance width="266"/>
  <unicode hex="00B9"/>
  <outline>
    <contour>
      <point x="33" y="469" type="line"/>
      <point x="108" y="469" type="line"/>
      <point x="108" y="725" type="line"/>
      <point x="33" y="725" type="line"/>
      <point x="33" y="779" type="line"/>
      <point x="178" y="779" type="line"/>
      <point x="178" y="469" type="line"/>
      <point x="248" y="469" type="line"/>
      <point x="248" y="415" type="line"/>
      <point x="33" y="415" type="line"/>
    </contour>
  </outline>
</glyph>
<glyph name="ordmasculine" format="1">
  <advance width="377"/>
  <unicode hex="00BA"/>
  <outline>
    <contour>
      <point x="32" y="547" type="curve" smooth="yes"/>
      <point x="32" y="632"/>
      <point x="85" y="702"/>
      <point x="189" y="702" type="curve" smooth="yes"/>
      <point x="293" y="702"/>
      <point x="344" y="632"/>
      <point x="344" y="551" type="curve" smooth="yes"/>
      <point x="344" y="460"/>
      <point x="279" y="398"/>
      <point x="185" y="398" type="curve" smooth="yes"/>
      <point x="93" y="398"/>
      <point x="32" y="457"/>
    </contour>
    <contour>
      <point x="108" y="551" type="curve" smooth="yes"/>
      <point x="108" y="495"/>
      <point x="134" y="453"/>
      <point x="187" y="453" type="curve" smooth="yes"/>
      <point x="238" y="453"/>
      <point x="268" y="493"/>
      <point x="268" y="552" type="curve" smooth="yes"/>
      <point x="268" y="613"/>
      <point x="237" y="647"/>
      <point x="188" y="647" type="curve" smooth="yes"/>
      <point x="137" y="647"/>
      <point x="108" y="610"/>
    </contour>
    <contour>
      <point x="164" y="338" type="move" name="top"/>
    </contour>
  </outline>
</glyph>
<glyph name="guillemotright" format="1">
  <advance width="457"/>
  <unicode hex="00BB"/>
  <outline>
    <contour>
      <point x="283" y="25" type="line"/>
      <point x="421" y="271" type="line"/>
      <point x="283" y="511" type="line"/>
      <point x="209" y="511" type="line"/>
      <point x="334" y="271" type="line"/>
      <point x="209" y="25" type="line"/>
    </contour>
    <contour>
      <point x="117" y="25" type="line"/>
      <point x="255" y="271" type="line"/>
      <point x="117" y="511" type="line"/>
      <point x="43" y="511" type="line"/>
      <point x="168" y="271" type="line"/>
      <point x="43" y="25" type="line"/>
    </contour>
  </outline>
</glyph>
<glyph name="onehalf" format="1">
  <advance width="758"/>
  <unicode hex="00BD"/>
  <outline>
    <contour>
      <point x="501" y="248" type="line"/>
      <point x="513" y="301" type="line"/>
      <point x="530" y="312"/>
      <point x="547" y="316"/>
      <point x="567" y="316" type="curve" smooth="yes"/>
      <point x="611" y="316"/>
      <point x="631" y="294"/>
      <point x="631" y="265" type="curve" smooth="yes"/>
      <point x="631" y="197"/>
      <point x="521" y="117"/>
      <point x="438" y="49" type="curve"/>
      <point x="444" y="0" type="line"/>
      <point x="726" y="0" type="line"/>
      <point x="736" y="102" type="line"/>
      <point x="679" y="108" type="line"/>
      <point x="668" y="54" type="line"/>
      <point x="527" y="54" type="line"/>
      <point x="578" y="94"/>
      <point x="709" y="181"/>
      <point x="709" y="273" type="curve" smooth="yes"/>
      <point x="709" y="321"/>
      <point x="673" y="370"/>
      <point x="582" y="370" type="curve" smooth="yes"/>
      <point x="538" y="370"/>
      <point x="489" y="358"/>
      <point x="458" y="336" type="curve"/>
      <point x="446" y="253" type="line"/>
    </contour>
    <contour>
      <point x="570" y="650" type="line"/>
      <point x="380" y="325" type="line"/>
      <point x="198" y="0" type="line"/>
      <point x="135" y="0" type="line"/>
      <point x="332" y="337" type="line"/>
      <point x="507" y="650" type="line"/>
    </contour>
    <contour>
      <point x="39" y="340" type="line"/>
      <point x="114" y="340" type="line"/>
      <point x="114" y="596" type="line"/>
      <point x="39" y="596" type="line"/>
      <point x="39" y="650" type="line"/>
      <point x="184" y="650" type="line"/>
      <point x="184" y="340" type="line"/>
      <point x="254" y="340" type="line"/>
      <point x="254" y="286" type="line"/>
      <point x="39" y="286" type="line"/>
    </contour>
  </outline>
</glyph>
<glyph name="questiondown" format="1">
  <advance width="450"/>
  <unicode hex="00BF"/>
  <outline>
    <contour>
      <point x="339" y="-11" type="line"/>
      <point x="325" y="-100" type="line"/>
      <point x="298" y="-121"/>
      <point x="262" y="-132"/>
      <point x="225" y="-132" type="curve" smooth="yes"/>
      <point x="160" y="-132"/>
      <point x="124" y="-103"/>
      <point x="124" y="-60" type="curve" smooth="yes"/>
      <point x="124" y="43"/>
      <point x="321" y="51"/>
      <point x="321" y="173" type="curve" smooth="yes"/>
      <point x="321" y="231"/>
      <point x="277" y="268"/>
      <point x="177" y="260" type="curve"/>
      <point x="177" y="202" type="line"/>
      <point x="211" y="202"/>
      <point x="227" y="188"/>
      <point x="227" y="165" type="curve" smooth="yes"/>
      <point x="227" y="85"/>
      <point x="26" y="62"/>
      <point x="26" y="-73" type="curve" smooth="yes"/>
      <point x="26" y="-159"/>
      <point x="109" y="-212"/>
      <point x="216" y="-212" type="curve" smooth="yes"/>
      <point x="278" y="-212"/>
      <point x="348" y="-186"/>
      <point x="398" y="-147" type="curve"/>
      <point x="410" y="-17" type="line"/>
    </contour>
    <contour>
      <point x="292" y="448" type="line"/>
      <point x="184" y="448" type="line"/>
      <point x="184" y="337" type="line"/>
      <point x="292" y="337" type="line"/>
    </contour>
  </outline>
</glyph>
<glyph name="Adieresis" format="1">
  <advance width="660"/>
  <unicode hex="00C4"/>
  <outline>
    <contour>
      <point x="664" y="0" type="line"/>
      <point x="664" y="79" type="line"/>
      <point x="600" y="79" type="line"/>
      <point x="366" y="650" type="line"/>
      <point x="170" y="650" type="line"/>
      <point x="170" y="571" type="line"/>
      <point x="270" y="571" type="line"/>
      <point x="65" y="79" type="line"/>
      <point x="5" y="79" type="line"/>
      <point x="5" y="0" type="line"/>
      <point x="242" y="0" type="line"/>
      <point x="242" y="79" type="line"/>
      <point x="157" y="79" type="line"/>
      <point x="200" y="187" type="line"/>
      <point x="462" y="187" type="line"/>
      <point x="502" y="79" type="line"/>
      <point x="425" y="79" type="line"/>
      <point x="425" y="0" type="line"/>
    </contour>
    <contour>
      <point x="436" y="255" type="line"/>
      <point x="227" y="255" type="line"/>
      <point x="331" y="519" type="line"/>
      <point x="337" y="519" type="line"/>
    </contour>
    <contour>
      <point x="194" y="715" type="line"/>
      <point x="289" y="715" type="line"/>
      <point x="289" y="813" type="line"/>
      <point x="194" y="813" type="line"/>
    </contour>
    <contour>
      <point x="369" y="715" type="line"/>
      <point x="464" y="715" type="line"/>
      <point x="464" y="813" type="line"/>
      <point x="369" y="813" type="line"/>
    </contour>
  </outline>
</glyph>
<glyph name="Aring" format="1">
  <advance width="660"/>
  <unicode hex="00C5"/>
  <outline>
    <contour>
      <point x="664" y="0" type="line"/>
      <point x="664" y="79" type="line"/>
      <point x="600" y="79" type="line"/>
      <point x="366" y="650" type="line"/>
      <point x="170" y="650" type="line"/>
      <point x="170" y="571" type="line"/>
      <point x="270" y="571" type="line"/>
      <point x="65" y="79" type="line"/>
      <point x="5" y="79" type="line"/>
      <point x="5" y="0" type="line"/>
      <point x="242" y="0" type="line"/>
      <point x="242" y="79" type="line"/>
      <point x="157" y="79" type="line"/>
      <point x="200" y="187" type="line"/>
      <point x="462" y="187" type="line"/>
      <point x="502" y="79" type="line"/>
      <point x="425" y="79" type="line"/>
      <point x="425" y="0" type="line"/>
    </contour>
    <contour>
      <point x="436" y="255" type="line"/>
      <point x="227" y="255" type="line"/>
      <point x="331" y="519" type="line"/>
      <point x="337" y="519" type="line"/>
    </contour>
    <contour>
      <point x="429" y="784" type="curve" smooth="yes"/>
      <point x="429" y="836"/>
      <point x="399" y="874"/>
      <point x="329" y="874" type="curve" smooth="yes"/>
      <point x="264" y="874"/>
      <point x="228" y="837"/>
      <point x="228" y="782" type="curve" smooth="yes"/>
      <point x="228" y="725"/>
      <point x="261" y="690"/>
      <point x="328" y="690" type="curve" smooth="yes"/>
      <point x="396" y="690"/>
      <point x="429" y="729"/>
    </contour>
    <contour>
      <point x="371" y="784" type="curve" smooth="yes"/>
      <point x="371" y="756"/>
      <point x="360" y="736"/>
      <point x="328" y="736" type="curve" smooth="yes"/>
      <point x="297" y="736"/>
      <point x="286" y="753"/>
      <point x="286" y="782" type="curve" smooth="yes"/>
      <point x="286" y="808"/>
      <point x="298" y="828"/>
      <point x="328" y="828" type="curve" smooth="yes"/>
      <point x="362" y="828"/>
      <point x="371" y="807"/>
    </contour>
  </outline>
</glyph>
<glyph name="Icircumflex" format="1">
  <advance width="331"/>
  <unicode hex="00CE"/>
  <outline>
    <contour>
      <point x="289" y="0" type="line"/>
      <point x="289" y="79" type="line"/>
      <point x="211" y="79" type="line"/>
      <point x="211" y="571" type="line"/>
      <point x="289" y="571" type="line"/>
      <point x="289" y="650" type="line"/>
      <point x="41" y="650" type="line"/>
      <point x="41" y="571" type="line"/>
      <point x="120" y="571" type="line"/>
      <point x="120" y="79" type="line"/>
      <point x="41" y="79" type="line"/>
      <point x="41" y="0" type="line"/>
    </contour>
    <contour>
      <point x="310" y="737" type="line"/>
      <point x="181" y="832" type="line"/>
      <point x="153" y="832" type="line"/>
      <point x="23" y="735" type="line"/>
      <point x="46" y="696" type="line"/>
      <point x="163" y="758" type="line"/>
      <point x="288" y="697" type="line"/>
    </contour>
  </outline>
</glyph>
<glyph name="Idieresis" format="1">
  <advance width="331"/>
  <unicode hex="00CF"/>
  <outline>
    <contour>
      <point x="289" y="0" type="line"/>
      <point x="289" y="79" type="line"/>
      <point x="211" y="79" type="line"/>
      <point x="211" y="571" type="line"/>
      <point x="289" y="571" type="line"/>
      <point x="289" y="650" type="line"/>
      <point x="41" y="650" type="line"/>
      <point x="41" y="571" type="line"/>
      <point x="120" y="571" type="line"/>
      <point x="120" y="79" type="line"/>
      <point x="41" y="79" type="line"/>
      <point x="41" y="0" type="line"/>
    </contour>
    <contour>
      <point x="34" y="715" type="line"/>
      <point x="129" y="715" type="line"/>
      <point x="129" y="813" type="line"/>
      <point x="34" y="813" type="line"/>
    </contour>
    <contour>
      <point x="209" y="715" type="line"/>
      <point x="304" y="715" type="line"/>
      <point x="304" y="813" type="line"/>
      <point x="209" y="813" type="line"/>
    </contour>
  </outline>
</glyph>
<glyph name="Ocircumflex" format="1">
  <advance width="723"/>
  <unicode hex="00D4"/>
  <outline>
    <contour>
      <point x="689" y="325" type="curve" smooth="yes"/>
      <point x="689" y="510"/>
      <point x="561" y="660"/>
      <point x="362" y="660" type="curve" smooth="yes"/>
      <point x="166" y="660"/>
      <point x="35" y="512"/>
      <point x="35" y="325" type="curve" smooth="yes"/>
      <point x="35" y="142"/>
      <point x="159" y="-10"/>
      <point x="360" y="-10" type="curve" smooth="yes"/>
      <point x="560" y="-10"/>
      <point x="689" y="141"/>
    </contour>
    <contour>
      <point x="591" y="323" type="curve" smooth="yes"/>
      <point x="591" y="179"/>
      <point x="510" y="71"/>
      <point x="364" y="71" type="curve" smooth="yes"/>
      <point x="212" y="71"/>
      <point x="133" y="188"/>
      <point x="133" y="326" type="curve" smooth="yes"/>
      <point x="133" y="468"/>
      <point x="215" y="579"/>
      <point x="362" y="579" type="curve" smooth="yes"/>
      <point x="504" y="579"/>
      <point x="591" y="474"/>
    </contour>
    <contour>
      <point x="508" y="737" type="line"/>
      <point x="379" y="832" type="line"/>
      <point x="351" y="832" type="line"/>
      <point x="221" y="735" type="line"/>
      <point x="244" y="696" type="line"/>
      <point x="361" y="758" type="line"/>
      <point x="486" y="697" type="line"/>
    </contour>
  </outline>
</glyph>
<glyph name="Odieresis" format="1">
  <advance width="723"/>
  <unicode hex="00D6"/>
  <outline>
    <contour>
      <point x="231" y="715" type="line"/>
      <point x="326" y="715" type="line"/>
      <point x="326" y="813" type="line"/>
      <point x="231" y="813" type="line"/>
    </contour>
    <contour>
      <point x="406" y="715" type="line"/>
      <point x="501" y="715" type="line"/>
      <point x="501" y="813" type="line"/>
      <point x="406" y="813" type="line"/>
    </contour>
    <contour>
      <point x="689" y="325" type="curve" smooth="yes"/>
      <point x="689" y="510"/>
      <point x="561" y="660"/>
      <point x="362" y="660" type="curve" smooth="yes"/>
      <point x="166" y="660"/>
      <point x="35" y="512"/>
      <point x="35" y="325" type="curve" smooth="yes"/>
      <point x="35" y="142"/>
      <point x="159" y="-10"/>
      <point x="360" y="-10" type="curve" smooth="yes"/>
      <point x="560" y="-10"/>
      <point x="689" y="141"/>
    </contour>
    <contour>
      <point x="591" y="323" type="curve" smooth="yes"/>
      <point x="591" y="179"/>
      <point x="510" y="71"/>
      <point x="364" y="71" type="curve" smooth="yes"/>
      <point x="212" y="71"/>
      <point x="133" y="188"/>
      <point x="133" y="326" type="curve" smooth="yes"/>
      <point x="133" y="468"/>
      <point x="215" y="579"/>
      <point x="362" y="579" type="curve" smooth="yes"/>
      <point x="504" y="579"/>
      <point x="591" y="474"/>
    </contour>
  </outline>
</glyph>
<glyph name="multiply" format="1">
  <advance width="383"/>
  <unicode hex="00D7"/>
  <outline>
    <contour>
      <point x="91" y="128" type="line"/>
      <point x="192" y="230" type="line"/>
      <point x="292" y="130" type="line"/>
      <point x="337" y="175" type="line"/>
      <point x="237" y="275" type="line"/>
      <point x="336" y="374" type="line"/>
      <point x="291" y="418" type="line"/>
      <point x="192" y="319" type="line"/>
      <point x="92" y="420" type="line"/>
      <point x="47" y="376" type="line"/>
      <point x="148" y="274" type="line"/>
      <point x="46" y="172" type="line"/>
    </contour>
  </outline>
</glyph>
<glyph name="Oslash" format="1">
  <advance width="729"/>
  <unicode hex="00D8"/>
  <outline>
    <contour>
      <point x="692" y="325" type="curve" smooth="yes"/>
      <point x="692" y="414"/>
      <point x="662" y="494"/>
      <point x="609" y="554" type="curve"/>
      <point x="693" y="650" type="line"/>
      <point x="600" y="650" type="line"/>
      <point x="558" y="601" type="line"/>
      <point x="506" y="638"/>
      <point x="440" y="660"/>
      <point x="365" y="660" type="curve" smooth="yes"/>
      <point x="169" y="660"/>
      <point x="38" y="512"/>
      <point x="38" y="325" type="curve" smooth="yes"/>
      <point x="38" y="236"/>
      <point x="67" y="155"/>
      <point x="120" y="94" type="curve"/>
      <point x="38" y="0" type="line"/>
      <point x="123" y="0" type="line"/>
      <point x="167" y="51" type="line"/>
      <point x="219" y="12"/>
      <point x="285" y="-10"/>
      <point x="363" y="-10" type="curve" smooth="yes"/>
      <point x="563" y="-10"/>
      <point x="692" y="141"/>
    </contour>
    <contour>
      <point x="594" y="323" type="curve" smooth="yes"/>
      <point x="594" y="179"/>
      <point x="513" y="71"/>
      <point x="367" y="71" type="curve" smooth="yes"/>
      <point x="309" y="71"/>
      <point x="262" y="88"/>
      <point x="225" y="117" type="curve"/>
      <point x="549" y="486" type="line"/>
      <point x="578" y="443"/>
      <point x="594" y="387"/>
    </contour>
    <contour>
      <point x="136" y="326" type="curve" smooth="yes"/>
      <point x="136" y="468"/>
      <point x="218" y="579"/>
      <point x="365" y="579" type="curve" smooth="yes"/>
      <point x="419" y="579"/>
      <point x="465" y="564"/>
      <point x="502" y="536" type="curve"/>
      <point x="181" y="165" type="line"/>
      <point x="151" y="209"/>
      <point x="136" y="265"/>
    </contour>
  </outline>
</glyph>
<glyph name="Ugrave" format="1">
  <advance width="718"/>
  <unicode hex="00D9"/>
  <outline>
    <contour>
      <point x="455" y="742" type="line"/>
      <point x="261" y="819" type="line"/>
      <point x="241" y="737" type="line"/>
      <point x="443" y="699" type="line"/>
    </contour>
    <contour>
      <point x="684" y="571" type="line"/>
      <point x="684" y="650" type="line"/>
      <point x="449" y="650" type="line"/>
      <point x="449" y="571" type="line"/>
      <point x="536" y="571" type="line"/>
      <point x="536" y="267" type="line" smooth="yes"/>
      <point x="536" y="141"/>
      <point x="477" y="71"/>
      <point x="361" y="71" type="curve" smooth="yes"/>
      <point x="243" y="71"/>
      <point x="189" y="143"/>
      <point x="189" y="259" type="curve" smooth="yes"/>
      <point x="189" y="571" type="line"/>
      <point x="275" y="571" type="line"/>
      <point x="275" y="650" type="line"/>
      <point x="34" y="650" type="line"/>
      <point x="34" y="571" type="line"/>
      <point x="98" y="571" type="line"/>
      <point x="98" y="256" type="line" smooth="yes"/>
      <point x="98" y="116"/>
      <point x="162" y="-10"/>
      <point x="357" y="-10" type="curve" smooth="yes"/>
      <point x="559" y="-10"/>
      <point x="622" y="129"/>
      <point x="622" y="267" type="curve" smooth="yes"/>
      <point x="622" y="571" type="line"/>
    </contour>
  </outline>
</glyph>
<glyph name="germandbls" format="1">
  <advance width="661"/>
  <unicode hex="00DF"/>
  <outline>
    <contour>
      <point x="647" y="130" type="curve" smooth="yes"/>
      <point x="647" y="308"/>
      <point x="375" y="224"/>
      <point x="375" y="328" type="curve" smooth="yes"/>
      <point x="375" y="424"/>
      <point x="581" y="412"/>
      <point x="581" y="549" type="curve" smooth="yes"/>
      <point x="581" y="632"/>
      <point x="506" y="698"/>
      <point x="354" y="698" type="curve" smooth="yes"/>
      <point x="203" y="698"/>
      <point x="99" y="628"/>
      <point x="99" y="491" type="curve" smooth="yes"/>
      <point x="99" y="447" type="line"/>
      <point x="37" y="447" type="line"/>
      <point x="37" y="378" type="line"/>
      <point x="99" y="378" type="line"/>
      <point x="99" y="69" type="line"/>
      <point x="26" y="69" type="line"/>
      <point x="26" y="0" type="line"/>
      <point x="186" y="0" type="line"/>
      <point x="186" y="484" type="line" smooth="yes"/>
      <point x="186" y="568"/>
      <point x="227" y="628"/>
      <point x="350" y="628" type="curve" smooth="yes"/>
      <point x="441" y="628"/>
      <point x="492" y="597"/>
      <point x="492" y="544" type="curve" smooth="yes"/>
      <point x="492" y="434"/>
      <point x="281" y="463"/>
      <point x="281" y="319" type="curve" smooth="yes"/>
      <point x="281" y="154"/>
      <point x="558" y="236"/>
      <point x="558" y="125" type="curve" smooth="yes"/>
      <point x="558" y="80"/>
      <point x="510" y="60"/>
      <point x="449" y="60" type="curve" smooth="yes"/>
      <point x="418" y="60"/>
      <point x="381" y="64"/>
      <point x="353" y="80" type="curve"/>
      <point x="355" y="135" type="line"/>
      <point x="286" y="142" type="line"/>
      <point x="272" y="34" type="line"/>
      <point x="316" y="5"/>
      <point x="390" y="-10"/>
      <point x="455" y="-10" type="curve" smooth="yes"/>
      <point x="566" y="-10"/>
      <point x="647" y="40"/>
    </contour>
  </outline>
</glyph>
<glyph name="aring" format="1">
  <advance width="490"/>
  <unicode hex="00E5"/>
  <outline>
    <contour>
      <point x="78" y="413" type="curve"/>
      <point x="60" y="306" type="line"/>
      <point x="131" y="298" type="line"/>
      <point x="148" y="371" type="line"/>
      <point x="173" y="384"/>
      <point x="200" y="388"/>
      <point x="229" y="388" type="curve" smooth="yes"/>
      <point x="307" y="388"/>
      <point x="322" y="340"/>
      <point x="322" y="282" type="curve" smooth="yes"/>
      <point x="322" y="249" type="line"/>
      <point x="299" y="252"/>
      <point x="272" y="253"/>
      <point x="245" y="253" type="curve" smooth="yes"/>
      <point x="144" y="253"/>
      <point x="36" y="228"/>
      <point x="36" y="116" type="curve" smooth="yes"/>
      <point x="36" y="22"/>
      <point x="112" y="-10"/>
      <point x="173" y="-10" type="curve" smooth="yes"/>
      <point x="245" y="-10"/>
      <point x="295" y="34"/>
      <point x="322" y="81" type="curve"/>
      <point x="322" y="80" type="line"/>
      <point x="325" y="25"/>
      <point x="354" y="-10"/>
      <point x="408" y="-10" type="curve" smooth="yes"/>
      <point x="431" y="-10"/>
      <point x="455" y="-4"/>
      <point x="473" y="7" type="curve"/>
      <point x="472" y="59" type="line"/>
      <point x="464" y="56"/>
      <point x="453" y="54"/>
      <point x="445" y="54" type="curve" smooth="yes"/>
      <point x="421" y="54"/>
      <point x="410" y="67"/>
      <point x="410" y="98" type="curve" smooth="yes"/>
      <point x="410" y="305" type="line" smooth="yes"/>
      <point x="410" y="407"/>
      <point x="346" y="456"/>
      <point x="245" y="456" type="curve" smooth="yes"/>
      <point x="182" y="456"/>
      <point x="133" y="445"/>
    </contour>
    <contour>
      <point x="342" y="607" type="curve" smooth="yes"/>
      <point x="342" y="660"/>
      <point x="312" y="698"/>
      <point x="242" y="698" type="curve" smooth="yes"/>
      <point x="177" y="698"/>
      <point x="141" y="660"/>
      <point x="141" y="606" type="curve" smooth="yes"/>
      <point x="141" y="549"/>
      <point x="174" y="514"/>
      <point x="241" y="514" type="curve" smooth="yes"/>
      <point x="309" y="514"/>
      <point x="342" y="553"/>
    </contour>
    <contour>
      <point x="322" y="172" type="line"/>
      <point x="317" y="100"/>
      <point x="258" y="58"/>
      <point x="201" y="58" type="curve" smooth="yes"/>
      <point x="162" y="58"/>
      <point x="127" y="78"/>
      <point x="127" y="126" type="curve" smooth="yes"/>
      <point x="127" y="189"/>
      <point x="184" y="203"/>
      <point x="245" y="203" type="curve" smooth="yes"/>
      <point x="272" y="203"/>
      <point x="298" y="200"/>
      <point x="322" y="198" type="curve"/>
    </contour>
    <contour>
      <point x="284" y="609" type="curve" smooth="yes"/>
      <point x="284" y="580"/>
      <point x="273" y="560"/>
      <point x="241" y="560" type="curve" smooth="yes"/>
      <point x="210" y="560"/>
      <point x="199" y="577"/>
      <point x="199" y="606" type="curve" smooth="yes"/>
      <point x="199" y="632"/>
      <point x="211" y="652"/>
      <point x="241" y="652" type="curve" smooth="yes"/>
      <point x="275" y="652"/>
      <point x="284" y="631"/>
    </contour>
  </outline>
</glyph>
<glyph name="ae" format="1">
  <advance width="763"/>
  <unicode hex="00E6"/>
  <outline>
    <contour>
      <point x="732" y="132" type="curve"/>
      <point x="659" y="147" type="line"/>
      <point x="648" y="100"/>
      <point x="615" y="65"/>
      <point x="546" y="65" type="curve" smooth="yes"/>
      <point x="464" y="65"/>
      <point x="421" y="113"/>
      <point x="416" y="204" type="curve"/>
      <point x="722" y="204" type="line"/>
      <point x="726" y="223"/>
      <point x="728" y="242"/>
      <point x="728" y="260" type="curve" smooth="yes"/>
      <point x="728" y="368"/>
      <point x="656" y="456"/>
      <point x="533" y="456" type="curve" smooth="yes"/>
      <point x="470" y="456"/>
      <point x="420" y="432"/>
      <point x="384" y="392" type="curve"/>
      <point x="359" y="433"/>
      <point x="312" y="456"/>
      <point x="251" y="456" type="curve" smooth="yes"/>
      <point x="180" y="456"/>
      <point x="135" y="445"/>
      <point x="78" y="413" type="curve"/>
      <point x="60" y="306" type="line"/>
      <point x="131" y="298" type="line"/>
      <point x="149" y="371" type="line"/>
      <point x="174" y="384"/>
      <point x="199" y="388"/>
      <point x="233" y="388" type="curve" smooth="yes"/>
      <point x="308" y="388"/>
      <point x="323" y="339"/>
      <point x="323" y="282" type="curve" smooth="yes"/>
      <point x="323" y="249" type="line"/>
      <point x="299" y="251"/>
      <point x="272" y="253"/>
      <point x="246" y="253" type="curve" smooth="yes"/>
      <point x="145" y="253"/>
      <point x="34" y="228"/>
      <point x="34" y="116" type="curve" smooth="yes"/>
      <point x="34" y="22"/>
      <point x="112" y="-10"/>
      <point x="178" y="-10" type="curve" smooth="yes"/>
      <point x="267" y="-10"/>
      <point x="321" y="41"/>
      <point x="352" y="91" type="curve"/>
      <point x="388" y="25"/>
      <point x="455" y="-10"/>
      <point x="539" y="-10" type="curve" smooth="yes"/>
      <point x="655" y="-10"/>
      <point x="722" y="55"/>
    </contour>
    <contour>
      <point x="637" y="260" type="curve"/>
      <point x="417" y="260" type="line"/>
      <point x="425" y="331"/>
      <point x="457" y="386"/>
      <point x="531" y="386" type="curve" smooth="yes"/>
      <point x="612" y="386"/>
      <point x="645" y="321"/>
    </contour>
    <contour>
      <point x="128" y="126" type="curve" smooth="yes"/>
      <point x="128" y="189"/>
      <point x="185" y="203"/>
      <point x="247" y="203" type="curve" smooth="yes"/>
      <point x="272" y="203"/>
      <point x="299" y="200"/>
      <point x="323" y="198" type="curve"/>
      <point x="323" y="174" type="line"/>
      <point x="321" y="100"/>
      <point x="259" y="58"/>
      <point x="202" y="58" type="curve" smooth="yes"/>
      <point x="163" y="58"/>
      <point x="128" y="78"/>
    </contour>
  </outline>
</glyph>
<glyph name="edieresis" format="1">
  <advance width="474"/>
  <unicode hex="00EB"/>
  <outline>
    <contour>
      <point x="115" y="548" type="line"/>
      <point x="210" y="548" type="line"/>
      <point x="210" y="647" type="line"/>
      <point x="115" y="647" type="line"/>
    </contour>
    <contour>
      <point x="291" y="548" type="line"/>
      <point x="386" y="548" type="line"/>
      <point x="386" y="647" type="line"/>
      <point x="291" y="647" type="line"/>
    </contour>
    <contour>
      <point x="443" y="132" type="curve"/>
      <point x="370" y="147" type="line"/>
      <point x="358" y="100"/>
      <point x="325" y="62"/>
      <point x="256" y="62" type="curve" smooth="yes"/>
      <point x="175" y="62"/>
      <point x="129" y="113"/>
      <point x="125" y="204" type="curve"/>
      <point x="433" y="204" type="line"/>
      <point x="437" y="224"/>
      <point x="439" y="243"/>
      <point x="439" y="261" type="curve" smooth="yes"/>
      <point x="438" y="369"/>
      <point x="366" y="456"/>
      <point x="244" y="456" type="curve" smooth="yes"/>
      <point x="112" y="456"/>
      <point x="33" y="355"/>
      <point x="33" y="216" type="curve" smooth="yes"/>
      <point x="33" y="70"/>
      <point x="121" y="-10"/>
      <point x="250" y="-10" type="curve" smooth="yes"/>
      <point x="365" y="-10"/>
      <point x="433" y="55"/>
    </contour>
    <contour>
      <point x="348" y="263" type="curve"/>
      <point x="126" y="263" type="line"/>
      <point x="134" y="332"/>
      <point x="169" y="388"/>
      <point x="242" y="388" type="curve" smooth="yes"/>
      <point x="321" y="388"/>
      <point x="354" y="322"/>
    </contour>
  </outline>
</glyph>
<glyph name="idieresis" format="1">
  <advance width="286"/>
  <unicode hex="00EF"/>
  <outline>
    <contour>
      <point x="33" y="69" type="line"/>
      <point x="106" y="69" type="line"/>
      <point x="106" y="378" type="line"/>
      <point x="30" y="378" type="line"/>
      <point x="30" y="447" type="line"/>
      <point x="194" y="447" type="line"/>
      <point x="194" y="69" type="line"/>
      <point x="266" y="69" type="line"/>
      <point x="266" y="0" type="line"/>
      <point x="33" y="0" type="line"/>
    </contour>
    <contour>
      <point x="174" y="548" type="line"/>
      <point x="269" y="548" type="line"/>
      <point x="269" y="647" type="line"/>
      <point x="174" y="647" type="line"/>
    </contour>
    <contour>
      <point x="-2" y="548" type="line"/>
      <point x="93" y="548" type="line"/>
      <point x="93" y="647" type="line"/>
      <point x="-2" y="647" type="line"/>
    </contour>
  </outline>
</glyph>
<glyph name="eth" format="1">
  <advance width="525"/>
  <unicode hex="00F0"/>
  <outline>
    <contour>
      <point x="145" y="521" type="line"/>
      <point x="198" y="590" type="line"/>
      <point x="175" y="605"/>
      <point x="150" y="619"/>
      <point x="124" y="634" type="curve"/>
      <point x="161" y="698" type="line"/>
      <point x="189" y="683"/>
      <point x="217" y="667"/>
      <point x="244" y="650" type="curve"/>
      <point x="288" y="706" type="line"/>
      <point x="337" y="675" type="line"/>
      <point x="292" y="616" type="line"/>
      <point x="403" y="529"/>
      <point x="483" y="411"/>
      <point x="483" y="255" type="curve" smooth="yes"/>
      <point x="483" y="223" type="line" smooth="yes"/>
      <point x="483" y="85"/>
      <point x="392" y="-10"/>
      <point x="253" y="-10" type="curve" smooth="yes"/>
      <point x="117" y="-10"/>
      <point x="32" y="82"/>
      <point x="32" y="219" type="curve" smooth="yes"/>
      <point x="32" y="357"/>
      <point x="121" y="456"/>
      <point x="248" y="456" type="curve" smooth="yes"/>
      <point x="293" y="456"/>
      <point x="329" y="442"/>
      <point x="357" y="423" type="curve"/>
      <point x="332" y="475"/>
      <point x="294" y="517"/>
      <point x="245" y="556" type="curve"/>
      <point x="194" y="489" type="line"/>
    </contour>
    <contour>
      <point x="255" y="381" type="curve" smooth="yes"/>
      <point x="172" y="381"/>
      <point x="125" y="318"/>
      <point x="125" y="224" type="curve" smooth="yes"/>
      <point x="125" y="134"/>
      <point x="169" y="65"/>
      <point x="257" y="65" type="curve" smooth="yes"/>
      <point x="342" y="65"/>
      <point x="389" y="129"/>
      <point x="389" y="220" type="curve" smooth="yes"/>
      <point x="389" y="262" type="line"/>
      <point x="386" y="319"/>
      <point x="336" y="381"/>
    </contour>
  </outline>
</glyph>
<glyph name="ntilde" format="1">
  <advance width="579"/>
  <unicode hex="00F1"/>
  <outline>
    <contour>
      <point x="569" y="0" type="line"/>
      <point x="569" y="68" type="line"/>
      <point x="497" y="68" type="line"/>
      <point x="497" y="291" type="line" smooth="yes"/>
      <point x="497" y="405"/>
      <point x="429" y="456"/>
      <point x="342" y="456" type="curve" smooth="yes"/>
      <point x="273" y="456"/>
      <point x="219" y="424"/>
      <point x="190" y="371" type="curve"/>
      <point x="190" y="447" type="line"/>
      <point x="27" y="447" type="line"/>
      <point x="27" y="378" type="line"/>
      <point x="102" y="378" type="line"/>
      <point x="102" y="68" type="line"/>
      <point x="30" y="68" type="line"/>
      <point x="30" y="0" type="line"/>
      <point x="262" y="0" type="line"/>
      <point x="262" y="68" type="line"/>
      <point x="190" y="68" type="line"/>
      <point x="190" y="263" type="line"/>
      <point x="192" y="329"/>
      <point x="239" y="386"/>
      <point x="314" y="386" type="curve" smooth="yes"/>
      <point x="371" y="386"/>
      <point x="409" y="352"/>
      <point x="409" y="261" type="curve" smooth="yes"/>
      <point x="409" y="68" type="line"/>
      <point x="337" y="68" type="line"/>
      <point x="337" y="0" type="line"/>
    </contour>
    <contour>
      <point x="439" y="646" type="curve"/>
      <point x="398" y="656" type="line"/>
      <point x="388" y="622"/>
      <point x="369" y="614"/>
      <point x="351" y="614" type="curve" smooth="yes"/>
      <point x="307" y="614"/>
      <point x="277" y="651"/>
      <point x="232" y="651" type="curve" smooth="yes"/>
      <point x="177" y="651"/>
      <point x="152" y="588"/>
      <point x="149" y="552" type="curve"/>
      <point x="188" y="539" type="line"/>
      <point x="197" y="570"/>
      <point x="216" y="582"/>
      <point x="237" y="582" type="curve" smooth="yes"/>
      <point x="275" y="582"/>
      <point x="309" y="543"/>
      <point x="360" y="543" type="curve" smooth="yes"/>
      <point x="412" y="543"/>
      <point x="433" y="591"/>
    </contour>
  </outline>
</glyph>
<glyph name="yacute" format="1">
  <advance width="516"/>
  <unicode hex="00FD"/>
  <outline>
    <contour>
      <point x="508" y="378" type="line"/>
      <point x="508" y="447" type="line"/>
      <point x="309" y="447" type="line"/>
      <point x="309" y="378" type="line"/>
      <point x="372" y="378" type="line"/>
      <point x="273" y="106" type="line"/>
      <point x="267" y="106" type="line"/>
      <point x="152" y="378" type="line"/>
      <point x="220" y="378" type="line"/>
      <point x="220" y="447" type="line"/>
      <point x="7" y="447" type="line"/>
      <point x="7" y="378" type="line"/>
      <point x="58" y="378" type="line"/>
      <point x="219" y="-1" type="line"/>
      <point x="167" y="-143" type="line"/>
      <point x="88" y="-143" type="line"/>
      <point x="88" y="-213" type="line"/>
      <point x="320" y="-213" type="line"/>
      <point x="320" y="-143" type="line"/>
      <point x="249" y="-143" type="line"/>
      <point x="304" y="0" type="line"/>
      <point x="458" y="378" type="line"/>
    </contour>
    <contour>
      <point x="415" y="617" type="line"/>
      <point x="367" y="688" type="line"/>
      <point x="211" y="553" type="line"/>
      <point x="236" y="516" type="line"/>
    </contour>
  </outline>
</glyph>
<glyph name="cdotaccent" format="1">
  <advance width="464"/>
  <unicode hex="010B"/>
  <outline>
    <contour>
      <point x="436" y="155" type="curve"/>
      <point x="362" y="170" type="line"/>
      <point x="350" y="99"/>
      <point x="315" y="62"/>
      <point x="251" y="62" type="curve" smooth="yes"/>
      <point x="168" y="62"/>
      <point x="125" y="121"/>
      <point x="125" y="221" type="curve" smooth="yes"/>
      <point x="125" y="317"/>
      <point x="164" y="384"/>
      <point x="248" y="384" type="curve" smooth="yes"/>
      <point x="281" y="384"/>
      <point x="309" y="377"/>
      <point x="335" y="362" type="curve"/>
      <point x="351" y="287" type="line"/>
      <point x="422" y="295" type="line"/>
      <point x="404" y="411" type="line"/>
      <point x="357" y="444"/>
      <point x="305" y="456"/>
      <point x="249" y="456" type="curve" smooth="yes"/>
      <point x="113" y="456"/>
      <point x="33" y="351"/>
      <point x="33" y="216" type="curve" smooth="yes"/>
      <point x="33" y="71"/>
      <point x="117" y="-10"/>
      <point x="242" y="-10" type="curve" smooth="yes"/>
      <point x="371" y="-10"/>
      <point x="425" y="76"/>
    </contour>
    <contour>
      <point x="199" y="547" type="line"/>
      <point x="291" y="547" type="line"/>
      <point x="291" y="650" type="line"/>
      <point x="199" y="650" type="line"/>
    </contour>
  </outline>
</glyph>
<glyph name="Ccaron" format="1">
  <advance width="646"/>
  <unicode hex="010C"/>
  <outline>
    <contour>
      <point x="581" y="56" type="curve"/>
      <point x="596" y="188" type="line"/>
      <point x="520" y="196" type="line"/>
      <point x="503" y="100" type="line"/>
      <point x="466" y="80"/>
      <point x="421" y="71"/>
      <point x="366" y="71" type="curve" smooth="yes"/>
      <point x="223" y="71"/>
      <point x="132" y="165"/>
      <point x="132" y="324" type="curve" smooth="yes"/>
      <point x="132" y="477"/>
      <point x="221" y="579"/>
      <point x="354" y="579" type="curve" smooth="yes"/>
      <point x="419" y="579"/>
      <point x="467" y="562"/>
      <point x="506" y="536" type="curve"/>
      <point x="524" y="443" type="line"/>
      <point x="600" y="451" type="line"/>
      <point x="583" y="583" type="line"/>
      <point x="533" y="627"/>
      <point x="460" y="660"/>
      <point x="351" y="660" type="curve" smooth="yes"/>
      <point x="145" y="660"/>
      <point x="35" y="490"/>
      <point x="35" y="319" type="curve" smooth="yes"/>
      <point x="35" y="129"/>
      <point x="168" y="-10"/>
      <point x="356" y="-10" type="curve" smooth="yes"/>
      <point x="448" y="-10"/>
      <point x="531" y="13"/>
    </contour>
    <contour>
      <point x="500" y="792" type="line"/>
      <point x="477" y="832" type="line"/>
      <point x="361" y="769" type="line"/>
      <point x="236" y="830" type="line"/>
      <point x="213" y="790" type="line"/>
      <point x="342" y="696" type="line"/>
      <point x="371" y="696" type="line"/>
    </contour>
  </outline>
</glyph>
<glyph name="Dcaron" format="1">
  <advance width="703"/>
  <unicode hex="010E"/>
  <outline>
    <contour>
      <point x="446" y="792" type="line"/>
      <point x="423" y="832" type="line"/>
      <point x="307" y="769" type="line"/>
      <point x="182" y="830" type="line"/>
      <point x="159" y="790" type="line"/>
      <point x="288" y="696" type="line"/>
      <point x="317" y="696" type="line"/>
    </contour>
    <contour>
      <point x="667" y="326" type="curve" smooth="yes"/>
      <point x="667" y="516"/>
      <point x="549" y="650"/>
      <point x="334" y="650" type="curve" smooth="yes"/>
      <point x="41" y="650" type="line"/>
      <point x="41" y="572" type="line"/>
      <point x="120" y="572" type="line"/>
      <point x="120" y="78" type="line"/>
      <point x="41" y="78" type="line"/>
      <point x="41" y="0" type="line"/>
      <point x="339" y="0" type="line" smooth="yes"/>
      <point x="544" y="0"/>
      <point x="667" y="133"/>
    </contour>
    <contour>
      <point x="570" y="325" type="curve" smooth="yes"/>
      <point x="570" y="168"/>
      <point x="486" y="78"/>
      <point x="332" y="78" type="curve" smooth="yes"/>
      <point x="211" y="78" type="line"/>
      <point x="211" y="572" type="line"/>
      <point x="332" y="572" type="line" smooth="yes"/>
      <point x="487" y="572"/>
      <point x="570" y="479"/>
    </contour>
  </outline>
</glyph>
<glyph name="dcroat" format="1">
  <advance width="556"/>
  <unicode hex="0111"/>
  <outline>
    <contour>
      <point x="541" y="0" type="line"/>
      <point x="541" y="68" type="line"/>
      <point x="469" y="68" type="line"/>
      <point x="469" y="509" type="line"/>
      <point x="535" y="509" type="line"/>
      <point x="535" y="565" type="line"/>
      <point x="469" y="565" type="line"/>
      <point x="469" y="688" type="line"/>
      <point x="279" y="688" type="line"/>
      <point x="279" y="619" type="line"/>
      <point x="382" y="619" type="line"/>
      <point x="382" y="565" type="line"/>
      <point x="204" y="565" type="line"/>
      <point x="204" y="509" type="line"/>
      <point x="382" y="509" type="line"/>
      <point x="382" y="376" type="line"/>
      <point x="354" y="426"/>
      <point x="302" y="456"/>
      <point x="234" y="456" type="curve" smooth="yes"/>
      <point x="92" y="456"/>
      <point x="33" y="336"/>
      <point x="33" y="213" type="curve" smooth="yes"/>
      <point x="33" y="74"/>
      <point x="108" y="-10"/>
      <point x="224" y="-10" type="curve" smooth="yes"/>
      <point x="306" y="-10"/>
      <point x="354" y="35"/>
      <point x="382" y="88" type="curve"/>
      <point x="382" y="0" type="line"/>
    </contour>
    <contour>
      <point x="382" y="206" type="line"/>
      <point x="380" y="139"/>
      <point x="326" y="62"/>
      <point x="250" y="62" type="curve" smooth="yes"/>
      <point x="179" y="62"/>
      <point x="125" y="117"/>
      <point x="125" y="218" type="curve" smooth="yes"/>
      <point x="125" y="312"/>
      <point x="171" y="384"/>
      <point x="257" y="384" type="curve" smooth="yes"/>
      <point x="325" y="384"/>
      <point x="380" y="334"/>
      <point x="382" y="260" type="curve"/>
    </contour>
  </outline>
</glyph>
<glyph name="Ebreve" format="1">
  <advance width="590"/>
  <unicode hex="0114"/>
  <outline>
    <contour>
      <point x="456" y="821" type="curve"/>
      <point x="385" y="821" type="line"/>
      <point x="385" y="776"/>
      <point x="369" y="754"/>
      <point x="328" y="754" type="curve" smooth="yes"/>
      <point x="292" y="754"/>
      <point x="273" y="773"/>
      <point x="273" y="821" type="curve"/>
      <point x="202" y="821" type="line"/>
      <point x="202" y="737"/>
      <point x="246" y="698"/>
      <point x="329" y="698" type="curve" smooth="yes"/>
      <point x="411" y="698"/>
      <point x="456" y="735"/>
    </contour>
    <contour>
      <point x="530" y="0" type="line"/>
      <point x="550" y="186" type="line"/>
      <point x="472" y="193" type="line"/>
      <point x="452" y="79" type="line"/>
      <point x="211" y="79" type="line"/>
      <point x="211" y="290" type="line"/>
      <point x="507" y="290" type="line"/>
      <point x="507" y="368" type="line"/>
      <point x="211" y="368" type="line"/>
      <point x="211" y="571" type="line"/>
      <point x="443" y="571" type="line"/>
      <point x="463" y="457" type="line"/>
      <point x="542" y="464" type="line"/>
      <point x="522" y="650" type="line"/>
      <point x="41" y="650" type="line"/>
      <point x="41" y="571" type="line"/>
      <point x="120" y="571" type="line"/>
      <point x="120" y="79" type="line"/>
      <point x="41" y="79" type="line"/>
      <point x="41" y="0" type="line"/>
    </contour>
  </outline>
</glyph>
<glyph name="eogonek" format="1">
  <advance width="474"/>
  <unicode hex="0119"/>
  <outline>
    <contour>
      <point x="443" y="132" type="curve"/>
      <point x="370" y="147" type="line"/>
      <point x="358" y="100"/>
      <point x="325" y="62"/>
      <point x="256" y="62" type="curve" smooth="yes"/>
      <point x="175" y="62"/>
      <point x="129" y="113"/>
      <point x="125" y="204" type="curve"/>
      <point x="433" y="204" type="line"/>
      <point x="437" y="224"/>
      <point x="439" y="243"/>
      <point x="439" y="261" type="curve" smooth="yes"/>
      <point x="438" y="369"/>
      <point x="366" y="456"/>
      <point x="244" y="456" type="curve" smooth="yes"/>
      <point x="112" y="456"/>
      <point x="33" y="355"/>
      <point x="33" y="216" type="curve" smooth="yes"/>
      <point x="33" y="73"/>
      <point x="117" y="-6"/>
      <point x="240" y="-10" type="curve"/>
      <point x="207" y="-35"/>
      <point x="183" y="-73"/>
      <point x="183" y="-118" type="curve" smooth="yes"/>
      <point x="183" y="-177"/>
      <point x="228" y="-209"/>
      <point x="291" y="-209" type="curve" smooth="yes"/>
      <point x="324" y="-209"/>
      <point x="351" y="-200"/>
      <point x="374" y="-189" type="curve"/>
      <point x="365" y="-130" type="line"/>
      <point x="348" y="-140"/>
      <point x="330" y="-144"/>
      <point x="313" y="-144" type="curve" smooth="yes"/>
      <point x="282" y="-144"/>
      <point x="259" y="-131"/>
      <point x="259" y="-92" type="curve" smooth="yes"/>
      <point x="259" y="-63"/>
      <point x="271" y="-30"/>
      <point x="314" y="-2" type="curve"/>
      <point x="390" y="16"/>
      <point x="435" y="70"/>
    </contour>
    <contour>
      <point x="348" y="263" type="curve"/>
      <point x="126" y="263" type="line"/>
      <point x="134" y="332"/>
      <point x="169" y="388"/>
      <point x="242" y="388" type="curve" smooth="yes"/>
      <point x="321" y="388"/>
      <point x="354" y="322"/>
    </contour>
  </outline>
</glyph>
<glyph name="Gbreve" format="1">
  <advance width="689"/>
  <unicode hex="011E"/>
  <outline>
    <contour>
      <point x="486" y="821" type="curve"/>
      <point x="415" y="821" type="line"/>
      <point x="415" y="776"/>
      <point x="399" y="754"/>
      <point x="358" y="754" type="curve" smooth="yes"/>
      <point x="322" y="754"/>
      <point x="303" y="773"/>
      <point x="303" y="821" type="curve"/>
      <point x="232" y="821" type="line"/>
      <point x="232" y="737"/>
      <point x="276" y="698"/>
      <point x="359" y="698" type="curve" smooth="yes"/>
      <point x="441" y="698"/>
      <point x="486" y="735"/>
    </contour>
    <contour>
      <point x="662" y="263" type="line"/>
      <point x="662" y="342" type="line"/>
      <point x="379" y="342" type="line"/>
      <point x="379" y="263" type="line"/>
      <point x="526" y="263" type="line"/>
      <point x="526" y="221" type="line" smooth="yes"/>
      <point x="526" y="140"/>
      <point x="461" y="71"/>
      <point x="351" y="71" type="curve" smooth="yes"/>
      <point x="220" y="71"/>
      <point x="133" y="168"/>
      <point x="133" y="324" type="curve" smooth="yes"/>
      <point x="133" y="479"/>
      <point x="225" y="579"/>
      <point x="359" y="579" type="curve" smooth="yes"/>
      <point x="428" y="579"/>
      <point x="480" y="559"/>
      <point x="516" y="536" type="curve"/>
      <point x="535" y="448" type="line"/>
      <point x="610" y="456" type="line"/>
      <point x="592" y="583" type="line"/>
      <point x="545" y="627"/>
      <point x="462" y="660"/>
      <point x="358" y="660" type="curve" smooth="yes"/>
      <point x="161" y="660"/>
      <point x="36" y="508"/>
      <point x="36" y="322" type="curve" smooth="yes"/>
      <point x="36" y="135"/>
      <point x="156" y="-10"/>
      <point x="335" y="-10" type="curve" smooth="yes"/>
      <point x="428" y="-10"/>
      <point x="498" y="29"/>
      <point x="536" y="84" type="curve"/>
      <point x="547" y="0" type="line"/>
      <point x="617" y="0" type="line"/>
      <point x="617" y="263" type="line"/>
    </contour>
  </outline>
</glyph>
<glyph name="Hcircumflex" format="1">
  <advance width="757"/>
  <unicode hex="0124"/>
  <outline>
    <contour>
      <point x="715" y="0" type="line"/>
      <point x="715" y="79" type="line"/>
      <point x="637" y="79" type="line"/>
      <point x="637" y="571" type="line"/>
      <point x="715" y="571" type="line"/>
      <point x="715" y="650" type="line"/>
      <point x="468" y="650" type="line"/>
      <point x="468" y="571" type="line"/>
      <point x="546" y="571" type="line"/>
      <point x="546" y="369" type="line"/>
      <point x="211" y="369" type="line"/>
      <point x="211" y="571" type="line"/>
      <point x="289" y="571" type="line"/>
      <point x="289" y="650" type="line"/>
      <point x="41" y="650" type="line"/>
      <point x="41" y="571" type="line"/>
      <point x="120" y="571" type="line"/>
      <point x="120" y="79" type="line"/>
      <point x="41" y="79" type="line"/>
      <point x="41" y="0" type="line"/>
      <point x="289" y="0" type="line"/>
      <point x="289" y="79" type="line"/>
      <point x="211" y="79" type="line"/>
      <point x="211" y="292" type="line"/>
      <point x="546" y="292" type="line"/>
      <point x="546" y="79" type="line"/>
      <point x="468" y="79" type="line"/>
      <point x="468" y="0" type="line"/>
    </contour>
    <contour>
      <point x="525" y="737" type="line"/>
      <point x="396" y="832" type="line"/>
      <point x="368" y="832" type="line"/>
      <point x="238" y="735" type="line"/>
      <point x="261" y="696" type="line"/>
      <point x="378" y="758" type="line"/>
      <point x="503" y="697" type="line"/>
    </contour>
  </outline>
</glyph>
<glyph name="Hbar" format="1">
  <advance width="758"/>
  <unicode hex="0126"/>
  <outline>
    <contour>
      <point x="46" y="451" type="line"/>
      <point x="120" y="451" type="line"/>
      <point x="120" y="79" type="line"/>
      <point x="41" y="79" type="line"/>
      <point x="41" y="0" type="line"/>
      <point x="289" y="0" type="line"/>
      <point x="289" y="79" type="line"/>
      <point x="211" y="79" type="line"/>
      <point x="211" y="292" type="line"/>
      <point x="546" y="292" type="line"/>
      <point x="546" y="79" type="line"/>
      <point x="468" y="79" type="line"/>
      <point x="468" y="0" type="line"/>
      <point x="715" y="0" type="line"/>
      <point x="715" y="79" type="line"/>
      <point x="637" y="79" type="line"/>
      <point x="637" y="451" type="line"/>
      <point x="709" y="451" type="line"/>
      <point x="709" y="511" type="line"/>
      <point x="637" y="511" type="line"/>
      <point x="637" y="571" type="line"/>
      <point x="715" y="571" type="line"/>
      <point x="715" y="650" type="line"/>
      <point x="468" y="650" type="line"/>
      <point x="468" y="571" type="line"/>
      <point x="546" y="571" type="line"/>
      <point x="546" y="511" type="line"/>
      <point x="211" y="511" type="line"/>
      <point x="211" y="571" type="line"/>
      <point x="289" y="571" type="line"/>
      <point x="289" y="650" type="line"/>
      <point x="41" y="650" type="line"/>
      <point x="41" y="571" type="line"/>
      <point x="120" y="571" type="line"/>
      <point x="120" y="511" type="line"/>
      <point x="46" y="511" type="line"/>
    </contour>
    <contour>
      <point x="211" y="369" type="line"/>
      <point x="211" y="451" type="line"/>
      <point x="546" y="451" type="line"/>
      <point x="546" y="369" type="line"/>
    </contour>
  </outline>
</glyph>
<glyph name="hbar" format="1">
  <advance width="567"/>
  <unicode hex="0127"/>
  <outline>
    <contour>
      <point x="556" y="0" type="line"/>
      <point x="556" y="68" type="line"/>
      <point x="484" y="68" type="line"/>
      <point x="484" y="291" type="line" smooth="yes"/>
      <point x="484" y="405"/>
      <point x="416" y="456"/>
      <point x="329" y="456" type="curve" smooth="yes"/>
      <point x="259" y="456"/>
      <point x="206" y="423"/>
      <point x="176" y="370" type="curve"/>
      <point x="176" y="508" type="line"/>
      <point x="351" y="508" type="line"/>
      <point x="351" y="564" type="line"/>
      <point x="176" y="564" type="line"/>
      <point x="176" y="688" type="line"/>
      <point x="17" y="688" type="line"/>
      <point x="17" y="619" type="line"/>
      <point x="89" y="619" type="line"/>
      <point x="89" y="564" type="line"/>
      <point x="21" y="564" type="line"/>
      <point x="21" y="508" type="line"/>
      <point x="89" y="508" type="line"/>
      <point x="89" y="68" type="line"/>
      <point x="17" y="68" type="line"/>
      <point x="17" y="0" type="line"/>
      <point x="249" y="0" type="line"/>
      <point x="249" y="68" type="line"/>
      <point x="176" y="68" type="line"/>
      <point x="176" y="266" type="line"/>
      <point x="179" y="329"/>
      <point x="226" y="386"/>
      <point x="298" y="386" type="curve" smooth="yes"/>
      <point x="357" y="386"/>
      <point x="396" y="352"/>
      <point x="396" y="261" type="curve" smooth="yes"/>
      <point x="396" y="68" type="line"/>
      <point x="323" y="68" type="line"/>
      <point x="323" y="0" type="line"/>
    </contour>
  </outline>
</glyph>
<glyph name="Idotaccent" format="1">
  <advance width="331"/>
  <unicode hex="0130"/>
  <outline>
    <contour>
      <point x="289" y="0" type="line"/>
      <point x="289" y="79" type="line"/>
      <point x="211" y="79" type="line"/>
      <point x="211" y="571" type="line"/>
      <point x="289" y="571" type="line"/>
      <point x="289" y="650" type="line"/>
      <point x="41" y="650" type="line"/>
      <point x="41" y="571" type="line"/>
      <point x="120" y="571" type="line"/>
      <point x="120" y="79" type="line"/>
      <point x="41" y="79" type="line"/>
      <point x="41" y="0" type="line"/>
    </contour>
    <contour>
      <point x="117" y="715" type="line"/>
      <point x="212" y="715" type="line"/>
      <point x="212" y="813" type="line"/>
      <point x="117" y="813" type="line"/>
    </contour>
  </outline>
</glyph>
<glyph name="dotlessi" format="1">
  <advance width="286"/>
  <unicode hex="0131"/>
  <outline>
    <contour>
      <point x="33" y="69" type="line"/>
      <point x="106" y="69" type="line"/>
      <point x="106" y="378" type="line"/>
      <point x="30" y="378" type="line"/>
      <point x="30" y="447" type="line"/>
      <point x="194" y="447" type="line"/>
      <point x="194" y="69" type="line"/>
      <point x="266" y="69" type="line"/>
      <point x="266" y="0" type="line"/>
      <point x="33" y="0" type="line"/>
    </contour>
    <contour>
      <point x="305" y="566" type="move" name="top"/>
    </contour>
  </outline>
</glyph>
<glyph name="Jcircumflex" format="1">
  <advance width="465"/>
  <unicode hex="0134"/>
  <outline>
    <contour>
      <point x="430" y="571" type="line"/>
      <point x="430" y="650" type="line"/>
      <point x="146" y="650" type="line"/>
      <point x="146" y="571" type="line"/>
      <point x="270" y="571" type="line"/>
      <point x="270" y="171" type="line" smooth="yes"/>
      <point x="270" y="114"/>
      <point x="243" y="75"/>
      <point x="177" y="75" type="curve" smooth="yes"/>
      <point x="137" y="75"/>
      <point x="105" y="90"/>
      <point x="78" y="145" type="curve"/>
      <point x="13" y="96" type="line"/>
      <point x="41" y="35"/>
      <point x="92" y="-10"/>
      <point x="185" y="-10" type="curve" smooth="yes"/>
      <point x="294" y="-10"/>
      <point x="361" y="50"/>
      <point x="361" y="172" type="curve" smooth="yes"/>
      <point x="361" y="571" type="line"/>
    </contour>
    <contour>
      <point x="440" y="737" type="line"/>
      <point x="311" y="832" type="line"/>
      <point x="283" y="832" type="line"/>
      <point x="153" y="735" type="line"/>
      <point x="176" y="696" type="line"/>
      <point x="293" y="758" type="line"/>
      <point x="418" y="697" type="line"/>
    </contour>
  </outline>
</glyph>
<glyph name="jcircumflex" format="1">
  <advance width="255"/>
  <unicode hex="0135"/>
  <outline>
    <contour>
      <point x="9" y="447" type="line"/>
      <point x="187" y="447" type="line"/>
      <point x="187" y="-5" type="line" smooth="yes"/>
      <point x="187" y="-175"/>
      <point x="115" y="-235"/>
      <point x="-14" y="-223" type="curve"/>
      <point x="-17" y="-162" type="line"/>
      <point x="38" y="-162"/>
      <point x="99" y="-149"/>
      <point x="99" y="-5" type="curve" smooth="yes"/>
      <point x="99" y="378" type="line"/>
      <point x="9" y="378" type="line"/>
    </contour>
    <contour>
      <point x="260" y="554" type="line"/>
      <point x="135" y="674" type="line"/>
      <point x="106" y="674" type="line"/>
      <point x="-19" y="553" type="line"/>
      <point x="9" y="515" type="line"/>
      <point x="113" y="595" type="line"/>
      <point x="232" y="516" type="line"/>
    </contour>
  </outline>
</glyph>
<glyph name="Kcommaaccent" format="1">
  <advance width="650"/>
  <unicode hex="0136"/>
  <outline>
    <contour>
      <point x="386" y="-62" type="line"/>
      <point x="303" y="-62" type="line"/>
      <point x="296" y="-216" type="line"/>
      <point x="365" y="-216" type="line"/>
    </contour>
    <contour>
      <point x="644" y="0" type="line"/>
      <point x="644" y="79" type="line"/>
      <point x="573" y="79" type="line"/>
      <point x="381" y="339" type="line"/>
      <point x="558" y="572" type="line"/>
      <point x="632" y="572" type="line"/>
      <point x="632" y="651" type="line"/>
      <point x="391" y="651" type="line"/>
      <point x="391" y="572" type="line"/>
      <point x="462" y="572" type="line"/>
      <point x="310" y="368" type="line"/>
      <point x="211" y="368" type="line"/>
      <point x="211" y="571" type="line"/>
      <point x="282" y="571" type="line"/>
      <point x="282" y="650" type="line"/>
      <point x="41" y="650" type="line"/>
      <point x="41" y="571" type="line"/>
      <point x="120" y="571" type="line"/>
      <point x="120" y="79" type="line"/>
      <point x="41" y="79" type="line"/>
      <point x="41" y="0" type="line"/>
      <point x="280" y="0" type="line"/>
      <point x="280" y="79" type="line"/>
      <point x="211" y="79" type="line"/>
      <point x="211" y="292" type="line"/>
      <point x="311" y="292" type="line"/>
      <point x="467" y="79" type="line"/>
      <point x="395" y="79" type="line"/>
      <point x="395" y="0" type="line"/>
    </contour>
  </outline>
</glyph>
<glyph name="Lcaron" format="1">
  <advance width="548"/>
  <unicode hex="013D"/>
  <outline>
    <contour>
      <point x="453" y="682" type="line"/>
      <point x="371" y="682" type="line"/>
      <point x="358" y="458" type="line"/>
      <point x="427" y="458" type="line"/>
    </contour>
    <contour>
      <point x="516" y="0" type="line"/>
      <point x="536" y="214" type="line"/>
      <point x="457" y="221" type="line"/>
      <point x="437" y="79" type="line"/>
      <point x="211" y="79" type="line"/>
      <point x="211" y="571" type="line"/>
      <point x="314" y="571" type="line"/>
      <point x="314" y="650" type="line"/>
      <point x="41" y="650" type="line"/>
      <point x="41" y="571" type="line"/>
      <point x="120" y="571" type="line"/>
      <point x="120" y="79" type="line"/>
      <point x="41" y="79" type="line"/>
      <point x="41" y="0" type="line"/>
    </contour>
  </outline>
</glyph>
<glyph name="Lslash" format="1">
  <advance width="550"/>
  <unicode hex="0141"/>
  <outline>
    <contour>
      <point x="517" y="0" type="line"/>
      <point x="537" y="214" type="line"/>
      <point x="458" y="221" type="line"/>
      <point x="438" y="79" type="line"/>
      <point x="212" y="79" type="line"/>
      <point x="212" y="296" type="line"/>
      <point x="366" y="353" type="line"/>
      <point x="366" y="424" type="line"/>
      <point x="212" y="367" type="line"/>
      <point x="212" y="571" type="line"/>
      <point x="315" y="571" type="line"/>
      <point x="315" y="650" type="line"/>
      <point x="42" y="650" type="line"/>
      <point x="42" y="571" type="line"/>
      <point x="121" y="571" type="line"/>
      <point x="121" y="334" type="line"/>
      <point x="45" y="306" type="line"/>
      <point x="45" y="235" type="line"/>
      <point x="121" y="263" type="line"/>
      <point x="121" y="79" type="line"/>
      <point x="42" y="79" type="line"/>
      <point x="42" y="0" type="line"/>
    </contour>
  </outline>
</glyph>
<glyph name="lslash" format="1">
  <advance width="279"/>
  <unicode hex="0142"/>
  <outline>
    <contour>
      <point x="17" y="237" type="line"/>
      <point x="96" y="273" type="line"/>
      <point x="96" y="68" type="line"/>
      <point x="24" y="68" type="line"/>
      <point x="24" y="0" type="line"/>
      <point x="256" y="0" type="line"/>
      <point x="256" y="68" type="line"/>
      <point x="184" y="68" type="line"/>
      <point x="184" y="314" type="line"/>
      <point x="261" y="350" type="line"/>
      <point x="261" y="421" type="line"/>
      <point x="184" y="385" type="line"/>
      <point x="184" y="688" type="line"/>
      <point x="21" y="688" type="line"/>
      <point x="21" y="619" type="line"/>
      <point x="96" y="619" type="line"/>
      <point x="96" y="344" type="line"/>
      <point x="17" y="308" type="line"/>
    </contour>
  </outline>
</glyph>
<glyph name="ncommaaccent" format="1">
  <advance width="579"/>
  <unicode hex="0146"/>
  <outline>
    <contour>
      <point x="345" y="-62" type="line"/>
      <point x="262" y="-62" type="line"/>
      <point x="255" y="-216" type="line"/>
      <point x="324" y="-216" type="line"/>
    </contour>
    <contour>
      <point x="569" y="0" type="line"/>
      <point x="569" y="68" type="line"/>
      <point x="497" y="68" type="line"/>
      <point x="497" y="291" type="line" smooth="yes"/>
      <point x="497" y="405"/>
      <point x="429" y="456"/>
      <point x="342" y="456" type="curve" smooth="yes"/>
      <point x="273" y="456"/>
      <point x="219" y="424"/>
      <point x="190" y="371" type="curve"/>
      <point x="190" y="447" type="line"/>
      <point x="27" y="447" type="line"/>
      <point x="27" y="378" type="line"/>
      <point x="102" y="378" type="line"/>
      <point x="102" y="68" type="line"/>
      <point x="30" y="68" type="line"/>
      <point x="30" y="0" type="line"/>
      <point x="262" y="0" type="line"/>
      <point x="262" y="68" type="line"/>
      <point x="190" y="68" type="line"/>
      <point x="190" y="263" type="line"/>
      <point x="192" y="329"/>
      <point x="239" y="386"/>
      <point x="314" y="386" type="curve" smooth="yes"/>
      <point x="371" y="386"/>
      <point x="409" y="352"/>
      <point x="409" y="261" type="curve" smooth="yes"/>
      <point x="409" y="68" type="line"/>
      <point x="337" y="68" type="line"/>
      <point x="337" y="0" type="line"/>
    </contour>
  </outline>
</glyph>
<glyph name="Obreve" format="1">
  <advance width="723"/>
  <unicode hex="014E"/>
  <outline>
    <contour>
      <point x="498" y="821" type="curve"/>
      <point x="427" y="821" type="line"/>
      <point x="427" y="776"/>
      <point x="411" y="754"/>
      <point x="370" y="754" type="curve" smooth="yes"/>
      <point x="334" y="754"/>
      <point x="315" y="773"/>
      <point x="315" y="821" type="curve"/>
      <point x="244" y="821" type="line"/>
      <point x="244" y="737"/>
      <point x="288" y="698"/>
      <point x="371" y="698" type="curve" smooth="yes"/>
      <point x="453" y="698"/>
      <point x="498" y="735"/>
    </contour>
    <contour>
      <point x="689" y="325" type="curve" smooth="yes"/>
      <point x="689" y="510"/>
      <point x="561" y="660"/>
      <point x="362" y="660" type="curve" smooth="yes"/>
      <point x="166" y="660"/>
      <point x="35" y="512"/>
      <point x="35" y="325" type="curve" smooth="yes"/>
      <point x="35" y="142"/>
      <point x="159" y="-10"/>
      <point x="360" y="-10" type="curve" smooth="yes"/>
      <point x="560" y="-10"/>
      <point x="689" y="141"/>
    </contour>
    <contour>
      <point x="591" y="323" type="curve" smooth="yes"/>
      <point x="591" y="179"/>
      <point x="510" y="71"/>
      <point x="364" y="71" type="curve" smooth="yes"/>
      <point x="212" y="71"/>
      <point x="133" y="188"/>
      <point x="133" y="326" type="curve" smooth="yes"/>
      <point x="133" y="468"/>
      <point x="215" y="579"/>
      <point x="362" y="579" type="curve" smooth="yes"/>
      <point x="504" y="579"/>
      <point x="591" y="474"/>
    </contour>
  </outline>
</glyph>
<glyph name="obreve" format="1">
  <advance width="515"/>
  <unicode hex="014F"/>
  <outline>
    <contour>
      <point x="484" y="223" type="curve" smooth="yes"/>
      <point x="484" y="350"/>
      <point x="409" y="457"/>
      <point x="259" y="457" type="curve" smooth="yes"/>
      <point x="109" y="457"/>
      <point x="32" y="350"/>
      <point x="32" y="219" type="curve" smooth="yes"/>
      <point x="32" y="82"/>
      <point x="117" y="-10"/>
      <point x="253" y="-10" type="curve" smooth="yes"/>
      <point x="392" y="-10"/>
      <point x="484" y="86"/>
    </contour>
    <contour>
      <point x="392" y="226" type="curve" smooth="yes"/>
      <point x="392" y="130"/>
      <point x="343" y="61"/>
      <point x="256" y="61" type="curve" smooth="yes"/>
      <point x="168" y="61"/>
      <point x="123" y="133"/>
      <point x="123" y="224" type="curve" smooth="yes"/>
      <point x="123" y="319"/>
      <point x="171" y="386"/>
      <point x="257" y="386" type="curve" smooth="yes"/>
      <point x="340" y="386"/>
      <point x="392" y="324"/>
    </contour>
    <contour>
      <point x="391" y="654" type="curve"/>
      <point x="319" y="654" type="line"/>
      <point x="319" y="609"/>
      <point x="303" y="584"/>
      <point x="264" y="584" type="curve" smooth="yes"/>
      <point x="227" y="584"/>
      <point x="208" y="606"/>
      <point x="208" y="654" type="curve"/>
      <point x="136" y="654" type="line"/>
      <point x="136" y="570"/>
      <point x="180" y="527"/>
      <point x="262" y="527" type="curve" smooth="yes"/>
      <point x="343" y="527"/>
      <point x="391" y="568"/>
    </contour>
  </outline>
</glyph>
<glyph name="Ohungarumlaut" format="1">
  <advance width="723"/>
  <unicode hex="0150"/>
  <outline>
    <contour>
      <point x="689" y="325" type="curve" smooth="yes"/>
      <point x="689" y="510"/>
      <point x="561" y="660"/>
      <point x="362" y="660" type="curve" smooth="yes"/>
      <point x="166" y="660"/>
      <point x="35" y="512"/>
      <point x="35" y="325" type="curve" smooth="yes"/>
      <point x="35" y="142"/>
      <point x="159" y="-10"/>
      <point x="360" y="-10" type="curve" smooth="yes"/>
      <point x="560" y="-10"/>
      <point x="689" y="141"/>
    </contour>
    <contour>
      <point x="591" y="323" type="curve" smooth="yes"/>
      <point x="591" y="179"/>
      <point x="510" y="71"/>
      <point x="364" y="71" type="curve" smooth="yes"/>
      <point x="212" y="71"/>
      <point x="133" y="188"/>
      <point x="133" y="326" type="curve" smooth="yes"/>
      <point x="133" y="468"/>
      <point x="215" y="579"/>
      <point x="362" y="579" type="curve" smooth="yes"/>
      <point x="504" y="579"/>
      <point x="591" y="474"/>
    </contour>
    <contour>
      <point x="607" y="737" type="line"/>
      <point x="586" y="819" type="line"/>
      <point x="393" y="742" type="line"/>
      <point x="404" y="699" type="line"/>
    </contour>
    <contour>
      <point x="455" y="828" type="line"/>
      <point x="396" y="889" type="line"/>
      <point x="263" y="729" type="line"/>
      <point x="295" y="698" type="line"/>
    </contour>
  </outline>
</glyph>
<glyph name="oe" format="1">
  <advance width="831"/>
  <unicode hex="0153"/>
  <outline>
    <contour>
      <point x="800" y="132" type="curve"/>
      <point x="727" y="147" type="line"/>
      <point x="715" y="100"/>
      <point x="682" y="62"/>
      <point x="613" y="62" type="curve" smooth="yes"/>
      <point x="534" y="62"/>
      <point x="489" y="109"/>
      <point x="482" y="195" type="curve"/>
      <point x="483" y="198"/>
      <point x="483" y="201"/>
      <point x="483" y="204" type="curve"/>
      <point x="790" y="204" type="line"/>
      <point x="794" y="224"/>
      <point x="796" y="243"/>
      <point x="796" y="261" type="curve" smooth="yes"/>
      <point x="795" y="369"/>
      <point x="723" y="456"/>
      <point x="601" y="456" type="curve" smooth="yes"/>
      <point x="529" y="456"/>
      <point x="473" y="426"/>
      <point x="437" y="376" type="curve"/>
      <point x="400" y="425"/>
      <point x="340" y="457"/>
      <point x="259" y="457" type="curve" smooth="yes"/>
      <point x="109" y="457"/>
      <point x="32" y="350"/>
      <point x="32" y="219" type="curve" smooth="yes"/>
      <point x="32" y="82"/>
      <point x="117" y="-10"/>
      <point x="253" y="-10" type="curve" smooth="yes"/>
      <point x="329" y="-10"/>
      <point x="392" y="19"/>
      <point x="432" y="68" type="curve"/>
      <point x="470" y="17"/>
      <point x="532" y="-10"/>
      <point x="607" y="-10" type="curve" smooth="yes"/>
      <point x="722" y="-10"/>
      <point x="790" y="55"/>
    </contour>
    <contour>
      <point x="390" y="216" type="curve"/>
      <point x="390" y="197" type="line"/>
      <point x="381" y="116"/>
      <point x="334" y="61"/>
      <point x="256" y="61" type="curve" smooth="yes"/>
      <point x="168" y="61"/>
      <point x="123" y="133"/>
      <point x="123" y="224" type="curve" smooth="yes"/>
      <point x="123" y="319"/>
      <point x="171" y="386"/>
      <point x="257" y="386" type="curve" smooth="yes"/>
      <point x="335" y="386"/>
      <point x="385" y="331"/>
      <point x="391" y="244" type="curve"/>
      <point x="390" y="235"/>
      <point x="390" y="225"/>
    </contour>
    <contour>
      <point x="705" y="263" type="curve"/>
      <point x="483" y="263" type="line"/>
      <point x="491" y="332"/>
      <point x="526" y="388"/>
      <point x="599" y="388" type="curve" smooth="yes"/>
      <point x="678" y="388"/>
      <point x="711" y="322"/>
    </contour>
  </outline>
</glyph>
<glyph name="Scedilla" format="1">
  <advance width="540"/>
  <unicode hex="015E"/>
  <outline>
    <contour>
      <point x="399" y="-124" type="curve" smooth="yes"/>
      <point x="399" y="-81"/>
      <point x="373" y="-45"/>
      <point x="310" y="-45" type="curve" smooth="yes"/>
      <point x="302" y="-45" type="line"/>
      <point x="302" y="-8" type="line"/>
      <point x="420" y="4"/>
      <point x="500" y="71"/>
      <point x="500" y="186" type="curve" smooth="yes"/>
      <point x="500" y="340"/>
      <point x="367" y="360"/>
      <point x="282" y="379" type="curve" smooth="yes"/>
      <point x="214" y="395"/>
      <point x="147" y="412"/>
      <point x="147" y="485" type="curve" smooth="yes"/>
      <point x="147" y="548"/>
      <point x="197" y="580"/>
      <point x="271" y="580" type="curve" smooth="yes"/>
      <point x="307" y="580"/>
      <point x="348" y="574"/>
      <point x="387" y="552" type="curve"/>
      <point x="398" y="461" type="line"/>
      <point x="471" y="468" type="line"/>
      <point x="465" y="601" type="line"/>
      <point x="423" y="636"/>
      <point x="341" y="660"/>
      <point x="265" y="660" type="curve" smooth="yes"/>
      <point x="151" y="660"/>
      <point x="50" y="604"/>
      <point x="50" y="475" type="curve" smooth="yes"/>
      <point x="50" y="343"/>
      <point x="156" y="319"/>
      <point x="249" y="300" type="curve" smooth="yes"/>
      <point x="327" y="284"/>
      <point x="403" y="268"/>
      <point x="403" y="177" type="curve" smooth="yes"/>
      <point x="403" y="95"/>
      <point x="338" y="69"/>
      <point x="256" y="69" type="curve" smooth="yes"/>
      <point x="216" y="69"/>
      <point x="176" y="74"/>
      <point x="132" y="97" type="curve"/>
      <point x="134" y="178" type="line"/>
      <point x="61" y="185" type="line"/>
      <point x="46" y="47" type="line"/>
      <point x="87" y="15"/>
      <point x="161" y="-6"/>
      <point x="240" y="-9" type="curve"/>
      <point x="240" y="-82" type="line"/>
      <point x="271" y="-82" type="line" smooth="yes"/>
      <point x="303" y="-82"/>
      <point x="324" y="-90"/>
      <point x="324" y="-118" type="curve" smooth="yes"/>
      <point x="324" y="-143"/>
      <point x="307" y="-153"/>
      <point x="277" y="-153" type="curve" smooth="yes"/>
      <point x="244" y="-153"/>
      <point x="218" y="-141"/>
      <point x="202" y="-130" type="curve"/>
      <point x="183" y="-179" type="line"/>
      <point x="206" y="-199"/>
      <point x="244" y="-209"/>
      <point x="285" y="-209" type="curve" smooth="yes"/>
      <point x="345" y="-209"/>
      <point x="399" y="-186"/>
    </contour>
  </outline>
</glyph>
<glyph name="scedilla" format="1">
  <advance width="444"/>
  <unicode hex="015F"/>
  <outline>
    <contour>
      <point x="348" y="-124" type="curve" smooth="yes"/>
      <point x="348" y="-81"/>
      <point x="322" y="-45"/>
      <point x="259" y="-45" type="curve" smooth="yes"/>
      <point x="251" y="-45" type="line"/>
      <point x="251" y="-8" type="line"/>
      <point x="344" y="2"/>
      <point x="409" y="51"/>
      <point x="409" y="131" type="curve" smooth="yes"/>
      <point x="409" y="308"/>
      <point x="137" y="224"/>
      <point x="137" y="328" type="curve" smooth="yes"/>
      <point x="137" y="370"/>
      <point x="173" y="388"/>
      <point x="222" y="388" type="curve" smooth="yes"/>
      <point x="254" y="388"/>
      <point x="282" y="381"/>
      <point x="308" y="369" type="curve"/>
      <point x="318" y="299" type="line"/>
      <point x="388" y="307" type="line"/>
      <point x="378" y="415" type="line"/>
      <point x="334" y="439"/>
      <point x="279" y="456"/>
      <point x="218" y="456" type="curve" smooth="yes"/>
      <point x="134" y="456"/>
      <point x="44" y="423"/>
      <point x="44" y="323" type="curve" smooth="yes"/>
      <point x="44" y="149"/>
      <point x="321" y="234"/>
      <point x="321" y="125" type="curve" smooth="yes"/>
      <point x="321" y="80"/>
      <point x="267" y="59"/>
      <point x="209" y="59" type="curve" smooth="yes"/>
      <point x="179" y="59"/>
      <point x="146" y="64"/>
      <point x="119" y="77" type="curve"/>
      <point x="121" y="135" type="line"/>
      <point x="52" y="142" type="line"/>
      <point x="38" y="34" type="line"/>
      <point x="76" y="10"/>
      <point x="133" y="-5"/>
      <point x="189" y="-9" type="curve"/>
      <point x="189" y="-82" type="line"/>
      <point x="220" y="-82" type="line" smooth="yes"/>
      <point x="252" y="-82"/>
      <point x="273" y="-90"/>
      <point x="273" y="-118" type="curve" smooth="yes"/>
      <point x="273" y="-143"/>
      <point x="256" y="-153"/>
      <point x="226" y="-153" type="curve" smooth="yes"/>
      <point x="193" y="-153"/>
      <point x="167" y="-141"/>
      <point x="151" y="-130" type="curve"/>
      <point x="132" y="-179" type="line"/>
      <point x="155" y="-199"/>
      <point x="193" y="-209"/>
      <point x="234" y="-209" type="curve" smooth="yes"/>
      <point x="294" y="-209"/>
      <point x="348" y="-186"/>
    </contour>
  </outline>
</glyph>
<glyph name="Tcaron" format="1">
  <advance width="630"/>
  <unicode hex="0164"/>
  <outline>
    <contour>
      <point x="456" y="792" type="line"/>
      <point x="433" y="832" type="line"/>
      <point x="317" y="769" type="line"/>
      <point x="192" y="830" type="line"/>
      <point x="169" y="790" type="line"/>
      <point x="298" y="696" type="line"/>
      <point x="327" y="696" type="line"/>
    </contour>
    <contour>
      <point x="608" y="446" type="line"/>
      <point x="588" y="650" type="line"/>
      <point x="40" y="650" type="line"/>
      <point x="21" y="446" type="line"/>
      <point x="100" y="439" type="line"/>
      <point x="120" y="571" type="line"/>
      <point x="269" y="571" type="line"/>
      <point x="269" y="79" type="line"/>
      <point x="160" y="79" type="line"/>
      <point x="160" y="0" type="line"/>
      <point x="472" y="0" type="line"/>
      <point x="472" y="79" type="line"/>
      <point x="360" y="79" type="line"/>
      <point x="360" y="571" type="line"/>
      <point x="508" y="571" type="line"/>
      <point x="528" y="439" type="line"/>
    </contour>
  </outline>
</glyph>
<glyph name="Tbar" format="1">
  <advance width="631"/>
  <unicode hex="0166"/>
  <outline>
    <contour>
      <point x="609" y="446" type="line"/>
      <point x="589" y="650" type="line"/>
      <point x="41" y="650" type="line"/>
      <point x="22" y="446" type="line"/>
      <point x="101" y="439" type="line"/>
      <point x="121" y="571" type="line"/>
      <point x="270" y="571" type="line"/>
      <point x="270" y="331" type="line"/>
      <point x="127" y="331" type="line"/>
      <point x="127" y="272" type="line"/>
      <point x="270" y="272" type="line"/>
      <point x="270" y="79" type="line"/>
      <point x="161" y="79" type="line"/>
      <point x="161" y="0" type="line"/>
      <point x="473" y="0" type="line"/>
      <point x="473" y="79" type="line"/>
      <point x="361" y="79" type="line"/>
      <point x="361" y="272" type="line"/>
      <point x="503" y="272" type="line"/>
      <point x="503" y="331" type="line"/>
      <point x="361" y="331" type="line"/>
      <point x="361" y="571" type="line"/>
      <point x="509" y="571" type="line"/>
      <point x="529" y="439" type="line"/>
    </contour>
  </outline>
</glyph>
<glyph name="tbar" format="1">
  <advance width="381"/>
  <unicode hex="0167"/>
  <outline>
    <contour>
      <point x="21" y="225" type="line"/>
      <point x="84" y="225" type="line"/>
      <point x="84" y="132" type="line" smooth="yes"/>
      <point x="84" y="43"/>
      <point x="138" y="-10"/>
      <point x="230" y="-10" type="curve" smooth="yes"/>
      <point x="315" y="-10"/>
      <point x="367" y="35"/>
      <point x="380" y="126" type="curve"/>
      <point x="315" y="147" type="line"/>
      <point x="303" y="76"/>
      <point x="269" y="65"/>
      <point x="240" y="65" type="curve" smooth="yes"/>
      <point x="193" y="65"/>
      <point x="171" y="94"/>
      <point x="171" y="145" type="curve" smooth="yes"/>
      <point x="171" y="225" type="line"/>
      <point x="329" y="225" type="line"/>
      <point x="329" y="288" type="line"/>
      <point x="171" y="288" type="line"/>
      <point x="171" y="380" type="line"/>
      <point x="342" y="380" type="line"/>
      <point x="342" y="447" type="line"/>
      <point x="171" y="447" type="line"/>
      <point x="171" y="588" type="line"/>
      <point x="84" y="588" type="line"/>
      <point x="84" y="447" type="line"/>
      <point x="15" y="447" type="line"/>
      <point x="15" y="380" type="line"/>
      <point x="84" y="380" type="line"/>
      <point x="84" y="288" type="line"/>
      <point x="21" y="288" type="line"/>
    </contour>
  </outline>
</glyph>
<glyph name="utilde" format="1">
  <advance width="569"/>
  <unicode hex="0169"/>
  <outline>
    <contour>
      <point x="553" y="0" type="line"/>
      <point x="553" y="68" type="line"/>
      <point x="478" y="68" type="line"/>
      <point x="478" y="447" type="line"/>
      <point x="303" y="447" type="line"/>
      <point x="303" y="378" type="line"/>
      <point x="390" y="378" type="line"/>
      <point x="390" y="188" type="line"/>
      <point x="389" y="124"/>
      <point x="341" y="61"/>
      <point x="269" y="61" type="curve" smooth="yes"/>
      <point x="209" y="61"/>
      <point x="171" y="94"/>
      <point x="171" y="185" type="curve" smooth="yes"/>
      <point x="171" y="447" type="line"/>
      <point x="11" y="447" type="line"/>
      <point x="11" y="378" type="line"/>
      <point x="83" y="378" type="line"/>
      <point x="83" y="156" type="line" smooth="yes"/>
      <point x="83" y="41"/>
      <point x="152" y="-10"/>
      <point x="239" y="-10" type="curve" smooth="yes"/>
      <point x="308" y="-10"/>
      <point x="362" y="25"/>
      <point x="390" y="80" type="curve"/>
      <point x="390" y="0" type="line"/>
    </contour>
    <contour>
      <point x="420" y="646" type="curve"/>
      <point x="379" y="656" type="line"/>
      <point x="369" y="622"/>
      <point x="350" y="614"/>
      <point x="332" y="614" type="curve" smooth="yes"/>
      <point x="288" y="614"/>
      <point x="258" y="651"/>
      <point x="213" y="651" type="curve" smooth="yes"/>
      <point x="158" y="651"/>
      <point x="133" y="588"/>
      <point x="130" y="552" type="curve"/>
      <point x="169" y="539" type="line"/>
      <point x="178" y="570"/>
      <point x="197" y="582"/>
      <point x="218" y="582" type="curve" smooth="yes"/>
      <point x="256" y="582"/>
      <point x="290" y="543"/>
      <point x="341" y="543" type="curve" smooth="yes"/>
      <point x="393" y="543"/>
      <point x="414" y="591"/>
    </contour>
  </outline>
</glyph>
<glyph name="Uring" format="1">
  <advance width="718"/>
  <unicode hex="016E"/>
  <outline>
    <contour>
      <point x="684" y="571" type="line"/>
      <point x="684" y="650" type="line"/>
      <point x="449" y="650" type="line"/>
      <point x="449" y="571" type="line"/>
      <point x="536" y="571" type="line"/>
      <point x="536" y="267" type="line" smooth="yes"/>
      <point x="536" y="141"/>
      <point x="477" y="71"/>
      <point x="361" y="71" type="curve" smooth="yes"/>
      <point x="243" y="71"/>
      <point x="189" y="143"/>
      <point x="189" y="259" type="curve" smooth="yes"/>
      <point x="189" y="571" type="line"/>
      <point x="275" y="571" type="line"/>
      <point x="275" y="650" type="line"/>
      <point x="34" y="650" type="line"/>
      <point x="34" y="571" type="line"/>
      <point x="98" y="571" type="line"/>
      <point x="98" y="256" type="line" smooth="yes"/>
      <point x="98" y="116"/>
      <point x="162" y="-10"/>
      <point x="357" y="-10" type="curve" smooth="yes"/>
      <point x="559" y="-10"/>
      <point x="622" y="129"/>
      <point x="622" y="267" type="curve" smooth="yes"/>
      <point x="622" y="571" type="line"/>
    </contour>
    <contour>
      <point x="464" y="784" type="curve" smooth="yes"/>
      <point x="464" y="836"/>
      <point x="434" y="874"/>
      <point x="364" y="874" type="curve" smooth="yes"/>
      <point x="299" y="874"/>
      <point x="263" y="837"/>
      <point x="263" y="782" type="curve" smooth="yes"/>
      <point x="263" y="725"/>
      <point x="296" y="690"/>
      <point x="363" y="690" type="curve" smooth="yes"/>
      <point x="431" y="690"/>
      <point x="464" y="729"/>
    </contour>
    <contour>
      <point x="406" y="784" type="curve" smooth="yes"/>
      <point x="406" y="756"/>
      <point x="395" y="736"/>
      <point x="363" y="736" type="curve" smooth="yes"/>
      <point x="332" y="736"/>
      <point x="321" y="753"/>
      <point x="321" y="782" type="curve" smooth="yes"/>
      <point x="321" y="808"/>
      <point x="333" y="828"/>
      <point x="363" y="828" type="curve" smooth="yes"/>
      <point x="397" y="828"/>
      <point x="406" y="807"/>
    </contour>
  </outline>
</glyph>
<glyph name="uring" format="1">
  <advance width="569"/>
  <unicode hex="016F"/>
  <outline>
    <contour>
      <point x="369" y="607" type="curve" smooth="yes"/>
      <point x="369" y="660"/>
      <point x="339" y="698"/>
      <point x="269" y="698" type="curve" smooth="yes"/>
      <point x="204" y="698"/>
      <point x="168" y="660"/>
      <point x="168" y="606" type="curve" smooth="yes"/>
      <point x="168" y="549"/>
      <point x="201" y="514"/>
      <point x="268" y="514" type="curve" smooth="yes"/>
      <point x="336" y="514"/>
      <point x="369" y="553"/>
    </contour>
    <contour>
      <point x="311" y="609" type="curve" smooth="yes"/>
      <point x="311" y="580"/>
      <point x="300" y="560"/>
      <point x="268" y="560" type="curve" smooth="yes"/>
      <point x="237" y="560"/>
      <point x="226" y="577"/>
      <point x="226" y="606" type="curve" smooth="yes"/>
      <point x="226" y="632"/>
      <point x="238" y="652"/>
      <point x="268" y="652" type="curve" smooth="yes"/>
      <point x="302" y="652"/>
      <point x="311" y="631"/>
    </contour>
    <contour>
      <point x="553" y="0" type="line"/>
      <point x="553" y="68" type="line"/>
      <point x="478" y="68" type="line"/>
      <point x="478" y="447" type="line"/>
      <point x="303" y="447" type="line"/>
      <point x="303" y="378" type="line"/>
      <point x="390" y="378" type="line"/>
      <point x="390" y="188" type="line"/>
      <point x="389" y="124"/>
      <point x="341" y="61"/>
      <point x="269" y="61" type="curve" smooth="yes"/>
      <point x="209" y="61"/>
      <point x="171" y="94"/>
      <point x="171" y="185" type="curve" smooth="yes"/>
      <point x="171" y="447" type="line"/>
      <point x="11" y="447" type="line"/>
      <point x="11" y="378" type="line"/>
      <point x="83" y="378" type="line"/>
      <point x="83" y="156" type="line" smooth="yes"/>
      <point x="83" y="41"/>
      <point x="152" y="-10"/>
      <point x="239" y="-10" type="curve" smooth="yes"/>
      <point x="308" y="-10"/>
      <point x="362" y="25"/>
      <point x="390" y="80" type="curve"/>
      <point x="390" y="0" type="line"/>
    </contour>
  </outline>
</glyph>
<glyph name="Uogonek" format="1">
  <advance width="719"/>
  <unicode hex="0172"/>
  <outline>
    <contour>
      <point x="685" y="571" type="line"/>
      <point x="685" y="650" type="line"/>
      <point x="450" y="650" type="line"/>
      <point x="450" y="571" type="line"/>
      <point x="537" y="571" type="line"/>
      <point x="537" y="267" type="line" smooth="yes"/>
      <point x="537" y="141"/>
      <point x="478" y="71"/>
      <point x="362" y="71" type="curve" smooth="yes"/>
      <point x="244" y="71"/>
      <point x="190" y="143"/>
      <point x="190" y="259" type="curve" smooth="yes"/>
      <point x="190" y="571" type="line"/>
      <point x="276" y="571" type="line"/>
      <point x="276" y="650" type="line"/>
      <point x="35" y="650" type="line"/>
      <point x="35" y="571" type="line"/>
      <point x="99" y="571" type="line"/>
      <point x="99" y="256" type="line" smooth="yes"/>
      <point x="99" y="117"/>
      <point x="162" y="-7"/>
      <point x="352" y="-10" type="curve"/>
      <point x="319" y="-35"/>
      <point x="295" y="-73"/>
      <point x="295" y="-118" type="curve" smooth="yes"/>
      <point x="295" y="-177"/>
      <point x="340" y="-209"/>
      <point x="403" y="-209" type="curve" smooth="yes"/>
      <point x="436" y="-209"/>
      <point x="463" y="-200"/>
      <point x="486" y="-189" type="curve"/>
      <point x="477" y="-130" type="line"/>
      <point x="460" y="-140"/>
      <point x="442" y="-144"/>
      <point x="425" y="-144" type="curve" smooth="yes"/>
      <point x="394" y="-144"/>
      <point x="371" y="-131"/>
      <point x="371" y="-92" type="curve" smooth="yes"/>
      <point x="371" y="-63"/>
      <point x="383" y="-32"/>
      <point x="423" y="-4" type="curve"/>
      <point x="574" y="22"/>
      <point x="623" y="145"/>
      <point x="623" y="267" type="curve" smooth="yes"/>
      <point x="623" y="571" type="line"/>
    </contour>
  </outline>
</glyph>
<glyph name="uogonek" format="1">
  <advance width="569"/>
  <unicode hex="0173"/>
  <outline>
    <contour>
      <point x="553" y="0" type="line"/>
      <point x="553" y="68" type="line"/>
      <point x="478" y="68" type="line"/>
      <point x="478" y="447" type="line"/>
      <point x="303" y="447" type="line"/>
      <point x="303" y="378" type="line"/>
      <point x="390" y="378" type="line"/>
      <point x="390" y="188" type="line"/>
      <point x="389" y="124"/>
      <point x="341" y="61"/>
      <point x="269" y="61" type="curve" smooth="yes"/>
      <point x="209" y="61"/>
      <point x="171" y="94"/>
      <point x="171" y="185" type="curve" smooth="yes"/>
      <point x="171" y="447" type="line"/>
      <point x="11" y="447" type="line"/>
      <point x="11" y="378" type="line"/>
      <point x="83" y="378" type="line"/>
      <point x="83" y="156" type="line" smooth="yes"/>
      <point x="83" y="41"/>
      <point x="152" y="-10"/>
      <point x="239" y="-10" type="curve" smooth="yes"/>
      <point x="308" y="-10"/>
      <point x="362" y="25"/>
      <point x="390" y="80" type="curve"/>
      <point x="390" y="0" type="line"/>
      <point x="438" y="0" type="line"/>
      <point x="397" y="-25"/>
      <point x="366" y="-67"/>
      <point x="366" y="-118" type="curve" smooth="yes"/>
      <point x="366" y="-177"/>
      <point x="411" y="-209"/>
      <point x="474" y="-209" type="curve" smooth="yes"/>
      <point x="507" y="-209"/>
      <point x="534" y="-200"/>
      <point x="557" y="-189" type="curve"/>
      <point x="548" y="-130" type="line"/>
      <point x="531" y="-140"/>
      <point x="513" y="-144"/>
      <point x="496" y="-144" type="curve" smooth="yes"/>
      <point x="465" y="-144"/>
      <point x="442" y="-131"/>
      <point x="442" y="-92" type="curve" smooth="yes"/>
      <point x="442" y="-62"/>
      <point x="455" y="-28"/>
      <point x="501" y="0" type="curve"/>
    </contour>
  </outline>
</glyph>
<glyph name="Ycircumflex" format="1">
  <advance width="622"/>
  <unicode hex="0176"/>
  <outline>
    <contour>
      <point x="618" y="571" type="line"/>
      <point x="618" y="650" type="line"/>
      <point x="382" y="650" type="line"/>
      <point x="382" y="571" type="line"/>
      <point x="463" y="571" type="line"/>
      <point x="319" y="332" type="line"/>
      <point x="314" y="332" type="line"/>
      <point x="166" y="571" type="line"/>
      <point x="244" y="571" type="line"/>
      <point x="244" y="650" type="line"/>
      <point x="-2" y="650" type="line"/>
      <point x="-2" y="571" type="line"/>
      <point x="61" y="571" type="line"/>
      <point x="267" y="251" type="line"/>
      <point x="267" y="79" type="line"/>
      <point x="159" y="79" type="line"/>
      <point x="159" y="0" type="line"/>
      <point x="470" y="0" type="line"/>
      <point x="470" y="79" type="line"/>
      <point x="357" y="79" type="line"/>
      <point x="357" y="250" type="line"/>
      <point x="556" y="571" type="line"/>
    </contour>
    <contour>
      <point x="461" y="737" type="line"/>
      <point x="332" y="832" type="line"/>
      <point x="304" y="832" type="line"/>
      <point x="174" y="735" type="line"/>
      <point x="197" y="696" type="line"/>
      <point x="314" y="758" type="line"/>
      <point x="439" y="697" type="line"/>
    </contour>
  </outline>
</glyph>
<glyph name="Zcaron" format="1">
  <advance width="581"/>
  <unicode hex="017D"/>
  <outline>
    <contour>
      <point x="438" y="792" type="line"/>
      <point x="415" y="832" type="line"/>
      <point x="299" y="769" type="line"/>
      <point x="174" y="830" type="line"/>
      <point x="151" y="790" type="line"/>
      <point x="280" y="696" type="line"/>
      <point x="309" y="696" type="line"/>
    </contour>
    <contour>
      <point x="524" y="0" type="line"/>
      <point x="549" y="202" type="line"/>
      <point x="471" y="212" type="line"/>
      <point x="445" y="79" type="line"/>
      <point x="158" y="79" type="line"/>
      <point x="158" y="81" type="line"/>
      <point x="529" y="604" type="line"/>
      <point x="527" y="650" type="line"/>
      <point x="68" y="650" type="line"/>
      <point x="44" y="457" type="line"/>
      <point x="121" y="448" type="line"/>
      <point x="147" y="571" type="line"/>
      <point x="397" y="571" type="line"/>
      <point x="397" y="569" type="line"/>
      <point x="29" y="51" type="line"/>
      <point x="31" y="0" type="line"/>
    </contour>
  </outline>
</glyph>
<glyph name="florin" format="1">
  <advance width="381"/>
  <unicode hex="0192"/>
  <outline>
    <contour>
      <point x="47" y="277" type="line"/>
      <point x="123" y="277" type="line"/>
      <point x="129" y="381" type="line" smooth="yes"/>
      <point x="135" y="478"/>
      <point x="198" y="529"/>
      <point x="295" y="529" type="curve" smooth="yes"/>
      <point x="311" y="529"/>
      <point x="340" y="528"/>
      <point x="361" y="525" type="curve"/>
      <point x="361" y="463" type="line"/>
      <point x="336" y="466"/>
      <point x="315" y="469"/>
      <point x="297" y="469" type="curve" smooth="yes"/>
      <point x="239" y="469"/>
      <point x="219" y="444"/>
      <point x="215" y="379" type="curve" smooth="yes"/>
      <point x="209" y="277" type="line"/>
      <point x="321" y="277" type="line"/>
      <point x="321" y="222" type="line"/>
      <point x="206" y="222" type="line"/>
      <point x="195" y="18" type="line" smooth="yes"/>
      <point x="191" y="-47"/>
      <point x="165" y="-112"/>
      <point x="56" y="-112" type="curve" smooth="yes"/>
      <point x="45" y="-112"/>
      <point x="34" y="-111"/>
      <point x="12" y="-108" type="curve"/>
      <point x="12" y="-48" type="line"/>
      <point x="30" y="-52"/>
      <point x="42" y="-52"/>
      <point x="53" y="-52" type="curve" smooth="yes"/>
      <point x="92" y="-52"/>
      <point x="105" y="-36"/>
      <point x="109" y="33" type="curve" smooth="yes"/>
      <point x="120" y="222" type="line"/>
      <point x="47" y="222" type="line"/>
    </contour>
  </outline>
</glyph>
<glyph name="uni01C7" format="1">
  <advance width="1013"/>
  <unicode hex="01C7"/>
  <outline>
    <contour>
      <point x="978" y="571" type="line"/>
      <point x="978" y="650" type="line"/>
      <point x="694" y="650" type="line"/>
      <point x="694" y="571" type="line"/>
      <point x="818" y="571" type="line"/>
      <point x="818" y="171" type="line" smooth="yes"/>
      <point x="818" y="114"/>
      <point x="791" y="75"/>
      <point x="725" y="75" type="curve" smooth="yes"/>
      <point x="685" y="75"/>
      <point x="653" y="90"/>
      <point x="626" y="145" type="curve"/>
      <point x="561" y="96" type="line"/>
      <point x="589" y="35"/>
      <point x="640" y="-10"/>
      <point x="733" y="-10" type="curve" smooth="yes"/>
      <point x="842" y="-10"/>
      <point x="909" y="50"/>
      <point x="909" y="172" type="curve" smooth="yes"/>
      <point x="909" y="571" type="line"/>
    </contour>
    <contour>
      <point x="516" y="0" type="line"/>
      <point x="536" y="214" type="line"/>
      <point x="457" y="221" type="line"/>
      <point x="437" y="79" type="line"/>
      <point x="211" y="79" type="line"/>
      <point x="211" y="571" type="line"/>
      <point x="314" y="571" type="line"/>
      <point x="314" y="650" type="line"/>
      <point x="41" y="650" type="line"/>
      <point x="41" y="571" type="line"/>
      <point x="120" y="571" type="line"/>
      <point x="120" y="79" type="line"/>
      <point x="41" y="79" type="line"/>
      <point x="41" y="0" type="line"/>
    </contour>
  </outline>
</glyph>
<glyph name="uni01CA" format="1">
  <advance width="1199"/>
  <unicode hex="01CA"/>
  <outline>
    <contour>
      <point x="1164" y="571" type="line"/>
      <point x="1164" y="650" type="line"/>
      <point x="880" y="650" type="line"/>
      <point x="880" y="571" type="line"/>
      <point x="1004" y="571" type="line"/>
      <point x="1004" y="171" type="line" smooth="yes"/>
      <point x="1004" y="114"/>
      <point x="977" y="75"/>
      <point x="911" y="75" type="curve" smooth="yes"/>
      <point x="871" y="75"/>
      <point x="839" y="90"/>
      <point x="812" y="145" type="curve"/>
      <point x="747" y="96" type="line"/>
      <point x="775" y="35"/>
      <point x="826" y="-10"/>
      <point x="919" y="-10" type="curve" smooth="yes"/>
      <point x="1028" y="-10"/>
      <point x="1095" y="50"/>
      <point x="1095" y="172" type="curve" smooth="yes"/>
      <point x="1095" y="571" type="line"/>
    </contour>
    <contour>
      <point x="712" y="571" type="line"/>
      <point x="712" y="650" type="line"/>
      <point x="451" y="650" type="line"/>
      <point x="451" y="571" type="line"/>
      <point x="548" y="571" type="line"/>
      <point x="548" y="182" type="line"/>
      <point x="544" y="182" type="line"/>
      <point x="186" y="650" type="line"/>
      <point x="36" y="650" type="line"/>
      <point x="36" y="571" type="line"/>
      <point x="120" y="571" type="line"/>
      <point x="120" y="79" type="line"/>
      <point x="46" y="79" type="line"/>
      <point x="46" y="0" type="line"/>
      <point x="305" y="0" type="line"/>
      <point x="305" y="79" type="line"/>
      <point x="206" y="79" type="line"/>
      <point x="206" y="483" type="line"/>
      <point x="210" y="483" type="line"/>
      <point x="579" y="0" type="line"/>
      <point x="634" y="0" type="line"/>
      <point x="634" y="571" type="line"/>
    </contour>
  </outline>
</glyph>
<glyph name="AEmacron" format="1">
  <advance width="924"/>
  <unicode hex="01E2"/>
  <outline>
    <contour>
      <point x="806" y="729" type="line"/>
      <point x="806" y="798" type="line"/>
      <point x="519" y="798" type="line"/>
      <point x="519" y="729" type="line"/>
    </contour>
    <contour>
      <point x="862" y="0" type="line"/>
      <point x="881" y="186" type="line"/>
      <point x="803" y="193" type="line"/>
      <point x="783" y="79" type="line"/>
      <point x="544" y="79" type="line"/>
      <point x="544" y="290" type="line"/>
      <point x="841" y="290" type="line"/>
      <point x="841" y="368" type="line"/>
      <point x="544" y="368" type="line"/>
      <point x="544" y="571" type="line"/>
      <point x="775" y="571" type="line"/>
      <point x="795" y="457" type="line"/>
      <point x="873" y="465" type="line"/>
      <point x="854" y="650" type="line"/>
      <point x="214" y="650" type="line"/>
      <point x="214" y="571" type="line"/>
      <point x="307" y="571" type="line"/>
      <point x="61" y="79" type="line"/>
      <point x="-4" y="79" type="line"/>
      <point x="-4" y="0" type="line"/>
      <point x="233" y="0" type="line"/>
      <point x="233" y="79" type="line"/>
      <point x="153" y="79" type="line"/>
      <point x="206" y="187" type="line"/>
      <point x="453" y="187" type="line"/>
      <point x="453" y="79" type="line"/>
      <point x="375" y="79" type="line"/>
      <point x="375" y="0" type="line"/>
    </contour>
    <contour>
      <point x="453" y="255" type="line"/>
      <point x="238" y="255" type="line"/>
      <point x="392" y="571" type="line"/>
      <point x="453" y="571" type="line"/>
    </contour>
  </outline>
</glyph>
<glyph name="oslashacute" format="1">
  <advance width="518"/>
  <unicode hex="01FF"/>
  <outline>
    <contour>
      <point x="486" y="223" type="curve" smooth="yes"/>
      <point x="486" y="284"/>
      <point x="468" y="342"/>
      <point x="432" y="384" type="curve"/>
      <point x="486" y="447" type="line"/>
      <point x="417" y="447" type="line"/>
      <point x="392" y="418" type="line"/>
      <point x="358" y="442"/>
      <point x="314" y="456"/>
      <point x="260" y="456" type="curve" smooth="yes"/>
      <point x="111" y="456"/>
      <point x="33" y="349"/>
      <point x="33" y="219" type="curve" smooth="yes"/>
      <point x="33" y="155"/>
      <point x="52" y="101"/>
      <point x="85" y="61" type="curve"/>
      <point x="33" y="0" type="line"/>
      <point x="101" y="0" type="line"/>
      <point x="124" y="27" type="line"/>
      <point x="159" y="3"/>
      <point x="203" y="-10"/>
      <point x="255" y="-10" type="curve" smooth="yes"/>
      <point x="394" y="-10"/>
      <point x="486" y="85"/>
    </contour>
    <contour>
      <point x="391" y="226" type="curve" smooth="yes"/>
      <point x="391" y="131"/>
      <point x="343" y="65"/>
      <point x="258" y="65" type="curve" smooth="yes"/>
      <point x="225" y="65"/>
      <point x="199" y="74"/>
      <point x="179" y="91" type="curve"/>
      <point x="372" y="315" type="line"/>
      <point x="384" y="291"/>
      <point x="391" y="261"/>
    </contour>
    <contour>
      <point x="127" y="224" type="curve" smooth="yes"/>
      <point x="127" y="318"/>
      <point x="173" y="381"/>
      <point x="258" y="381" type="curve" smooth="yes"/>
      <point x="290" y="381"/>
      <point x="317" y="372"/>
      <point x="338" y="356" type="curve"/>
      <point x="146" y="132" type="line"/>
      <point x="133" y="158"/>
      <point x="127" y="189"/>
    </contour>
    <contour>
      <point x="439" y="617" type="line"/>
      <point x="391" y="688" type="line"/>
      <point x="235" y="553" type="line"/>
      <point x="260" y="516" type="line"/>
    </contour>
  </outline>
</glyph>
<glyph name="scommaaccent" format="1">
  <advance width="444"/>
  <unicode hex="0219"/>
  <outline>
    <contour>
      <point x="267" y="-62" type="line"/>
      <point x="184" y="-62" type="line"/>
      <point x="177" y="-216" type="line"/>
      <point x="246" y="-216" type="line"/>
    </contour>
    <contour>
      <point x="409" y="131" type="curve" smooth="yes"/>
      <point x="409" y="308"/>
      <point x="137" y="224"/>
      <point x="137" y="328" type="curve" smooth="yes"/>
      <point x="137" y="370"/>
      <point x="173" y="388"/>
      <point x="222" y="388" type="curve" smooth="yes"/>
      <point x="254" y="388"/>
      <point x="282" y="381"/>
      <point x="308" y="369" type="curve"/>
      <point x="318" y="299" type="line"/>
      <point x="388" y="307" type="line"/>
      <point x="378" y="415" type="line"/>
      <point x="334" y="439"/>
      <point x="279" y="456"/>
      <point x="218" y="456" type="curve" smooth="yes"/>
      <point x="134" y="456"/>
      <point x="44" y="423"/>
      <point x="44" y="323" type="curve" smooth="yes"/>
      <point x="44" y="149"/>
      <point x="321" y="234"/>
      <point x="321" y="125" type="curve" smooth="yes"/>
      <point x="321" y="80"/>
      <point x="267" y="59"/>
      <point x="209" y="59" type="curve" smooth="yes"/>
      <point x="179" y="59"/>
      <point x="146" y="64"/>
      <point x="119" y="77" type="curve"/>
      <point x="121" y="135" type="line"/>
      <point x="52" y="142" type="line"/>
      <point x="38" y="34" type="line"/>
      <point x="82" y="7"/>
      <point x="150" y="-10"/>
      <point x="213" y="-10" type="curve" smooth="yes"/>
      <point x="326" y="-10"/>
      <point x="409" y="41"/>
    </contour>
  </outline>
</glyph>
<glyph name="dotlessj" format="1">
  <advance width="255"/>
  <unicode hex="0237"/>
  <outline>
    <contour>
      <point x="9" y="447" type="line"/>
      <point x="187" y="447" type="line"/>
      <point x="187" y="-5" type="line" smooth="yes"/>
      <point x="187" y="-175"/>
      <point x="115" y="-235"/>
      <point x="-14" y="-223" type="curve"/>
      <point x="-17" y="-162" type="line"/>
      <point x="38" y="-162"/>
      <point x="99" y="-149"/>
      <point x="99" y="-5" type="curve" smooth="yes"/>
      <point x="99" y="378" type="line"/>
      <point x="9" y="378" type="line"/>
    </contour>
  </outline>
</glyph>
<glyph name="schwa" format="1">
  <advance width="474"/>
  <unicode hex="0259"/>
  <outline>
    <contour>
      <point x="30" y="314" type="curve"/>
      <point x="103" y="299" type="line"/>
      <point x="115" y="346"/>
      <point x="148" y="384"/>
      <point x="217" y="384" type="curve" smooth="yes"/>
      <point x="298" y="384"/>
      <point x="344" y="333"/>
      <point x="348" y="242" type="curve"/>
      <point x="40" y="242" type="line"/>
      <point x="36" y="222"/>
      <point x="34" y="203"/>
      <point x="34" y="185" type="curve" smooth="yes"/>
      <point x="35" y="77"/>
      <point x="107" y="-10"/>
      <point x="229" y="-10" type="curve" smooth="yes"/>
      <point x="361" y="-10"/>
      <point x="440" y="91"/>
      <point x="440" y="230" type="curve" smooth="yes"/>
      <point x="440" y="376"/>
      <point x="352" y="456"/>
      <point x="223" y="456" type="curve" smooth="yes"/>
      <point x="108" y="456"/>
      <point x="40" y="391"/>
    </contour>
    <contour>
      <point x="125" y="183" type="curve"/>
      <point x="347" y="183" type="line"/>
      <point x="339" y="114"/>
      <point x="304" y="58"/>
      <point x="231" y="58" type="curve" smooth="yes"/>
      <point x="152" y="58"/>
      <point x="119" y="124"/>
    </contour>
  </outline>
</glyph>
<glyph name="circumflex" format="1">
  <advance width="338"/>
  <unicode hex="02C6"/>
  <outline>
    <contour>
      <point x="333" y="554" type="line"/>
      <point x="208" y="674" type="line"/>
      <point x="179" y="674" type="line"/>
      <point x="54" y="553" type="line"/>
      <point x="82" y="515" type="line"/>
      <point x="186" y="595" type="line"/>
      <point x="305" y="516" type="line"/>
    </contour>
  </outline>
</glyph>
<glyph name="dotaccent" format="1">
  <advance width="215"/>
  <unicode hex="02D9"/>
  <outline>
    <contour>
      <point x="57" y="547" type="line"/>
      <point x="149" y="547" type="line"/>
      <point x="149" y="650" type="line"/>
      <point x="57" y="650" type="line"/>
    </contour>
  </outline>
</glyph>
<glyph name="ring" format="1">
  <advance width="260"/>
  <unicode hex="02DA"/>
  <outline>
    <contour>
      <point x="231" y="607" type="curve" smooth="yes"/>
      <point x="231" y="660"/>
      <point x="201" y="698"/>
      <point x="131" y="698" type="curve" smooth="yes"/>
      <point x="66" y="698"/>
      <point x="30" y="660"/>
      <point x="30" y="606" type="curve" smooth="yes"/>
      <point x="30" y="549"/>
      <point x="63" y="514"/>
      <point x="130" y="514" type="curve" smooth="yes"/>
      <point x="198" y="514"/>
      <point x="231" y="553"/>
    </contour>
    <contour>
      <point x="173" y="609" type="curve" smooth="yes"/>
      <point x="173" y="580"/>
      <point x="162" y="560"/>
      <point x="130" y="560" type="curve" smooth="yes"/>
      <point x="99" y="560"/>
      <point x="88" y="577"/>
      <point x="88" y="606" type="curve" smooth="yes"/>
      <point x="88" y="632"/>
      <point x="100" y="652"/>
      <point x="130" y="652" type="curve" smooth="yes"/>
      <point x="164" y="652"/>
      <point x="173" y="631"/>
    </contour>
  </outline>
</glyph>
<glyph name="ogonek" format="1">
  <advance width="280"/>
  <unicode hex="02DB"/>
  <outline>
    <contour>
      <point x="231" y="-189" type="curve"/>
      <point x="222" y="-130" type="line"/>
      <point x="205" y="-140"/>
      <point x="187" y="-144"/>
      <point x="170" y="-144" type="curve" smooth="yes"/>
      <point x="139" y="-144"/>
      <point x="116" y="-131"/>
      <point x="116" y="-92" type="curve" smooth="yes"/>
      <point x="116" y="-59"/>
      <point x="132" y="-22"/>
      <point x="189" y="8" type="curve"/>
      <point x="136" y="12" type="line"/>
      <point x="84" y="-10"/>
      <point x="40" y="-58"/>
      <point x="40" y="-118" type="curve" smooth="yes"/>
      <point x="40" y="-177"/>
      <point x="85" y="-209"/>
      <point x="148" y="-209" type="curve" smooth="yes"/>
      <point x="181" y="-209"/>
      <point x="208" y="-200"/>
    </contour>
  </outline>
</glyph>
<glyph name="pi" format="1">
  <advance width="588"/>
  <unicode hex="03C0"/>
  <outline>
    <contour>
      <point x="31" y="69" type="line"/>
      <point x="103" y="69" type="line"/>
      <point x="103" y="378" type="line"/>
      <point x="28" y="378" type="line"/>
      <point x="28" y="447" type="line"/>
      <point x="561" y="447" type="line"/>
      <point x="561" y="378" type="line"/>
      <point x="485" y="378" type="line"/>
      <point x="485" y="69" type="line"/>
      <point x="557" y="69" type="line"/>
      <point x="557" y="0" type="line"/>
      <point x="324" y="0" type="line"/>
      <point x="324" y="69" type="line"/>
      <point x="397" y="69" type="line"/>
      <point x="397" y="378" type="line"/>
      <point x="190" y="378" type="line"/>
      <point x="190" y="69" type="line"/>
      <point x="263" y="69" type="line"/>
      <point x="263" y="0" type="line"/>
      <point x="31" y="0" type="line"/>
    </contour>
  </outline>
</glyph>
<glyph name="wgrave" format="1">
  <advance width="764"/>
  <unicode hex="1E81"/>
  <outline>
    <contour>
      <point x="755" y="378" type="line"/>
      <point x="755" y="447" type="line"/>
      <point x="550" y="447" type="line"/>
      <point x="550" y="378" type="line"/>
      <point x="625" y="378" type="line"/>
      <point x="556" y="129" type="line"/>
      <point x="550" y="129" type="line"/>
      <point x="416" y="447" type="line"/>
      <point x="360" y="447" type="line"/>
      <point x="236" y="128" type="line"/>
      <point x="231" y="128" type="line"/>
      <point x="149" y="378" type="line"/>
      <point x="227" y="378" type="line"/>
      <point x="227" y="447" type="line"/>
      <point x="9" y="447" type="line"/>
      <point x="9" y="378" type="line"/>
      <point x="55" y="378" type="line"/>
      <point x="188" y="0" type="line"/>
      <point x="251" y="0" type="line"/>
      <point x="377" y="319" type="line"/>
      <point x="382" y="319" type="line"/>
      <point x="512" y="0" type="line"/>
      <point x="578" y="0" type="line"/>
      <point x="707" y="378" type="line"/>
    </contour>
    <contour>
      <point x="430" y="553" type="line"/>
      <point x="274" y="688" type="line"/>
      <point x="226" y="617" type="line"/>
      <point x="405" y="516" type="line"/>
    </contour>
  </outline>
</glyph>
<glyph name="Wdieresis" format="1">
  <advance width="950"/>
  <unicode hex="1E84"/>
  <outline>
    <contour>
      <point x="347" y="715" type="line"/>
      <point x="442" y="715" type="line"/>
      <point x="442" y="813" type="line"/>
      <point x="347" y="813" type="line"/>
    </contour>
    <contour>
      <point x="522" y="715" type="line"/>
      <point x="617" y="715" type="line"/>
      <point x="617" y="813" type="line"/>
      <point x="522" y="813" type="line"/>
    </contour>
    <contour>
      <point x="943" y="571" type="line"/>
      <point x="943" y="650" type="line"/>
      <point x="710" y="650" type="line"/>
      <point x="710" y="571" type="line"/>
      <point x="798" y="571" type="line"/>
      <point x="683" y="145" type="line"/>
      <point x="678" y="145" type="line"/>
      <point x="538" y="571" type="line"/>
      <point x="597" y="571" type="line"/>
      <point x="597" y="650" type="line"/>
      <point x="363" y="650" type="line"/>
      <point x="363" y="571" type="line"/>
      <point x="424" y="571" type="line"/>
      <point x="284" y="149" type="line"/>
      <point x="279" y="149" type="line"/>
      <point x="154" y="571" type="line"/>
      <point x="236" y="571" type="line"/>
      <point x="236" y="650" type="line"/>
      <point x="1" y="650" type="line"/>
      <point x="1" y="571" type="line"/>
      <point x="57" y="571" type="line"/>
      <point x="243" y="0" type="line"/>
      <point x="314" y="0" type="line"/>
      <point x="474" y="491" type="line"/>
      <point x="478" y="491" type="line"/>
      <point x="644" y="0" type="line"/>
      <point x="714" y="0" type="line"/>
      <point x="889" y="571" type="line"/>
    </contour>
  </outline>
</glyph>
<glyph name="uni1EBC" format="1">
  <advance width="590"/>
  <unicode hex="1EBC"/>
  <outline>
    <contour>
      <point x="471" y="804" type="curve"/>
      <point x="430" y="814" type="line"/>
      <point x="419" y="780"/>
      <point x="401" y="773"/>
      <point x="383" y="773" type="curve" smooth="yes"/>
      <point x="339" y="773"/>
      <point x="309" y="807"/>
      <point x="265" y="807" type="curve" smooth="yes"/>
      <point x="209" y="807"/>
      <point x="184" y="752"/>
      <point x="182" y="717" type="curve"/>
      <point x="220" y="703" type="line"/>
      <point x="229" y="733"/>
      <point x="247" y="741"/>
      <point x="267" y="741" type="curve" smooth="yes"/>
      <point x="308" y="741"/>
      <point x="341" y="707"/>
      <point x="391" y="707" type="curve" smooth="yes"/>
      <point x="445" y="707"/>
      <point x="464" y="749"/>
    </contour>
    <contour>
      <point x="530" y="0" type="line"/>
      <point x="550" y="186" type="line"/>
      <point x="472" y="193" type="line"/>
      <point x="452" y="79" type="line"/>
      <point x="211" y="79" type="line"/>
      <point x="211" y="290" type="line"/>
      <point x="507" y="290" type="line"/>
      <point x="507" y="368" type="line"/>
      <point x="211" y="368" type="line"/>
      <point x="211" y="571" type="line"/>
      <point x="443" y="571" type="line"/>
      <point x="463" y="457" type="line"/>
      <point x="542" y="464" type="line"/>
      <point x="522" y="650" type="line"/>
      <point x="41" y="650" type="line"/>
      <point x="41" y="571" type="line"/>
      <point x="120" y="571" type="line"/>
      <point x="120" y="79" type="line"/>
      <point x="41" y="79" type="line"/>
      <point x="41" y="0" type="line"/>
    </contour>
  </outline>
</glyph>
<glyph name="uni1EBD" format="1">
  <advance width="474"/>
  <unicode hex="1EBD"/>
  <outline>
    <contour>
      <point x="443" y="132" type="curve"/>
      <point x="370" y="147" type="line"/>
      <point x="358" y="100"/>
      <point x="325" y="62"/>
      <point x="256" y="62" type="curve" smooth="yes"/>
      <point x="175" y="62"/>
      <point x="129" y="113"/>
      <point x="125" y="204" type="curve"/>
      <point x="433" y="204" type="line"/>
      <point x="437" y="224"/>
      <point x="439" y="243"/>
      <point x="439" y="261" type="curve" smooth="yes"/>
      <point x="438" y="369"/>
      <point x="366" y="456"/>
      <point x="244" y="456" type="curve" smooth="yes"/>
      <point x="112" y="456"/>
      <point x="33" y="355"/>
      <point x="33" y="216" type="curve" smooth="yes"/>
      <point x="33" y="70"/>
      <point x="121" y="-10"/>
      <point x="250" y="-10" type="curve" smooth="yes"/>
      <point x="365" y="-10"/>
      <point x="433" y="55"/>
    </contour>
    <contour>
      <point x="348" y="263" type="curve"/>
      <point x="126" y="263" type="line"/>
      <point x="134" y="332"/>
      <point x="169" y="388"/>
      <point x="242" y="388" type="curve" smooth="yes"/>
      <point x="321" y="388"/>
      <point x="354" y="322"/>
    </contour>
    <contour>
      <point x="386" y="646" type="curve"/>
      <point x="345" y="656" type="line"/>
      <point x="335" y="622"/>
      <point x="316" y="614"/>
      <point x="298" y="614" type="curve" smooth="yes"/>
      <point x="254" y="614"/>
      <point x="224" y="651"/>
      <point x="179" y="651" type="curve" smooth="yes"/>
      <point x="124" y="651"/>
      <point x="99" y="588"/>
      <point x="96" y="552" type="curve"/>
      <point x="135" y="539" type="line"/>
      <point x="144" y="570"/>
      <point x="163" y="582"/>
      <point x="184" y="582" type="curve" smooth="yes"/>
      <point x="222" y="582"/>
      <point x="256" y="543"/>
      <point x="307" y="543" type="curve" smooth="yes"/>
      <point x="359" y="543"/>
      <point x="380" y="591"/>
    </contour>
  </outline>
</glyph>
<glyph name="uni2012" format="1">
  <advance width="347"/>
  <unicode hex="2012"/>
  <outline>
    <contour>
      <point x="347" y="288" type="line"/>
      <point x="0" y="288" type="line"/>
      <point x="0" y="214" type="line"/>
      <point x="347" y="214" type="line"/>
    </contour>
  </outline>
</glyph>
<glyph name="endash" format="1">
  <advance width="614"/>
  <unicode hex="2013"/>
  <outline>
    <contour>
      <point x="56" y="263" type="line"/>
      <point x="558" y="263" type="line"/>
      <point x="558" y="202" type="line"/>
      <point x="56" y="202" type="line"/>
    </contour>
  </outline>
</glyph>
<glyph name="emdash" format="1">
  <advance width="1064"/>
  <unicode hex="2014"/>
  <outline>
    <contour>
      <point x="65" y="263" type="line"/>
      <point x="1005" y="263" type="line"/>
      <point x="1005" y="202" type="line"/>
      <point x="65" y="202" type="line"/>
    </contour>
  </outline>
</glyph>
<glyph name="quoteright" format="1">
  <advance width="207"/>
  <unicode hex="2019"/>
  <outline>
    <contour>
      <point x="38" y="484" type="line"/>
      <point x="123" y="484" type="line"/>
      <point x="178" y="705" type="line"/>
      <point x="93" y="705" type="line"/>
    </contour>
  </outline>
</glyph>
<glyph name="quotesinglbase" format="1">
  <advance width="207"/>
  <unicode hex="201A"/>
  <outline>
    <contour>
      <point x="18" y="-97" type="line"/>
      <point x="103" y="-97" type="line"/>
      <point x="158" y="124" type="line"/>
      <point x="73" y="124" type="line"/>
    </contour>
  </outline>
</glyph>
<glyph name="quotedblbase" format="1">
  <advance width="376"/>
  <unicode hex="201E"/>
  <outline>
    <contour>
      <point x="18" y="-97" type="line"/>
      <point x="103" y="-97" type="line"/>
      <point x="158" y="124" type="line"/>
      <point x="73" y="124" type="line"/>
    </contour>
    <contour>
      <point x="188" y="-97" type="line"/>
      <point x="273" y="-97" type="line"/>
      <point x="328" y="124" type="line"/>
      <point x="243" y="124" type="line"/>
    </contour>
  </outline>
</glyph>
<glyph name="dagger" format="1">
  <advance width="465"/>
  <unicode hex="2020"/>
  <outline>
    <contour>
      <point x="28" y="432" type="line"/>
      <point x="194" y="432" type="line"/>
      <point x="194" y="650" type="line"/>
      <point x="271" y="650" type="line"/>
      <point x="271" y="432" type="line"/>
      <point x="438" y="432" type="line"/>
      <point x="438" y="356" type="line"/>
      <point x="271" y="356" type="line"/>
      <point x="271" y="-141" type="line"/>
      <point x="194" y="-141" type="line"/>
      <point x="194" y="356" type="line"/>
      <point x="28" y="356" type="line"/>
    </contour>
  </outline>
</glyph>
<glyph name="daggerdbl" format="1">
  <advance width="504"/>
  <unicode hex="2021"/>
  <outline>
    <contour>
      <point x="47" y="131" type="line"/>
      <point x="213" y="131" type="line"/>
      <point x="213" y="356" type="line"/>
      <point x="47" y="356" type="line"/>
      <point x="47" y="432" type="line"/>
      <point x="213" y="432" type="line"/>
      <point x="213" y="650" type="line"/>
      <point x="290" y="650" type="line"/>
      <point x="290" y="432" type="line"/>
      <point x="457" y="432" type="line"/>
      <point x="457" y="356" type="line"/>
      <point x="290" y="356" type="line"/>
      <point x="290" y="131" type="line"/>
      <point x="457" y="131" type="line"/>
      <point x="457" y="55" type="line"/>
      <point x="290" y="55" type="line"/>
      <point x="290" y="-141" type="line"/>
      <point x="213" y="-141" type="line"/>
      <point x="213" y="55" type="line"/>
      <point x="47" y="55" type="line"/>
    </contour>
  </outline>
</glyph>
<glyph name="bullet" format="1">
  <advance width="355"/>
  <unicode hex="2022"/>
  <outline>
    <contour>
      <point x="63" y="243" type="curve" smooth="yes"/>
      <point x="63" y="179"/>
      <point x="113" y="129"/>
      <point x="177" y="129" type="curve" smooth="yes"/>
      <point x="242" y="129"/>
      <point x="292" y="179"/>
      <point x="292" y="243" type="curve" smooth="yes"/>
      <point x="292" y="307"/>
      <point x="242" y="359"/>
      <point x="177" y="359" type="curve" smooth="yes"/>
      <point x="113" y="359"/>
      <point x="63" y="307"/>
    </contour>
  </outline>
</glyph>
<glyph name="guilsinglleft" format="1">
  <advance width="291"/>
  <unicode hex="2039"/>
  <outline>
    <contour>
      <point x="248" y="25" type="line"/>
      <point x="123" y="271" type="line"/>
      <point x="248" y="511" type="line"/>
      <point x="174" y="511" type="line"/>
      <point x="36" y="271" type="line"/>
      <point x="174" y="25" type="line"/>
    </contour>
  </outline>
</glyph>
<glyph name="guilsinglright" format="1">
  <advance width="291"/>
  <unicode hex="203A"/>
  <outline>
    <contour>
      <point x="117" y="25" type="line"/>
      <point x="255" y="271" type="line"/>
      <point x="117" y="511" type="line"/>
      <point x="43" y="511" type="line"/>
      <point x="168" y="271" type="line"/>
      <point x="43" y="25" type="line"/>
    </contour>
  </outline>
</glyph>
<glyph name="uni203D" format="1">
  <advance width="668"/>
  <unicode hex="203D"/>
  <outline>
    <contour>
      <point x="264" y="215" type="line"/>
      <point x="122" y="641" type="line"/>
      <point x="28" y="599" type="line"/>
      <point x="204" y="189" type="line"/>
    </contour>
    <contour>
      <point x="226" y="0" type="line"/>
      <point x="333" y="0" type="line"/>
      <point x="333" y="111" type="line"/>
      <point x="226" y="111" type="line"/>
    </contour>
    <contour>
      <point x="318" y="465" type="line"/>
      <point x="347" y="557" type="line"/>
      <point x="366" y="570"/>
      <point x="388" y="577"/>
      <point x="412" y="577" type="curve" smooth="yes"/>
      <point x="457" y="577"/>
      <point x="536" y="553"/>
      <point x="536" y="487" type="curve" smooth="yes"/>
      <point x="536" y="372"/>
      <point x="294" y="386"/>
      <point x="286" y="218" type="curve"/>
      <point x="346" y="199" type="line"/>
      <point x="367" y="348"/>
      <point x="637" y="327"/>
      <point x="637" y="494" type="curve" smooth="yes"/>
      <point x="637" y="597"/>
      <point x="533" y="650"/>
      <point x="424" y="650" type="curve" smooth="yes"/>
      <point x="369" y="650"/>
      <point x="313" y="632"/>
      <point x="279" y="608" type="curve"/>
      <point x="251" y="482" type="line"/>
    </contour>
  </outline>
</glyph>
<glyph name="zerosuperior" format="1">
  <advance width="382"/>
  <unicode hex="2070"/>
  <outline>
    <contour>
      <point x="35" y="593" type="curve" smooth="yes"/>
      <point x="35" y="688"/>
      <point x="67" y="785"/>
      <point x="192" y="785" type="curve" smooth="yes"/>
      <point x="317" y="785"/>
      <point x="347" y="685"/>
      <point x="347" y="598" type="curve" smooth="yes"/>
      <point x="347" y="492"/>
      <point x="305" y="409"/>
      <point x="189" y="409" type="curve" smooth="yes"/>
      <point x="72" y="409"/>
      <point x="35" y="492"/>
    </contour>
    <contour>
      <point x="111" y="599" type="curve" smooth="yes"/>
      <point x="111" y="525"/>
      <point x="125" y="465"/>
      <point x="190" y="465" type="curve" smooth="yes"/>
      <point x="253" y="465"/>
      <point x="271" y="521"/>
      <point x="271" y="601" type="curve" smooth="yes"/>
      <point x="271" y="671"/>
      <point x="258" y="729"/>
      <point x="191" y="729" type="curve" smooth="yes"/>
      <point x="125" y="729"/>
      <point x="111" y="670"/>
    </contour>
  </outline>
</glyph>
<glyph name="foursuperior" format="1">
  <advance width="360"/>
  <unicode hex="2074"/>
  <outline>
    <contour>
      <point x="202" y="414" type="line"/>
      <point x="273" y="414" type="line"/>
      <point x="273" y="497" type="line"/>
      <point x="328" y="497" type="line"/>
      <point x="333" y="551" type="line"/>
      <point x="273" y="551" type="line"/>
      <point x="273" y="779" type="line"/>
      <point x="143" y="779" type="line"/>
      <point x="20" y="549" type="line"/>
      <point x="27" y="497" type="line"/>
      <point x="202" y="497" type="line"/>
    </contour>
    <contour>
      <point x="179" y="725" type="line"/>
      <point x="202" y="725" type="line"/>
      <point x="202" y="551" type="line"/>
      <point x="83" y="551" type="line"/>
    </contour>
  </outline>
</glyph>
<glyph name="fivesuperior" format="1">
  <advance width="336"/>
  <unicode hex="2075"/>
  <outline>
    <contour>
      <point x="308" y="526" type="curve" smooth="yes"/>
      <point x="308" y="620"/>
      <point x="230" y="641"/>
      <point x="146" y="641" type="curve" smooth="yes"/>
      <point x="122" y="641" type="line"/>
      <point x="122" y="725" type="line"/>
      <point x="228" y="725" type="line"/>
      <point x="234" y="678" type="line"/>
      <point x="291" y="684" type="line"/>
      <point x="285" y="779" type="line"/>
      <point x="284" y="778" type="line"/>
      <point x="284" y="779" type="line"/>
      <point x="55" y="779" type="line"/>
      <point x="55" y="607" type="line"/>
      <point x="79" y="588" type="line"/>
      <point x="96" y="589"/>
      <point x="115" y="591"/>
      <point x="135" y="591" type="curve" smooth="yes"/>
      <point x="185" y="591"/>
      <point x="232" y="581"/>
      <point x="232" y="526" type="curve" smooth="yes"/>
      <point x="232" y="489"/>
      <point x="206" y="463"/>
      <point x="160" y="463" type="curve" smooth="yes"/>
      <point x="113" y="463"/>
      <point x="92" y="490"/>
      <point x="83" y="521" type="curve"/>
      <point x="32" y="506" type="line"/>
      <point x="42" y="442"/>
      <point x="91" y="408"/>
      <point x="160" y="408" type="curve" smooth="yes"/>
      <point x="243" y="408"/>
      <point x="308" y="446"/>
    </contour>
  </outline>
</glyph>
<glyph name="sevensuperior" format="1">
  <advance width="311"/>
  <unicode hex="2077"/>
  <outline>
    <contour>
      <point x="26" y="779" type="line"/>
      <point x="26" y="664" type="line"/>
      <point x="88" y="664" type="line"/>
      <point x="88" y="726" type="line"/>
      <point x="222" y="726" type="line"/>
      <point x="88" y="415" type="line"/>
      <point x="158" y="415" type="line"/>
      <point x="298" y="748" type="line"/>
      <point x="290" y="779" type="line"/>
    </contour>
  </outline>
</glyph>
<glyph name="ninesuperior" format="1">
  <advance width="348"/>
  <unicode hex="2079"/>
  <outline>
    <contour>
      <point x="154" y="463" type="curve" smooth="yes"/>
      <point x="137" y="463"/>
      <point x="109" y="468"/>
      <point x="83" y="498" type="curve"/>
      <point x="45" y="458" type="line"/>
      <point x="80" y="421"/>
      <point x="123" y="409"/>
      <point x="162" y="409" type="curve" smooth="yes"/>
      <point x="266" y="409"/>
      <point x="312" y="492"/>
      <point x="312" y="606" type="curve" smooth="yes"/>
      <point x="312" y="710"/>
      <point x="273" y="785"/>
      <point x="171" y="785" type="curve" smooth="yes"/>
      <point x="85" y="785"/>
      <point x="35" y="731"/>
      <point x="35" y="659" type="curve" smooth="yes"/>
      <point x="35" y="604"/>
      <point x="64" y="547"/>
      <point x="144" y="547" type="curve" smooth="yes"/>
      <point x="196" y="547"/>
      <point x="224" y="570"/>
      <point x="237" y="597" type="curve"/>
      <point x="235" y="498"/>
      <point x="213" y="463"/>
    </contour>
    <contour>
      <point x="166" y="599" type="curve" smooth="yes"/>
      <point x="124" y="599"/>
      <point x="108" y="623"/>
      <point x="108" y="662" type="curve" smooth="yes"/>
      <point x="108" y="703"/>
      <point x="125" y="729"/>
      <point x="169" y="729" type="curve" smooth="yes"/>
      <point x="214" y="729"/>
      <point x="230" y="703"/>
      <point x="235" y="657" type="curve"/>
      <point x="233" y="628"/>
      <point x="214" y="599"/>
    </contour>
  </outline>
</glyph>
<glyph name="minussuperior" format="1">
  <advance width="322"/>
  <unicode hex="207B"/>
  <outline>
    <contour>
      <point x="45" y="575" type="line"/>
      <point x="277" y="575" type="line"/>
      <point x="277" y="620" type="line"/>
      <point x="45" y="620" type="line"/>
    </contour>
  </outline>
</glyph>
<glyph name="equalsuperior" format="1">
  <advance width="389"/>
  <unicode hex="207C"/>
  <outline>
    <contour>
      <point x="47" y="640" type="line"/>
      <point x="341" y="640" type="line"/>
      <point x="341" y="687" type="line"/>
      <point x="47" y="687" type="line"/>
    </contour>
    <contour>
      <point x="47" y="508" type="line"/>
      <point x="341" y="508" type="line"/>
      <point x="341" y="554" type="line"/>
      <point x="47" y="554" type="line"/>
    </contour>
  </outline>
</glyph>
<glyph name="n.superior" format="1">
  <advance width="411"/>
  <unicode hex="207F"/>
  <outline>
    <contour>
      <point x="233" y="465" type="line"/>
      <point x="278" y="465" type="line"/>
      <point x="278" y="583" type="line" smooth="yes"/>
      <point x="278" y="640"/>
      <point x="256" y="662"/>
      <point x="219" y="662" type="curve" smooth="yes"/>
      <point x="174" y="662"/>
      <point x="146" y="631"/>
      <point x="144" y="591" type="curve"/>
      <point x="144" y="465" type="line"/>
      <point x="189" y="465" type="line"/>
      <point x="189" y="415" type="line"/>
      <point x="29" y="415" type="line"/>
      <point x="29" y="465" type="line"/>
      <point x="74" y="465" type="line"/>
      <point x="74" y="656" type="line"/>
      <point x="26" y="656" type="line"/>
      <point x="26" y="706" type="line"/>
      <point x="144" y="706" type="line"/>
      <point x="144" y="657" type="line"/>
      <point x="163" y="691"/>
      <point x="198" y="712"/>
      <point x="244" y="712" type="curve" smooth="yes"/>
      <point x="301" y="712"/>
      <point x="349" y="680"/>
      <point x="349" y="606" type="curve" smooth="yes"/>
      <point x="349" y="465" type="line"/>
      <point x="393" y="465" type="line"/>
      <point x="393" y="415" type="line"/>
      <point x="233" y="415" type="line"/>
    </contour>
  </outline>
</glyph>
<glyph name="zeroinferior" format="1">
  <advance width="382"/>
  <unicode hex="2080"/>
  <outline>
    <contour>
      <point x="35" y="178" type="curve" smooth="yes"/>
      <point x="35" y="273"/>
      <point x="67" y="370"/>
      <point x="192" y="370" type="curve" smooth="yes"/>
      <point x="317" y="370"/>
      <point x="347" y="270"/>
      <point x="347" y="183" type="curve" smooth="yes"/>
      <point x="347" y="77"/>
      <point x="305" y="-6"/>
      <point x="189" y="-6" type="curve" smooth="yes"/>
      <point x="72" y="-6"/>
      <point x="35" y="77"/>
    </contour>
    <contour>
      <point x="111" y="184" type="curve" smooth="yes"/>
      <point x="111" y="110"/>
      <point x="125" y="50"/>
      <point x="190" y="50" type="curve" smooth="yes"/>
      <point x="253" y="50"/>
      <point x="271" y="106"/>
      <point x="271" y="186" type="curve" smooth="yes"/>
      <point x="271" y="256"/>
      <point x="258" y="314"/>
      <point x="191" y="314" type="curve" smooth="yes"/>
      <point x="125" y="314"/>
      <point x="111" y="255"/>
    </contour>
  </outline>
</glyph>
<glyph name="oneinferior" format="1">
  <advance width="266"/>
  <unicode hex="2081"/>
  <outline>
    <contour>
      <point x="33" y="54" type="line"/>
      <point x="108" y="54" type="line"/>
      <point x="108" y="310" type="line"/>
      <point x="33" y="310" type="line"/>
      <point x="33" y="364" type="line"/>
      <point x="178" y="364" type="line"/>
      <point x="178" y="54" type="line"/>
      <point x="248" y="54" type="line"/>
      <point x="248" y="0" type="line"/>
      <point x="33" y="0" type="line"/>
    </contour>
  </outline>
</glyph>
<glyph name="twoinferior" format="1">
  <advance width="353"/>
  <unicode hex="2082"/>
  <outline>
    <contour>
      <point x="94" y="248" type="line"/>
      <point x="106" y="301" type="line"/>
      <point x="123" y="312"/>
      <point x="140" y="316"/>
      <point x="160" y="316" type="curve" smooth="yes"/>
      <point x="204" y="316"/>
      <point x="224" y="294"/>
      <point x="224" y="265" type="curve" smooth="yes"/>
      <point x="224" y="197"/>
      <point x="114" y="117"/>
      <point x="31" y="49" type="curve"/>
      <point x="37" y="0" type="line"/>
      <point x="319" y="0" type="line"/>
      <point x="329" y="102" type="line"/>
      <point x="272" y="108" type="line"/>
      <point x="261" y="54" type="line"/>
      <point x="120" y="54" type="line"/>
      <point x="171" y="94"/>
      <point x="302" y="181"/>
      <point x="302" y="273" type="curve" smooth="yes"/>
      <point x="302" y="321"/>
      <point x="266" y="370"/>
      <point x="175" y="370" type="curve" smooth="yes"/>
      <point x="131" y="370"/>
      <point x="82" y="358"/>
      <point x="51" y="336" type="curve"/>
      <point x="39" y="253" type="line"/>
    </contour>
  </outline>
</glyph>
<glyph name="threeinferior" format="1">
  <advance width="344"/>
  <unicode hex="2083"/>
  <outline>
    <contour>
      <point x="99" y="254" type="line"/>
      <point x="109" y="301" type="line"/>
      <point x="127" y="311"/>
      <point x="143" y="315"/>
      <point x="164" y="315" type="curve"/>
      <point x="200" y="315"/>
      <point x="220" y="298"/>
      <point x="220" y="268" type="curve" smooth="yes"/>
      <point x="220" y="230"/>
      <point x="190" y="213"/>
      <point x="137" y="210" type="curve"/>
      <point x="137" y="168" type="line"/>
      <point x="205" y="166"/>
      <point x="234" y="146"/>
      <point x="234" y="110" type="curve" smooth="yes"/>
      <point x="234" y="75"/>
      <point x="208" y="48"/>
      <point x="162" y="48" type="curve" smooth="yes"/>
      <point x="116" y="48"/>
      <point x="94" y="75"/>
      <point x="86" y="106" type="curve"/>
      <point x="35" y="91" type="line"/>
      <point x="45" y="27"/>
      <point x="94" y="-7"/>
      <point x="163" y="-7" type="curve" smooth="yes"/>
      <point x="245" y="-7"/>
      <point x="311" y="30"/>
      <point x="311" y="101" type="curve" smooth="yes"/>
      <point x="311" y="142"/>
      <point x="289" y="181"/>
      <point x="226" y="192" type="curve"/>
      <point x="226" y="194" type="line"/>
      <point x="276" y="211"/>
      <point x="296" y="243"/>
      <point x="296" y="279" type="curve" smooth="yes"/>
      <point x="296" y="332"/>
      <point x="251" y="369"/>
      <point x="178" y="369" type="curve" smooth="yes"/>
      <point x="139" y="369"/>
      <point x="86" y="358"/>
      <point x="55" y="336" type="curve"/>
      <point x="44" y="259" type="line"/>
    </contour>
  </outline>
</glyph>
<glyph name="fiveinferior" format="1">
  <advance width="336"/>
  <unicode hex="2085"/>
  <outline>
    <contour>
      <point x="308" y="111" type="curve" smooth="yes"/>
      <point x="308" y="205"/>
      <point x="230" y="226"/>
      <point x="146" y="226" type="curve" smooth="yes"/>
      <point x="122" y="226" type="line"/>
      <point x="122" y="310" type="line"/>
      <point x="228" y="310" type="line"/>
      <point x="234" y="263" type="line"/>
      <point x="291" y="269" type="line"/>
      <point x="285" y="364" type="line"/>
      <point x="284" y="363" type="line"/>
      <point x="284" y="364" type="line"/>
      <point x="55" y="364" type="line"/>
      <point x="55" y="192" type="line"/>
      <point x="79" y="173" type="line"/>
      <point x="96" y="174"/>
      <point x="115" y="176"/>
      <point x="135" y="176" type="curve" smooth="yes"/>
      <point x="185" y="176"/>
      <point x="232" y="166"/>
      <point x="232" y="111" type="curve" smooth="yes"/>
      <point x="232" y="74"/>
      <point x="206" y="48"/>
      <point x="160" y="48" type="curve" smooth="yes"/>
      <point x="113" y="48"/>
      <point x="92" y="75"/>
      <point x="83" y="106" type="curve"/>
      <point x="32" y="91" type="line"/>
      <point x="42" y="27"/>
      <point x="91" y="-7"/>
      <point x="160" y="-7" type="curve" smooth="yes"/>
      <point x="243" y="-7"/>
      <point x="308" y="31"/>
    </contour>
  </outline>
</glyph>
<glyph name="seveninferior" format="1">
  <advance width="312"/>
  <unicode hex="2087"/>
  <outline>
    <contour>
      <point x="26" y="364" type="line"/>
      <point x="26" y="249" type="line"/>
      <point x="88" y="249" type="line"/>
      <point x="88" y="311" type="line"/>
      <point x="222" y="311" type="line"/>
      <point x="88" y="0" type="line"/>
      <point x="158" y="0" type="line"/>
      <point x="298" y="333" type="line"/>
      <point x="290" y="364" type="line"/>
    </contour>
  </outline>
</glyph>
<glyph name="minus.inferior" format="1">
  <advance width="322"/>
  <unicode hex="208B"/>
  <outline>
    <contour>
      <point x="45" y="160" type="line"/>
      <point x="277" y="160" type="line"/>
      <point x="277" y="205" type="line"/>
      <point x="45" y="205" type="line"/>
    </contour>
  </outline>
</glyph>
<glyph name="equal.inferior" format="1">
  <advance width="385"/>
  <unicode hex="208C"/>
  <outline>
    <contour>
      <point x="45" y="225" type="line"/>
      <point x="339" y="225" type="line"/>
      <point x="339" y="272" type="line"/>
      <point x="45" y="272" type="line"/>
    </contour>
    <contour>
      <point x="45" y="93" type="line"/>
      <point x="339" y="93" type="line"/>
      <point x="339" y="139" type="line"/>
      <point x="45" y="139" type="line"/>
    </contour>
  </outline>
</glyph>
<glyph name="parenright.inferior" format="1">
  <advance width="221"/>
  <unicode hex="208E"/>
  <outline>
    <contour>
      <point x="83" y="-110" type="curve"/>
      <point x="22" y="-110" type="line"/>
      <point x="91" y="-27"/>
      <point x="127" y="63"/>
      <point x="127" y="158" type="curve" smooth="yes"/>
      <point x="127" y="250"/>
      <point x="91" y="345"/>
      <point x="22" y="428" type="curve"/>
      <point x="84" y="428" type="line"/>
      <point x="154" y="340"/>
      <point x="185" y="248"/>
      <point x="185" y="158" type="curve" smooth="yes"/>
      <point x="185" y="65"/>
      <point x="152" y="-25"/>
    </contour>
  </outline>
</glyph>
<glyph name="e.inferior" format="1">
  <advance width="338"/>
  <unicode hex="2091"/>
  <outline>
    <contour>
      <point x="183" y="47" type="curve" smooth="yes"/>
      <point x="229" y="47"/>
      <point x="247" y="72"/>
      <point x="253" y="98" type="curve"/>
      <point x="311" y="87" type="line"/>
      <point x="306" y="37"/>
      <point x="258" y="-7"/>
      <point x="177" y="-7" type="curve" smooth="yes"/>
      <point x="90" y="-7"/>
      <point x="28" y="45"/>
      <point x="28" y="140" type="curve" smooth="yes"/>
      <point x="28" y="230"/>
      <point x="82" y="297"/>
      <point x="173" y="297" type="curve" smooth="yes"/>
      <point x="269" y="297"/>
      <point x="325" y="221"/>
      <point x="304" y="132" type="curve"/>
      <point x="103" y="132" type="line"/>
      <point x="107" y="75"/>
      <point x="132" y="47"/>
    </contour>
    <contour>
      <point x="173" y="247" type="curve" smooth="yes"/>
      <point x="129" y="247"/>
      <point x="109" y="215"/>
      <point x="104" y="173" type="curve"/>
      <point x="235" y="173" type="line"/>
      <point x="241" y="209"/>
      <point x="221" y="247"/>
    </contour>
  </outline>
</glyph>
<glyph name="x.inferior" format="1">
  <advance width="369"/>
  <unicode hex="2093"/>
  <outline>
    <contour>
      <point x="19" y="50" type="line"/>
      <point x="59" y="50" type="line"/>
      <point x="149" y="145" type="line"/>
      <point x="55" y="241" type="line"/>
      <point x="22" y="241" type="line"/>
      <point x="22" y="291" type="line"/>
      <point x="168" y="291" type="line"/>
      <point x="168" y="241" type="line"/>
      <point x="134" y="241" type="line"/>
      <point x="190" y="178" type="line"/>
      <point x="249" y="241" type="line"/>
      <point x="218" y="241" type="line"/>
      <point x="218" y="291" type="line"/>
      <point x="344" y="291" type="line"/>
      <point x="344" y="241" type="line"/>
      <point x="311" y="241" type="line"/>
      <point x="223" y="150" type="line"/>
      <point x="318" y="50" type="line"/>
      <point x="352" y="50" type="line"/>
      <point x="352" y="0" type="line"/>
      <point x="208" y="0" type="line"/>
      <point x="208" y="50" type="line"/>
      <point x="241" y="50" type="line"/>
      <point x="182" y="115" type="line"/>
      <point x="123" y="50" type="line"/>
      <point x="153" y="50" type="line"/>
      <point x="153" y="0" type="line"/>
      <point x="19" y="0" type="line"/>
    </contour>
  </outline>
</glyph>
<glyph name="n.inferior" format="1">
  <advance width="411"/>
  <unicode hex="2099"/>
  <outline>
    <contour>
      <point x="233" y="50" type="line"/>
      <point x="278" y="50" type="line"/>
      <point x="278" y="168" type="line" smooth="yes"/>
      <point x="278" y="225"/>
      <point x="256" y="247"/>
      <point x="219" y="247" type="curve" smooth="yes"/>
      <point x="174" y="247"/>
      <point x="146" y="216"/>
      <point x="144" y="176" type="curve"/>
      <point x="144" y="50" type="line"/>
      <point x="189" y="50" type="line"/>
      <point x="189" y="0" type="line"/>
      <point x="29" y="0" type="line"/>
      <point x="29" y="50" type="line"/>
      <point x="74" y="50" type="line"/>
      <point x="74" y="241" type="line"/>
      <point x="26" y="241" type="line"/>
      <point x="26" y="291" type="line"/>
      <point x="144" y="291" type="line"/>
      <point x="144" y="242" type="line"/>
      <point x="163" y="276"/>
      <point x="198" y="297"/>
      <point x="244" y="297" type="curve" smooth="yes"/>
      <point x="301" y="297"/>
      <point x="349" y="265"/>
      <point x="349" y="191" type="curve" smooth="yes"/>
      <point x="349" y="50" type="line"/>
      <point x="393" y="50" type="line"/>
      <point x="393" y="0" type="line"/>
      <point x="233" y="0" type="line"/>
    </contour>
    <contour>
      <point x="212" y="368" type="move" name="top"/>
    </contour>
  </outline>
</glyph>
<glyph name="p.inferior" format="1">
  <advance width="397"/>
  <unicode hex="209A"/>
  <outline>
    <contour>
      <point x="22" y="-88" type="line"/>
      <point x="66" y="-88" type="line"/>
      <point x="66" y="241" type="line"/>
      <point x="19" y="241" type="line"/>
      <point x="19" y="291" type="line"/>
      <point x="136" y="291" type="line"/>
      <point x="136" y="233" type="line"/>
      <point x="153" y="267"/>
      <point x="186" y="297"/>
      <point x="241" y="297" type="curve" smooth="yes"/>
      <point x="316" y="297"/>
      <point x="369" y="244"/>
      <point x="369" y="153" type="curve" smooth="yes"/>
      <point x="369" y="72"/>
      <point x="326" y="-7"/>
      <point x="232" y="-7" type="curve" smooth="yes"/>
      <point x="188" y="-7"/>
      <point x="154" y="10"/>
      <point x="136" y="40" type="curve"/>
      <point x="136" y="-88" type="line"/>
      <point x="197" y="-88" type="line"/>
      <point x="197" y="-138" type="line"/>
      <point x="22" y="-138" type="line"/>
    </contour>
    <contour>
      <point x="214" y="47" type="curve" smooth="yes"/>
      <point x="264" y="47"/>
      <point x="294" y="87"/>
      <point x="294" y="148" type="curve" smooth="yes"/>
      <point x="294" y="211"/>
      <point x="262" y="243"/>
      <point x="220" y="243" type="curve" smooth="yes"/>
      <point x="171" y="243"/>
      <point x="139" y="201"/>
      <point x="136" y="159" type="curve"/>
      <point x="136" y="125" type="line" smooth="yes"/>
      <point x="136" y="76"/>
      <point x="171" y="47"/>
    </contour>
    <contour>
      <point x="225" y="368" type="move" name="top"/>
    </contour>
  </outline>
</glyph>
